STARTFONT 2.1
COMMENT
COMMENT Converted from OpenType font "Q:\font stuff\winfont\lucida.ttf" by "otf2bdf 3.0".
COMMENT
FONT -FreeType-Lucida Sans Unicode-Medium-R-Normal--16-160-72-72-P-88-ISO10646-1
SIZE 16 72 72
FONTBOUNDINGBOX 33 27 -10 -8
STARTPROPERTIES 19
FOUNDRY "FreeType"
FAMILY_NAME "Lucida Sans Unicode"
WEIGHT_NAME "Medium"
SLANT "R"
SETWIDTH_NAME "Normal"
ADD_STYLE_NAME ""
PIXEL_SIZE 16
POINT_SIZE 160
RESOLUTION_X 72
RESOLUTION_Y 72
SPACING "P"
AVERAGE_WIDTH 88
CHARSET_REGISTRY "ISO10646"
CHARSET_ENCODING "1"
FONT_ASCENT 17
FONT_DESCENT 7
COPYRIGHT "Copyright © 1993 Bigelow & Holmes Inc. All rights reserved. Pat. Des. 289,420. Pats. Pend."
_OTF_FONTFILE "Q:\font stuff\winfont\lucida.ttf"
_OTF_PSNAME "LucidaSansUnicode"
ENDPROPERTIES
CHARS 1753
STARTCHAR 0020
ENCODING 32
SWIDTH 312 0
DWIDTH 5 0
BBX 0 0 0 0
BITMAP
ENDCHAR
STARTCHAR 0021
ENCODING 33
SWIDTH 312 0
DWIDTH 5 0
BBX 2 12 2 0
BITMAP
C0
C0
C0
C0
C0
C0
C0
C0
C0
00
00
C0
ENDCHAR
STARTCHAR 0022
ENCODING 34
SWIDTH 375 0
DWIDTH 6 0
BBX 5 3 1 9
BITMAP
D8
D8
D8
ENDCHAR
STARTCHAR 0023
ENCODING 35
SWIDTH 625 0
DWIDTH 10 0
BBX 10 12 0 0
BITMAP
0880
0880
1100
1100
7FC0
1100
2200
FF80
2200
2200
4400
4400
ENDCHAR
STARTCHAR 0024
ENCODING 36
SWIDTH 625 0
DWIDTH 10 0
BBX 7 14 2 -1
BITMAP
10
3C
52
D0
D0
F0
70
1C
1E
16
16
94
78
10
ENDCHAR
STARTCHAR 0025
ENCODING 37
SWIDTH 687 0
DWIDTH 11 0
BBX 11 12 0 0
BITMAP
7020
8840
8880
8900
8A00
7400
05C0
0A20
1220
2220
4220
01C0
ENDCHAR
STARTCHAR 0026
ENCODING 38
SWIDTH 687 0
DWIDTH 11 0
BBX 10 12 1 0
BITMAP
1E00
3300
3300
3300
1E00
7800
CCC0
C6C0
C680
C380
6380
3DC0
ENDCHAR
STARTCHAR 0027
ENCODING 39
SWIDTH 250 0
DWIDTH 4 0
BBX 2 4 1 8
BITMAP
C0
C0
C0
C0
ENDCHAR
STARTCHAR 0028
ENCODING 40
SWIDTH 312 0
DWIDTH 5 0
BBX 4 14 1 -2
BITMAP
10
30
60
40
C0
C0
C0
C0
C0
C0
40
60
30
10
ENDCHAR
STARTCHAR 0029
ENCODING 41
SWIDTH 312 0
DWIDTH 5 0
BBX 4 14 1 -2
BITMAP
80
C0
60
20
30
30
30
30
30
30
20
60
C0
80
ENDCHAR
STARTCHAR 002A
ENCODING 42
SWIDTH 500 0
DWIDTH 8 0
BBX 5 5 2 7
BITMAP
20
A8
50
50
50
ENDCHAR
STARTCHAR 002B
ENCODING 43
SWIDTH 812 0
DWIDTH 13 0
BBX 9 9 2 0
BITMAP
0800
0800
0800
0800
FF80
0800
0800
0800
0800
ENDCHAR
STARTCHAR 002C
ENCODING 44
SWIDTH 312 0
DWIDTH 5 0
BBX 2 4 2 -2
BITMAP
C0
C0
40
80
ENDCHAR
STARTCHAR 002D
ENCODING 45
SWIDTH 562 0
DWIDTH 9 0
BBX 7 1 1 4
BITMAP
FE
ENDCHAR
STARTCHAR 002E
ENCODING 46
SWIDTH 312 0
DWIDTH 5 0
BBX 2 2 2 0
BITMAP
C0
C0
ENDCHAR
STARTCHAR 002F
ENCODING 47
SWIDTH 500 0
DWIDTH 8 0
BBX 5 14 2 -2
BITMAP
08
08
10
10
10
20
20
20
40
40
40
40
80
80
ENDCHAR
STARTCHAR 0030
ENCODING 48
SWIDTH 625 0
DWIDTH 10 0
BBX 9 12 1 0
BITMAP
1C00
6300
6300
C180
C180
C180
C180
C180
C180
6300
6300
1C00
ENDCHAR
STARTCHAR 0031
ENCODING 49
SWIDTH 625 0
DWIDTH 10 0
BBX 3 12 3 0
BITMAP
E0
60
60
60
60
60
60
60
60
60
60
60
ENDCHAR
STARTCHAR 0032
ENCODING 50
SWIDTH 625 0
DWIDTH 10 0
BBX 7 12 2 0
BITMAP
78
8C
06
06
06
0C
18
30
60
60
C0
FE
ENDCHAR
STARTCHAR 0033
ENCODING 51
SWIDTH 625 0
DWIDTH 10 0
BBX 7 12 2 0
BITMAP
78
8C
06
06
0C
78
0C
06
06
06
8C
78
ENDCHAR
STARTCHAR 0034
ENCODING 52
SWIDTH 625 0
DWIDTH 10 0
BBX 9 12 1 0
BITMAP
0600
0E00
1600
1600
2600
2600
4600
8600
FF80
0600
0600
0600
ENDCHAR
STARTCHAR 0035
ENCODING 53
SWIDTH 625 0
DWIDTH 10 0
BBX 6 12 2 0
BITMAP
FC
C0
C0
C0
F0
18
0C
0C
0C
0C
18
F0
ENDCHAR
STARTCHAR 0036
ENCODING 54
SWIDTH 625 0
DWIDTH 10 0
BBX 8 12 1 0
BITMAP
1E
60
60
C0
DC
E6
C3
C3
C3
C3
66
3C
ENDCHAR
STARTCHAR 0037
ENCODING 55
SWIDTH 625 0
DWIDTH 10 0
BBX 7 12 2 0
BITMAP
FE
02
04
0C
08
18
10
30
30
60
60
60
ENDCHAR
STARTCHAR 0038
ENCODING 56
SWIDTH 625 0
DWIDTH 10 0
BBX 8 12 1 0
BITMAP
3E
63
63
63
36
3C
6E
C3
C3
C3
66
3C
ENDCHAR
STARTCHAR 0039
ENCODING 57
SWIDTH 625 0
DWIDTH 10 0
BBX 8 12 1 0
BITMAP
3C
66
C3
C3
C3
C3
67
3B
03
06
06
78
ENDCHAR
STARTCHAR 003A
ENCODING 58
SWIDTH 312 0
DWIDTH 5 0
BBX 2 9 2 0
BITMAP
C0
00
00
00
00
00
00
00
C0
ENDCHAR
STARTCHAR 003B
ENCODING 59
SWIDTH 312 0
DWIDTH 5 0
BBX 2 11 2 -2
BITMAP
C0
00
00
00
00
00
00
00
C0
40
80
ENDCHAR
STARTCHAR 003C
ENCODING 60
SWIDTH 812 0
DWIDTH 13 0
BBX 9 9 2 0
BITMAP
0080
0300
0C00
3000
C000
3000
0C00
0300
0080
ENDCHAR
STARTCHAR 003D
ENCODING 61
SWIDTH 812 0
DWIDTH 13 0
BBX 9 4 2 3
BITMAP
FF80
0000
0000
FF80
ENDCHAR
STARTCHAR 003E
ENCODING 62
SWIDTH 812 0
DWIDTH 13 0
BBX 9 9 2 0
BITMAP
8000
6000
1800
0600
0180
0600
1800
6000
8000
ENDCHAR
STARTCHAR 003F
ENCODING 63
SWIDTH 437 0
DWIDTH 7 0
BBX 7 12 0 0
BITMAP
FC
0E
06
06
0C
18
10
30
30
00
00
30
ENDCHAR
STARTCHAR 0040
ENCODING 64
SWIDTH 875 0
DWIDTH 14 0
BBX 12 12 1 0
BITMAP
0780
1860
2020
4790
4890
9090
9110
9320
9DC0
4000
6000
1E00
ENDCHAR
STARTCHAR 0041
ENCODING 65
SWIDTH 687 0
DWIDTH 11 0
BBX 11 12 0 0
BITMAP
0400
0C00
0E00
1600
1300
1300
2180
3F80
4180
40C0
40C0
8060
ENDCHAR
STARTCHAR 0042
ENCODING 66
SWIDTH 562 0
DWIDTH 9 0
BBX 7 12 1 0
BITMAP
F8
CC
C6
C6
CC
F8
CC
C6
C6
C6
CC
F8
ENDCHAR
STARTCHAR 0043
ENCODING 67
SWIDTH 687 0
DWIDTH 11 0
BBX 9 12 1 0
BITMAP
1F00
3080
6000
C000
C000
C000
C000
C000
C000
6000
7080
1F00
ENDCHAR
STARTCHAR 0044
ENCODING 68
SWIDTH 750 0
DWIDTH 12 0
BBX 10 12 2 0
BITMAP
FE00
C380
C180
C0C0
C0C0
C0C0
C0C0
C0C0
C0C0
C180
C380
FE00
ENDCHAR
STARTCHAR 0045
ENCODING 69
SWIDTH 562 0
DWIDTH 9 0
BBX 7 12 2 0
BITMAP
FE
C0
C0
C0
C0
FC
C0
C0
C0
C0
C0
FE
ENDCHAR
STARTCHAR 0046
ENCODING 70
SWIDTH 562 0
DWIDTH 9 0
BBX 6 12 2 0
BITMAP
FC
C0
C0
C0
C0
F8
C0
C0
C0
C0
C0
C0
ENDCHAR
STARTCHAR 0047
ENCODING 71
SWIDTH 750 0
DWIDTH 12 0
BBX 10 12 1 0
BITMAP
1F80
7040
6000
C000
C000
C000
C000
C0C0
C0C0
60C0
70C0
1FC0
ENDCHAR
STARTCHAR 0048
ENCODING 72
SWIDTH 750 0
DWIDTH 12 0
BBX 9 12 2 0
BITMAP
C180
C180
C180
C180
C180
FF80
C180
C180
C180
C180
C180
C180
ENDCHAR
STARTCHAR 0049
ENCODING 73
SWIDTH 312 0
DWIDTH 5 0
BBX 2 12 2 0
BITMAP
C0
C0
C0
C0
C0
C0
C0
C0
C0
C0
C0
C0
ENDCHAR
STARTCHAR 004A
ENCODING 74
SWIDTH 312 0
DWIDTH 5 0
BBX 5 14 -1 -2
BITMAP
18
18
18
18
18
18
18
18
18
18
18
18
18
F0
ENDCHAR
STARTCHAR 004B
ENCODING 75
SWIDTH 625 0
DWIDTH 10 0
BBX 9 12 2 0
BITMAP
C100
C200
C400
C800
D000
E000
F000
D800
CC00
C600
C300
C180
ENDCHAR
STARTCHAR 004C
ENCODING 76
SWIDTH 562 0
DWIDTH 9 0
BBX 7 12 2 0
BITMAP
C0
C0
C0
C0
C0
C0
C0
C0
C0
C0
C0
FE
ENDCHAR
STARTCHAR 004D
ENCODING 77
SWIDTH 875 0
DWIDTH 14 0
BBX 11 12 2 0
BITMAP
C060
C0E0
E0E0
E0E0
B160
B160
B160
9A60
9A60
8E60
8C60
8060
ENDCHAR
STARTCHAR 004E
ENCODING 78
SWIDTH 750 0
DWIDTH 12 0
BBX 9 12 2 0
BITMAP
C080
E080
E080
B080
B880
9880
8C80
8E80
8680
8380
8380
8180
ENDCHAR
STARTCHAR 004F
ENCODING 79
SWIDTH 750 0
DWIDTH 12 0
BBX 11 12 1 0
BITMAP
1F00
71C0
60C0
C060
C060
C060
C060
C060
C060
60C0
71C0
1F00
ENDCHAR
STARTCHAR 0050
ENCODING 80
SWIDTH 562 0
DWIDTH 9 0
BBX 7 12 2 0
BITMAP
FC
CE
C6
C6
C6
CC
F8
C0
C0
C0
C0
C0
ENDCHAR
STARTCHAR 0051
ENCODING 81
SWIDTH 750 0
DWIDTH 12 0
BBX 11 14 1 -2
BITMAP
1F00
71C0
60C0
C060
C060
C060
C060
C060
C060
60C0
71C0
1F00
01C0
0020
ENDCHAR
STARTCHAR 0052
ENCODING 82
SWIDTH 625 0
DWIDTH 10 0
BBX 9 12 2 0
BITMAP
F800
CC00
C600
C600
C600
CC00
F800
D800
CC00
C600
C300
C380
ENDCHAR
STARTCHAR 0053
ENCODING 83
SWIDTH 562 0
DWIDTH 9 0
BBX 7 12 1 0
BITMAP
3C
60
C0
C0
E0
78
1C
0E
06
06
8C
78
ENDCHAR
STARTCHAR 0054
ENCODING 84
SWIDTH 625 0
DWIDTH 10 0
BBX 10 12 0 0
BITMAP
FFC0
0C00
0C00
0C00
0C00
0C00
0C00
0C00
0C00
0C00
0C00
0C00
ENDCHAR
STARTCHAR 0055
ENCODING 85
SWIDTH 687 0
DWIDTH 11 0
BBX 8 12 1 0
BITMAP
C3
C3
C3
C3
C3
C3
C3
C3
C3
C3
66
3C
ENDCHAR
STARTCHAR 0056
ENCODING 86
SWIDTH 625 0
DWIDTH 10 0
BBX 10 12 0 0
BITMAP
C040
6080
6080
6080
3100
3100
3100
1A00
1A00
0E00
0C00
0C00
ENDCHAR
STARTCHAR 0057
ENCODING 87
SWIDTH 875 0
DWIDTH 14 0
BBX 14 12 0 0
BITMAP
C304
C304
6388
6588
6588
6588
34D0
34D0
34D0
38D0
1860
1860
ENDCHAR
STARTCHAR 0058
ENCODING 88
SWIDTH 625 0
DWIDTH 10 0
BBX 9 12 0 0
BITMAP
E080
6100
7200
3200
3C00
1C00
1C00
1E00
2600
2700
4300
8380
ENDCHAR
STARTCHAR 0059
ENCODING 89
SWIDTH 625 0
DWIDTH 10 0
BBX 10 12 0 0
BITMAP
C040
6080
6080
3100
1A00
1A00
0C00
0C00
0C00
0C00
0C00
0C00
ENDCHAR
STARTCHAR 005A
ENCODING 90
SWIDTH 625 0
DWIDTH 10 0
BBX 8 12 1 0
BITMAP
FF
03
06
0C
0C
18
18
30
60
60
C0
FF
ENDCHAR
STARTCHAR 005B
ENCODING 91
SWIDTH 312 0
DWIDTH 5 0
BBX 3 14 2 -2
BITMAP
E0
C0
C0
C0
C0
C0
C0
C0
C0
C0
C0
C0
C0
E0
ENDCHAR
STARTCHAR 005C
ENCODING 92
SWIDTH 500 0
DWIDTH 8 0
BBX 5 14 2 -2
BITMAP
80
80
40
40
40
40
20
20
20
10
10
10
08
08
ENDCHAR
STARTCHAR 005D
ENCODING 93
SWIDTH 312 0
DWIDTH 5 0
BBX 3 14 1 -2
BITMAP
E0
60
60
60
60
60
60
60
60
60
60
60
60
E0
ENDCHAR
STARTCHAR 005E
ENCODING 94
SWIDTH 625 0
DWIDTH 10 0
BBX 9 8 1 4
BITMAP
0800
0800
1C00
1400
3600
6300
4100
C180
ENDCHAR
STARTCHAR 005F
ENCODING 95
SWIDTH 500 0
DWIDTH 8 0
BBX 6 1 1 -1
BITMAP
FC
ENDCHAR
STARTCHAR 0060
ENCODING 96
SWIDTH 625 0
DWIDTH 10 0
BBX 4 3 3 10
BITMAP
C0
60
30
ENDCHAR
STARTCHAR 0061
ENCODING 97
SWIDTH 562 0
DWIDTH 9 0
BBX 8 9 1 0
BITMAP
3C
46
06
06
3E
E6
C6
C6
7B
ENDCHAR
STARTCHAR 0062
ENCODING 98
SWIDTH 625 0
DWIDTH 10 0
BBX 8 12 1 0
BITMAP
C0
C0
C0
DC
E6
C3
C3
C3
C3
C3
E6
DC
ENDCHAR
STARTCHAR 0063
ENCODING 99
SWIDTH 500 0
DWIDTH 8 0
BBX 7 9 1 0
BITMAP
3E
60
C0
C0
C0
C0
C0
60
3E
ENDCHAR
STARTCHAR 0064
ENCODING 100
SWIDTH 625 0
DWIDTH 10 0
BBX 8 12 1 0
BITMAP
03
03
03
3B
67
C3
C3
C3
C3
C3
67
3B
ENDCHAR
STARTCHAR 0065
ENCODING 101
SWIDTH 625 0
DWIDTH 10 0
BBX 8 9 1 0
BITMAP
3C
66
C3
C3
FF
C0
C0
60
3F
ENDCHAR
STARTCHAR 0066
ENCODING 102
SWIDTH 375 0
DWIDTH 6 0
BBX 6 12 1 0
BITMAP
3C
60
60
F8
60
60
60
60
60
60
60
60
ENDCHAR
STARTCHAR 0067
ENCODING 103
SWIDTH 625 0
DWIDTH 10 0
BBX 8 12 1 -3
BITMAP
3B
67
C3
C3
C3
C3
C3
67
3B
03
06
7C
ENDCHAR
STARTCHAR 0068
ENCODING 104
SWIDTH 625 0
DWIDTH 10 0
BBX 7 12 2 0
BITMAP
C0
C0
C0
DC
E6
C6
C6
C6
C6
C6
C6
C6
ENDCHAR
STARTCHAR 0069
ENCODING 105
SWIDTH 312 0
DWIDTH 5 0
BBX 2 12 2 0
BITMAP
C0
00
00
C0
C0
C0
C0
C0
C0
C0
C0
C0
ENDCHAR
STARTCHAR 006A
ENCODING 106
SWIDTH 312 0
DWIDTH 5 0
BBX 5 15 -1 -3
BITMAP
18
00
00
18
18
18
18
18
18
18
18
18
18
18
F0
ENDCHAR
STARTCHAR 006B
ENCODING 107
SWIDTH 562 0
DWIDTH 9 0
BBX 8 12 2 0
BITMAP
C0
C0
C0
C2
C4
C8
D0
F0
D8
CC
C6
C3
ENDCHAR
STARTCHAR 006C
ENCODING 108
SWIDTH 312 0
DWIDTH 5 0
BBX 2 12 2 0
BITMAP
C0
C0
C0
C0
C0
C0
C0
C0
C0
C0
C0
C0
ENDCHAR
STARTCHAR 006D
ENCODING 109
SWIDTH 937 0
DWIDTH 15 0
BBX 12 9 2 0
BITMAP
DCE0
E730
C630
C630
C630
C630
C630
C630
C630
ENDCHAR
STARTCHAR 006E
ENCODING 110
SWIDTH 625 0
DWIDTH 10 0
BBX 8 9 1 0
BITMAP
DE
E3
C3
C3
C3
C3
C3
C3
C3
ENDCHAR
STARTCHAR 006F
ENCODING 111
SWIDTH 625 0
DWIDTH 10 0
BBX 8 9 1 0
BITMAP
3C
66
C3
C3
C3
C3
C3
66
3C
ENDCHAR
STARTCHAR 0070
ENCODING 112
SWIDTH 625 0
DWIDTH 10 0
BBX 8 12 1 -3
BITMAP
DC
E6
C3
C3
C3
C3
C3
E6
DC
C0
C0
C0
ENDCHAR
STARTCHAR 0071
ENCODING 113
SWIDTH 625 0
DWIDTH 10 0
BBX 8 12 1 -3
BITMAP
3B
67
C3
C3
C3
C3
C3
67
3B
03
03
03
ENDCHAR
STARTCHAR 0072
ENCODING 114
SWIDTH 437 0
DWIDTH 7 0
BBX 5 9 2 0
BITMAP
D8
E0
C0
C0
C0
C0
C0
C0
C0
ENDCHAR
STARTCHAR 0073
ENCODING 115
SWIDTH 500 0
DWIDTH 8 0
BBX 6 9 1 0
BITMAP
78
C0
C0
E0
78
1C
0C
8C
78
ENDCHAR
STARTCHAR 0074
ENCODING 116
SWIDTH 375 0
DWIDTH 6 0
BBX 5 11 0 0
BITMAP
60
60
F8
60
60
60
60
60
60
60
38
ENDCHAR
STARTCHAR 0075
ENCODING 117
SWIDTH 625 0
DWIDTH 10 0
BBX 8 9 1 0
BITMAP
C3
C3
C3
C3
C3
C3
C3
C7
7B
ENDCHAR
STARTCHAR 0076
ENCODING 118
SWIDTH 500 0
DWIDTH 8 0
BBX 8 9 0 0
BITMAP
C1
62
62
62
34
34
34
18
18
ENDCHAR
STARTCHAR 0077
ENCODING 119
SWIDTH 812 0
DWIDTH 13 0
BBX 11 9 1 0
BITMAP
C620
C620
6B40
6B40
6B40
6B40
6B40
3180
3180
ENDCHAR
STARTCHAR 0078
ENCODING 120
SWIDTH 625 0
DWIDTH 10 0
BBX 8 9 1 0
BITMAP
E1
62
34
3C
18
3C
2C
46
87
ENDCHAR
STARTCHAR 0079
ENCODING 121
SWIDTH 500 0
DWIDTH 8 0
BBX 8 12 0 -3
BITMAP
C1
62
62
62
34
34
34
18
18
10
10
30
ENDCHAR
STARTCHAR 007A
ENCODING 122
SWIDTH 562 0
DWIDTH 9 0
BBX 7 9 1 0
BITMAP
FE
06
0C
18
18
30
60
C0
FE
ENDCHAR
STARTCHAR 007B
ENCODING 123
SWIDTH 312 0
DWIDTH 5 0
BBX 4 14 0 -2
BITMAP
10
20
20
20
20
20
20
C0
20
20
20
20
20
10
ENDCHAR
STARTCHAR 007C
ENCODING 124
SWIDTH 375 0
DWIDTH 6 0
BBX 1 14 3 -2
BITMAP
80
80
80
80
80
80
80
80
80
80
80
80
80
80
ENDCHAR
STARTCHAR 007D
ENCODING 125
SWIDTH 312 0
DWIDTH 5 0
BBX 4 14 1 -2
BITMAP
80
40
40
40
40
40
40
30
40
40
40
40
40
80
ENDCHAR
STARTCHAR 007E
ENCODING 126
SWIDTH 625 0
DWIDTH 10 0
BBX 8 3 1 3
BITMAP
61
99
86
ENDCHAR
STARTCHAR 00A0
ENCODING 160
SWIDTH 312 0
DWIDTH 5 0
BBX 0 0 0 0
BITMAP
ENDCHAR
STARTCHAR 00A1
ENCODING 161
SWIDTH 312 0
DWIDTH 5 0
BBX 2 12 2 -3
BITMAP
C0
00
00
C0
C0
C0
C0
C0
C0
C0
C0
C0
ENDCHAR
STARTCHAR 00A2
ENCODING 162
SWIDTH 625 0
DWIDTH 10 0
BBX 7 12 2 0
BITMAP
08
3E
68
C8
C8
C8
C8
C8
48
68
3E
08
ENDCHAR
STARTCHAR 00A3
ENCODING 163
SWIDTH 625 0
DWIDTH 10 0
BBX 7 12 2 0
BITMAP
1E
30
30
30
30
F8
30
30
30
30
60
FE
ENDCHAR
STARTCHAR 00A4
ENCODING 164
SWIDTH 625 0
DWIDTH 10 0
BBX 9 9 1 1
BITMAP
8080
5D00
2200
4100
4100
4100
2200
5D00
8080
ENDCHAR
STARTCHAR 00A5
ENCODING 165
SWIDTH 625 0
DWIDTH 10 0
BBX 10 12 0 0
BITMAP
E040
6080
3100
3900
1A00
0C00
7F00
0C00
7F00
0C00
0C00
0C00
ENDCHAR
STARTCHAR 00A6
ENCODING 166
SWIDTH 375 0
DWIDTH 6 0
BBX 1 14 3 -2
BITMAP
80
80
80
80
80
80
00
00
80
80
80
80
80
80
ENDCHAR
STARTCHAR 00A7
ENCODING 167
SWIDTH 625 0
DWIDTH 10 0
BBX 7 15 2 -3
BITMAP
3C
62
C0
C0
70
7C
CE
C6
E6
7C
1C
06
06
86
7C
ENDCHAR
STARTCHAR 00A8
ENCODING 168
SWIDTH 625 0
DWIDTH 10 0
BBX 5 1 3 10
BITMAP
D8
ENDCHAR
STARTCHAR 00A9
ENCODING 169
SWIDTH 875 0
DWIDTH 14 0
BBX 12 12 1 0
BITMAP
0F00
30C0
4020
4F20
9010
9010
9010
9010
4F20
4020
30C0
0F00
ENDCHAR
STARTCHAR 00AA
ENCODING 170
SWIDTH 437 0
DWIDTH 7 0
BBX 5 5 1 7
BITMAP
F0
10
70
90
F8
ENDCHAR
STARTCHAR 00AB
ENCODING 171
SWIDTH 500 0
DWIDTH 8 0
BBX 7 7 1 1
BITMAP
12
24
6C
D8
6C
24
12
ENDCHAR
STARTCHAR 00AC
ENCODING 172
SWIDTH 812 0
DWIDTH 13 0
BBX 9 4 2 2
BITMAP
FF80
0080
0080
0080
ENDCHAR
STARTCHAR 00AD
ENCODING 173
SWIDTH 312 0
DWIDTH 5 0
BBX 3 1 1 4
BITMAP
E0
ENDCHAR
STARTCHAR 00AE
ENCODING 174
SWIDTH 625 0
DWIDTH 10 0
BBX 7 7 2 5
BITMAP
38
44
BA
AA
B2
6C
38
ENDCHAR
STARTCHAR 00AF
ENCODING 175
SWIDTH 500 0
DWIDTH 8 0
BBX 6 1 1 11
BITMAP
FC
ENDCHAR
STARTCHAR 00B0
ENCODING 176
SWIDTH 250 0
DWIDTH 4 0
BBX 3 3 1 9
BITMAP
E0
A0
E0
ENDCHAR
STARTCHAR 00B1
ENCODING 177
SWIDTH 812 0
DWIDTH 13 0
BBX 9 10 2 0
BITMAP
0800
0800
0800
FF80
0800
0800
0800
0000
0000
FF80
ENDCHAR
STARTCHAR 00B2
ENCODING 178
SWIDTH 437 0
DWIDTH 7 0
BBX 4 7 1 5
BITMAP
E0
10
10
20
40
80
F0
ENDCHAR
STARTCHAR 00B3
ENCODING 179
SWIDTH 437 0
DWIDTH 7 0
BBX 4 7 1 5
BITMAP
E0
10
10
60
10
10
E0
ENDCHAR
STARTCHAR 00B4
ENCODING 180
SWIDTH 625 0
DWIDTH 10 0
BBX 4 3 3 10
BITMAP
30
60
C0
ENDCHAR
STARTCHAR 00B5
ENCODING 181
SWIDTH 625 0
DWIDTH 10 0
BBX 7 12 2 -3
BITMAP
C6
C6
C6
C6
C6
C6
C6
CE
F6
C0
C0
C0
ENDCHAR
STARTCHAR 00B6
ENCODING 182
SWIDTH 625 0
DWIDTH 10 0
BBX 6 14 2 -2
BITMAP
7C
F4
F4
F4
74
34
14
14
14
14
14
14
14
14
ENDCHAR
STARTCHAR 00B7
ENCODING 183
SWIDTH 625 0
DWIDTH 10 0
BBX 2 2 4 4
BITMAP
C0
C0
ENDCHAR
STARTCHAR 00B8
ENCODING 184
SWIDTH 625 0
DWIDTH 10 0
BBX 3 3 4 -3
BITMAP
60
20
E0
ENDCHAR
STARTCHAR 00B9
ENCODING 185
SWIDTH 437 0
DWIDTH 7 0
BBX 2 7 2 5
BITMAP
C0
40
40
40
40
40
40
ENDCHAR
STARTCHAR 00BA
ENCODING 186
SWIDTH 437 0
DWIDTH 7 0
BBX 5 5 1 7
BITMAP
70
88
88
88
70
ENDCHAR
STARTCHAR 00BB
ENCODING 187
SWIDTH 500 0
DWIDTH 8 0
BBX 7 7 1 1
BITMAP
90
48
6C
36
6C
48
90
ENDCHAR
STARTCHAR 00BC
ENCODING 188
SWIDTH 812 0
DWIDTH 13 0
BBX 11 12 1 0
BITMAP
C040
4080
4100
4200
4200
4440
48C0
1140
1240
23E0
4040
8040
ENDCHAR
STARTCHAR 00BD
ENCODING 189
SWIDTH 812 0
DWIDTH 13 0
BBX 11 12 1 0
BITMAP
C040
4080
4100
4200
4200
45C0
4820
1020
1040
2080
4100
81E0
ENDCHAR
STARTCHAR 00BE
ENCODING 190
SWIDTH 812 0
DWIDTH 13 0
BBX 11 12 1 0
BITMAP
E020
1040
1080
6100
1100
1240
E4C0
0940
0A40
13E0
2040
4040
ENDCHAR
STARTCHAR 00BF
ENCODING 191
SWIDTH 437 0
DWIDTH 7 0
BBX 7 12 0 -3
BITMAP
18
00
00
18
18
10
30
60
C0
C0
E0
7E
ENDCHAR
STARTCHAR 00C0
ENCODING 192
SWIDTH 687 0
DWIDTH 11 0
BBX 11 16 0 0
BITMAP
3000
1800
0C00
0000
0400
0C00
0E00
1600
1300
1300
2180
3F80
4180
40C0
40C0
8060
ENDCHAR
STARTCHAR 00C1
ENCODING 193
SWIDTH 687 0
DWIDTH 11 0
BBX 11 16 0 0
BITMAP
0300
0600
0C00
0000
0400
0C00
0E00
1600
1300
1300
2180
3F80
4180
40C0
40C0
8060
ENDCHAR
STARTCHAR 00C2
ENCODING 194
SWIDTH 687 0
DWIDTH 11 0
BBX 11 16 0 0
BITMAP
0E00
0A00
1100
0000
0400
0C00
0E00
1600
1300
1300
2180
3F80
4180
40C0
40C0
8060
ENDCHAR
STARTCHAR 00C3
ENCODING 195
SWIDTH 687 0
DWIDTH 11 0
BBX 11 15 0 0
BITMAP
1D00
1700
0000
0400
0C00
0E00
1600
1300
1300
2180
3F80
4180
40C0
40C0
8060
ENDCHAR
STARTCHAR 00C4
ENCODING 196
SWIDTH 687 0
DWIDTH 11 0
BBX 11 14 0 0
BITMAP
1B00
0000
0400
0C00
0E00
1600
1300
1300
2180
3F80
4180
40C0
40C0
8060
ENDCHAR
STARTCHAR 00C5
ENCODING 197
SWIDTH 687 0
DWIDTH 11 0
BBX 11 17 0 0
BITMAP
0C00
1200
1200
0C00
0000
0400
0C00
0E00
1600
1300
1300
2180
3F80
4180
40C0
40C0
8060
ENDCHAR
STARTCHAR 00C6
ENCODING 198
SWIDTH 937 0
DWIDTH 15 0
BBX 14 12 0 0
BITMAP
01FC
0380
0780
0580
0980
09F8
1180
1180
3F80
6180
4180
81FC
ENDCHAR
STARTCHAR 00C7
ENCODING 199
SWIDTH 687 0
DWIDTH 11 0
BBX 9 15 1 -3
BITMAP
1F00
3080
6000
C000
C000
C000
C000
C000
C000
6000
7080
1F00
0600
0200
0E00
ENDCHAR
STARTCHAR 00C8
ENCODING 200
SWIDTH 562 0
DWIDTH 9 0
BBX 7 16 2 0
BITMAP
C0
60
30
00
FE
C0
C0
C0
C0
FC
C0
C0
C0
C0
C0
FE
ENDCHAR
STARTCHAR 00C9
ENCODING 201
SWIDTH 562 0
DWIDTH 9 0
BBX 7 16 2 0
BITMAP
18
30
60
00
FE
C0
C0
C0
C0
FC
C0
C0
C0
C0
C0
FE
ENDCHAR
STARTCHAR 00CA
ENCODING 202
SWIDTH 562 0
DWIDTH 9 0
BBX 7 16 2 0
BITMAP
38
28
44
00
FE
C0
C0
C0
C0
FC
C0
C0
C0
C0
C0
FE
ENDCHAR
STARTCHAR 00CB
ENCODING 203
SWIDTH 562 0
DWIDTH 9 0
BBX 7 14 2 0
BITMAP
6C
00
FE
C0
C0
C0
C0
FC
C0
C0
C0
C0
C0
FE
ENDCHAR
STARTCHAR 00CC
ENCODING 204
SWIDTH 312 0
DWIDTH 5 0
BBX 4 16 0 0
BITMAP
C0
60
30
00
30
30
30
30
30
30
30
30
30
30
30
30
ENDCHAR
STARTCHAR 00CD
ENCODING 205
SWIDTH 312 0
DWIDTH 5 0
BBX 4 16 2 0
BITMAP
30
60
C0
00
C0
C0
C0
C0
C0
C0
C0
C0
C0
C0
C0
C0
ENDCHAR
STARTCHAR 00CE
ENCODING 206
SWIDTH 312 0
DWIDTH 5 0
BBX 5 16 0 0
BITMAP
70
50
88
00
30
30
30
30
30
30
30
30
30
30
30
30
ENDCHAR
STARTCHAR 00CF
ENCODING 207
SWIDTH 312 0
DWIDTH 5 0
BBX 5 14 1 0
BITMAP
D8
00
60
60
60
60
60
60
60
60
60
60
60
60
ENDCHAR
STARTCHAR 00D0
ENCODING 208
SWIDTH 750 0
DWIDTH 12 0
BBX 12 12 0 0
BITMAP
3F80
30C0
3060
3030
3030
FC30
3030
3030
3030
3060
30C0
3F80
ENDCHAR
STARTCHAR 00D1
ENCODING 209
SWIDTH 750 0
DWIDTH 12 0
BBX 9 15 2 0
BITMAP
3A00
2E00
0000
C080
E080
E080
B080
B880
9880
8C80
8E80
8680
8380
8380
8180
ENDCHAR
STARTCHAR 00D2
ENCODING 210
SWIDTH 750 0
DWIDTH 12 0
BBX 11 16 1 0
BITMAP
3000
1800
0C00
0000
1F00
71C0
60C0
C060
C060
C060
C060
C060
C060
60C0
71C0
1F00
ENDCHAR
STARTCHAR 00D3
ENCODING 211
SWIDTH 750 0
DWIDTH 12 0
BBX 11 16 1 0
BITMAP
0180
0300
0600
0000
1F00
71C0
60C0
C060
C060
C060
C060
C060
C060
60C0
71C0
1F00
ENDCHAR
STARTCHAR 00D4
ENCODING 212
SWIDTH 750 0
DWIDTH 12 0
BBX 11 16 1 0
BITMAP
0E00
0A00
1100
0000
1F00
71C0
60C0
C060
C060
C060
C060
C060
C060
60C0
71C0
1F00
ENDCHAR
STARTCHAR 00D5
ENCODING 213
SWIDTH 750 0
DWIDTH 12 0
BBX 11 15 1 0
BITMAP
1D00
1700
0000
1F00
71C0
60C0
C060
C060
C060
C060
C060
C060
60C0
71C0
1F00
ENDCHAR
STARTCHAR 00D6
ENCODING 214
SWIDTH 750 0
DWIDTH 12 0
BBX 11 14 1 0
BITMAP
1B00
0000
1F00
71C0
60C0
C060
C060
C060
C060
C060
C060
60C0
71C0
1F00
ENDCHAR
STARTCHAR 00D7
ENCODING 215
SWIDTH 812 0
DWIDTH 13 0
BBX 9 9 2 0
BITMAP
8080
4100
2200
1400
0800
1400
2200
4100
8080
ENDCHAR
STARTCHAR 00D8
ENCODING 216
SWIDTH 750 0
DWIDTH 12 0
BBX 11 12 1 0
BITMAP
1F60
30C0
60C0
C160
C260
C660
CC60
C860
D060
60C0
6180
DF00
ENDCHAR
STARTCHAR 00D9
ENCODING 217
SWIDTH 687 0
DWIDTH 11 0
BBX 8 16 1 0
BITMAP
60
30
18
00
C3
C3
C3
C3
C3
C3
C3
C3
C3
C3
66
3C
ENDCHAR
STARTCHAR 00DA
ENCODING 218
SWIDTH 687 0
DWIDTH 11 0
BBX 8 16 1 0
BITMAP
06
0C
18
00
C3
C3
C3
C3
C3
C3
C3
C3
C3
C3
66
3C
ENDCHAR
STARTCHAR 00DB
ENCODING 219
SWIDTH 687 0
DWIDTH 11 0
BBX 8 16 1 0
BITMAP
38
28
44
00
C3
C3
C3
C3
C3
C3
C3
C3
C3
C3
66
3C
ENDCHAR
STARTCHAR 00DC
ENCODING 220
SWIDTH 687 0
DWIDTH 11 0
BBX 8 14 1 0
BITMAP
36
00
C3
C3
C3
C3
C3
C3
C3
C3
C3
C3
66
3C
ENDCHAR
STARTCHAR 00DD
ENCODING 221
SWIDTH 625 0
DWIDTH 10 0
BBX 10 16 0 0
BITMAP
0300
0600
0C00
0000
C040
6080
6080
3100
1A00
1A00
0C00
0C00
0C00
0C00
0C00
0C00
ENDCHAR
STARTCHAR 00DE
ENCODING 222
SWIDTH 562 0
DWIDTH 9 0
BBX 7 12 2 0
BITMAP
C0
C0
FC
C6
C6
C6
C6
C6
CC
F8
C0
C0
ENDCHAR
STARTCHAR 00DF
ENCODING 223
SWIDTH 625 0
DWIDTH 10 0
BBX 8 12 2 0
BITMAP
78
CC
CC
CC
D8
D8
DC
CE
C7
C3
C3
DE
ENDCHAR
STARTCHAR 00E0
ENCODING 224
SWIDTH 562 0
DWIDTH 9 0
BBX 8 14 1 0
BITMAP
30
18
0C
00
00
3C
46
06
06
3E
E6
C6
C6
7B
ENDCHAR
STARTCHAR 00E1
ENCODING 225
SWIDTH 562 0
DWIDTH 9 0
BBX 8 14 1 0
BITMAP
0C
18
30
00
00
3C
46
06
06
3E
E6
C6
C6
7B
ENDCHAR
STARTCHAR 00E2
ENCODING 226
SWIDTH 562 0
DWIDTH 9 0
BBX 8 14 1 0
BITMAP
38
28
44
00
00
3C
46
06
06
3E
E6
C6
C6
7B
ENDCHAR
STARTCHAR 00E3
ENCODING 227
SWIDTH 562 0
DWIDTH 9 0
BBX 8 13 1 0
BITMAP
74
5C
00
00
3C
46
06
06
3E
E6
C6
C6
7B
ENDCHAR
STARTCHAR 00E4
ENCODING 228
SWIDTH 562 0
DWIDTH 9 0
BBX 8 12 1 0
BITMAP
6C
00
00
3C
46
06
06
3E
E6
C6
C6
7B
ENDCHAR
STARTCHAR 00E5
ENCODING 229
SWIDTH 562 0
DWIDTH 9 0
BBX 8 15 1 0
BITMAP
18
24
24
18
00
00
3C
46
06
06
3E
E6
C6
C6
7B
ENDCHAR
STARTCHAR 00E6
ENCODING 230
SWIDTH 875 0
DWIDTH 14 0
BBX 12 9 1 0
BITMAP
3DC0
4760
0630
0630
3FF0
E600
C600
C710
79E0
ENDCHAR
STARTCHAR 00E7
ENCODING 231
SWIDTH 500 0
DWIDTH 8 0
BBX 7 12 1 -3
BITMAP
3E
60
C0
C0
C0
C0
C0
60
3E
0C
04
1C
ENDCHAR
STARTCHAR 00E8
ENCODING 232
SWIDTH 625 0
DWIDTH 10 0
BBX 8 14 1 0
BITMAP
60
30
18
00
00
3C
66
C3
C3
FF
C0
C0
60
3F
ENDCHAR
STARTCHAR 00E9
ENCODING 233
SWIDTH 625 0
DWIDTH 10 0
BBX 8 14 1 0
BITMAP
06
0C
18
00
00
3C
66
C3
C3
FF
C0
C0
60
3F
ENDCHAR
STARTCHAR 00EA
ENCODING 234
SWIDTH 625 0
DWIDTH 10 0
BBX 8 14 1 0
BITMAP
1C
14
22
00
00
3C
66
C3
C3
FF
C0
C0
60
3F
ENDCHAR
STARTCHAR 00EB
ENCODING 235
SWIDTH 625 0
DWIDTH 10 0
BBX 8 12 1 0
BITMAP
6C
00
00
3C
66
C3
C3
FF
C0
C0
60
3F
ENDCHAR
STARTCHAR 00EC
ENCODING 236
SWIDTH 312 0
DWIDTH 5 0
BBX 4 14 0 0
BITMAP
C0
60
30
00
00
30
30
30
30
30
30
30
30
30
ENDCHAR
STARTCHAR 00ED
ENCODING 237
SWIDTH 312 0
DWIDTH 5 0
BBX 4 14 2 0
BITMAP
30
60
C0
00
00
C0
C0
C0
C0
C0
C0
C0
C0
C0
ENDCHAR
STARTCHAR 00EE
ENCODING 238
SWIDTH 312 0
DWIDTH 5 0
BBX 5 14 0 0
BITMAP
70
50
88
00
00
30
30
30
30
30
30
30
30
30
ENDCHAR
STARTCHAR 00EF
ENCODING 239
SWIDTH 312 0
DWIDTH 5 0
BBX 5 12 1 0
BITMAP
D8
00
00
60
60
60
60
60
60
60
60
60
ENDCHAR
STARTCHAR 00F0
ENCODING 240
SWIDTH 625 0
DWIDTH 10 0
BBX 8 13 1 0
BITMAP
08
F0
38
4C
3E
66
C3
C3
C3
C3
C3
66
3C
ENDCHAR
STARTCHAR 00F1
ENCODING 241
SWIDTH 625 0
DWIDTH 10 0
BBX 8 13 1 0
BITMAP
3A
2E
00
00
DE
E3
C3
C3
C3
C3
C3
C3
C3
ENDCHAR
STARTCHAR 00F2
ENCODING 242
SWIDTH 625 0
DWIDTH 10 0
BBX 8 14 1 0
BITMAP
60
30
18
00
00
3C
66
C3
C3
C3
C3
C3
66
3C
ENDCHAR
STARTCHAR 00F3
ENCODING 243
SWIDTH 625 0
DWIDTH 10 0
BBX 8 14 1 0
BITMAP
06
0C
18
00
00
3C
66
C3
C3
C3
C3
C3
66
3C
ENDCHAR
STARTCHAR 00F4
ENCODING 244
SWIDTH 625 0
DWIDTH 10 0
BBX 8 14 1 0
BITMAP
1C
14
22
00
00
3C
66
C3
C3
C3
C3
C3
66
3C
ENDCHAR
STARTCHAR 00F5
ENCODING 245
SWIDTH 625 0
DWIDTH 10 0
BBX 8 13 1 0
BITMAP
3A
2E
00
00
3C
66
C3
C3
C3
C3
C3
66
3C
ENDCHAR
STARTCHAR 00F6
ENCODING 246
SWIDTH 625 0
DWIDTH 10 0
BBX 8 12 1 0
BITMAP
6C
00
00
3C
66
C3
C3
C3
C3
C3
66
3C
ENDCHAR
STARTCHAR 00F7
ENCODING 247
SWIDTH 812 0
DWIDTH 13 0
BBX 10 7 2 1
BITMAP
0C00
0000
0000
FFC0
0000
0000
0C00
ENDCHAR
STARTCHAR 00F8
ENCODING 248
SWIDTH 625 0
DWIDTH 10 0
BBX 9 9 1 0
BITMAP
3E80
6300
C780
C580
C980
D180
F180
6300
BE00
ENDCHAR
STARTCHAR 00F9
ENCODING 249
SWIDTH 625 0
DWIDTH 10 0
BBX 8 14 1 0
BITMAP
60
30
18
00
00
C3
C3
C3
C3
C3
C3
C3
C7
7B
ENDCHAR
STARTCHAR 00FA
ENCODING 250
SWIDTH 625 0
DWIDTH 10 0
BBX 8 14 1 0
BITMAP
06
0C
18
00
00
C3
C3
C3
C3
C3
C3
C3
C7
7B
ENDCHAR
STARTCHAR 00FB
ENCODING 251
SWIDTH 625 0
DWIDTH 10 0
BBX 8 14 1 0
BITMAP
1C
14
22
00
00
C3
C3
C3
C3
C3
C3
C3
C7
7B
ENDCHAR
STARTCHAR 00FC
ENCODING 252
SWIDTH 625 0
DWIDTH 10 0
BBX 8 12 1 0
BITMAP
6C
00
00
C3
C3
C3
C3
C3
C3
C3
C7
7B
ENDCHAR
STARTCHAR 00FD
ENCODING 253
SWIDTH 500 0
DWIDTH 8 0
BBX 8 17 0 -3
BITMAP
06
0C
18
00
00
C1
62
62
62
34
34
34
18
18
10
10
30
ENDCHAR
STARTCHAR 00FE
ENCODING 254
SWIDTH 625 0
DWIDTH 10 0
BBX 8 15 2 -3
BITMAP
C0
C0
C0
DC
E6
C3
C3
C3
C3
C3
E6
DC
C0
C0
C0
ENDCHAR
STARTCHAR 00FF
ENCODING 255
SWIDTH 500 0
DWIDTH 8 0
BBX 8 15 0 -3
BITMAP
6C
00
00
C1
62
62
62
34
34
34
18
18
10
10
30
ENDCHAR
STARTCHAR 0100
ENCODING 256
SWIDTH 687 0
DWIDTH 11 0
BBX 11 14 0 0
BITMAP
1F00
0000
0400
0C00
0E00
1600
1300
1300
2180
3F80
4180
40C0
40C0
8060
ENDCHAR
STARTCHAR 0101
ENCODING 257
SWIDTH 562 0
DWIDTH 9 0
BBX 8 12 1 0
BITMAP
7C
00
00
3C
46
06
06
3E
E6
C6
C6
7B
ENDCHAR
STARTCHAR 0102
ENCODING 258
SWIDTH 687 0
DWIDTH 11 0
BBX 11 15 0 0
BITMAP
1100
0E00
0000
0400
0C00
0E00
1600
1300
1300
2180
3F80
4180
40C0
40C0
8060
ENDCHAR
STARTCHAR 0103
ENCODING 259
SWIDTH 562 0
DWIDTH 9 0
BBX 8 13 1 0
BITMAP
22
1C
00
00
3C
46
06
06
3E
E6
C6
C6
7B
ENDCHAR
STARTCHAR 0104
ENCODING 260
SWIDTH 687 0
DWIDTH 11 0
BBX 11 15 0 -4
BITMAP
0400
0C00
0E00
1600
1300
1300
2180
3F80
4180
40C0
40C0
8060
0000
0100
00C0
ENDCHAR
STARTCHAR 0105
ENCODING 261
SWIDTH 562 0
DWIDTH 9 0
BBX 8 12 1 -4
BITMAP
3C
46
06
06
3E
E6
C6
C6
7B
00
04
03
ENDCHAR
STARTCHAR 0106
ENCODING 262
SWIDTH 687 0
DWIDTH 11 0
BBX 9 16 1 0
BITMAP
0180
0300
0600
0000
1F00
3080
6000
C000
C000
C000
C000
C000
C000
6000
7080
1F00
ENDCHAR
STARTCHAR 0107
ENCODING 263
SWIDTH 500 0
DWIDTH 8 0
BBX 7 14 1 0
BITMAP
06
0C
18
00
00
3E
60
C0
C0
C0
C0
C0
60
3E
ENDCHAR
STARTCHAR 0108
ENCODING 264
SWIDTH 687 0
DWIDTH 11 0
BBX 9 16 1 0
BITMAP
0E00
0A00
1100
0000
1F00
3080
6000
C000
C000
C000
C000
C000
C000
6000
7080
1F00
ENDCHAR
STARTCHAR 0109
ENCODING 265
SWIDTH 500 0
DWIDTH 8 0
BBX 7 14 1 0
BITMAP
1C
14
22
00
00
3E
60
C0
C0
C0
C0
C0
60
3E
ENDCHAR
STARTCHAR 010A
ENCODING 266
SWIDTH 687 0
DWIDTH 11 0
BBX 9 14 1 0
BITMAP
0C00
0000
1F00
3080
6000
C000
C000
C000
C000
C000
C000
6000
7080
1F00
ENDCHAR
STARTCHAR 010B
ENCODING 267
SWIDTH 500 0
DWIDTH 8 0
BBX 7 12 1 0
BITMAP
0C
00
00
3E
60
C0
C0
C0
C0
C0
60
3E
ENDCHAR
STARTCHAR 010C
ENCODING 268
SWIDTH 687 0
DWIDTH 11 0
BBX 9 16 1 0
BITMAP
1100
0A00
0E00
0000
1F00
3080
6000
C000
C000
C000
C000
C000
C000
6000
7080
1F00
ENDCHAR
STARTCHAR 010D
ENCODING 269
SWIDTH 500 0
DWIDTH 8 0
BBX 7 14 1 0
BITMAP
22
14
1C
00
00
3E
60
C0
C0
C0
C0
C0
60
3E
ENDCHAR
STARTCHAR 010E
ENCODING 270
SWIDTH 750 0
DWIDTH 12 0
BBX 10 16 2 0
BITMAP
2200
1400
1C00
0000
FE00
C380
C180
C0C0
C0C0
C0C0
C0C0
C0C0
C0C0
C180
C380
FE00
ENDCHAR
STARTCHAR 010F
ENCODING 271
SWIDTH 750 0
DWIDTH 12 0
BBX 11 12 1 0
BITMAP
0360
0320
0320
3B40
6700
C300
C300
C300
C300
C300
6700
3B00
ENDCHAR
STARTCHAR 0110
ENCODING 272
SWIDTH 750 0
DWIDTH 12 0
BBX 12 12 0 0
BITMAP
3F80
30C0
3060
3030
3030
FC30
3030
3030
3030
3060
30C0
3F80
ENDCHAR
STARTCHAR 0111
ENCODING 273
SWIDTH 625 0
DWIDTH 10 0
BBX 9 12 1 0
BITMAP
0300
0F80
0300
3B00
6700
C300
C300
C300
C300
C300
6700
3B00
ENDCHAR
STARTCHAR 0112
ENCODING 274
SWIDTH 562 0
DWIDTH 9 0
BBX 7 14 2 0
BITMAP
7C
00
FE
C0
C0
C0
C0
FC
C0
C0
C0
C0
C0
FE
ENDCHAR
STARTCHAR 0113
ENCODING 275
SWIDTH 625 0
DWIDTH 10 0
BBX 8 12 1 0
BITMAP
3E
00
00
3C
66
C3
C3
FF
C0
C0
60
3F
ENDCHAR
STARTCHAR 0114
ENCODING 276
SWIDTH 562 0
DWIDTH 9 0
BBX 7 15 2 0
BITMAP
44
38
00
FE
C0
C0
C0
C0
FC
C0
C0
C0
C0
C0
FE
ENDCHAR
STARTCHAR 0115
ENCODING 277
SWIDTH 625 0
DWIDTH 10 0
BBX 8 13 1 0
BITMAP
22
1C
00
00
3C
66
C3
C3
FF
C0
C0
60
3F
ENDCHAR
STARTCHAR 0116
ENCODING 278
SWIDTH 562 0
DWIDTH 9 0
BBX 7 14 2 0
BITMAP
30
00
FE
C0
C0
C0
C0
FC
C0
C0
C0
C0
C0
FE
ENDCHAR
STARTCHAR 0117
ENCODING 279
SWIDTH 625 0
DWIDTH 10 0
BBX 8 12 1 0
BITMAP
18
00
00
3C
66
C3
C3
FF
C0
C0
60
3F
ENDCHAR
STARTCHAR 0118
ENCODING 280
SWIDTH 562 0
DWIDTH 9 0
BBX 7 15 2 -4
BITMAP
FE
C0
C0
C0
C0
FC
C0
C0
C0
C0
C0
FE
00
08
06
ENDCHAR
STARTCHAR 0119
ENCODING 281
SWIDTH 625 0
DWIDTH 10 0
BBX 8 12 1 -4
BITMAP
3C
66
C3
C3
FF
C0
C0
60
3F
00
08
06
ENDCHAR
STARTCHAR 011A
ENCODING 282
SWIDTH 562 0
DWIDTH 9 0
BBX 7 16 2 0
BITMAP
44
28
38
00
FE
C0
C0
C0
C0
FC
C0
C0
C0
C0
C0
FE
ENDCHAR
STARTCHAR 011B
ENCODING 283
SWIDTH 625 0
DWIDTH 10 0
BBX 8 14 1 0
BITMAP
22
14
1C
00
00
3C
66
C3
C3
FF
C0
C0
60
3F
ENDCHAR
STARTCHAR 011C
ENCODING 284
SWIDTH 750 0
DWIDTH 12 0
BBX 10 16 1 0
BITMAP
0700
0500
0880
0000
1F80
7040
6000
C000
C000
C000
C000
C0C0
C0C0
60C0
70C0
1FC0
ENDCHAR
STARTCHAR 011D
ENCODING 285
SWIDTH 625 0
DWIDTH 10 0
BBX 8 17 1 -3
BITMAP
38
28
44
00
00
3B
67
C3
C3
C3
C3
C3
67
3B
03
06
7C
ENDCHAR
STARTCHAR 011E
ENCODING 286
SWIDTH 750 0
DWIDTH 12 0
BBX 10 15 1 0
BITMAP
1100
0E00
0000
1F80
7040
6000
C000
C000
C000
C000
C0C0
C0C0
60C0
70C0
1FC0
ENDCHAR
STARTCHAR 011F
ENCODING 287
SWIDTH 625 0
DWIDTH 10 0
BBX 8 16 1 -3
BITMAP
22
1C
00
00
3B
67
C3
C3
C3
C3
C3
67
3B
03
06
7C
ENDCHAR
STARTCHAR 0120
ENCODING 288
SWIDTH 750 0
DWIDTH 12 0
BBX 10 14 1 0
BITMAP
0600
0000
1F80
7040
6000
C000
C000
C000
C000
C0C0
C0C0
60C0
70C0
1FC0
ENDCHAR
STARTCHAR 0121
ENCODING 289
SWIDTH 625 0
DWIDTH 10 0
BBX 8 15 1 -3
BITMAP
18
00
00
3B
67
C3
C3
C3
C3
C3
67
3B
03
06
7C
ENDCHAR
STARTCHAR 0122
ENCODING 290
SWIDTH 750 0
DWIDTH 12 0
BBX 10 15 1 -3
BITMAP
1F80
7040
6000
C000
C000
C000
C000
C0C0
C0C0
60C0
70C0
1FC0
0300
0100
0700
ENDCHAR
STARTCHAR 0123
ENCODING 291
SWIDTH 625 0
DWIDTH 10 0
BBX 8 18 1 -3
BITMAP
08
10
10
18
00
00
3B
67
C3
C3
C3
C3
C3
67
3B
03
06
7C
ENDCHAR
STARTCHAR 0124
ENCODING 292
SWIDTH 750 0
DWIDTH 12 0
BBX 9 16 2 0
BITMAP
1C00
1400
2200
0000
C180
C180
C180
C180
C180
FF80
C180
C180
C180
C180
C180
C180
ENDCHAR
STARTCHAR 0125
ENCODING 293
SWIDTH 625 0
DWIDTH 10 0
BBX 9 16 0 0
BITMAP
7000
5000
8800
0000
3000
3000
3000
3700
3980
3180
3180
3180
3180
3180
3180
3180
ENDCHAR
STARTCHAR 0126
ENCODING 294
SWIDTH 812 0
DWIDTH 13 0
BBX 13 12 0 0
BITMAP
3060
3060
FFF8
3060
3060
3FE0
3060
3060
3060
3060
3060
3060
ENDCHAR
STARTCHAR 0127
ENCODING 295
SWIDTH 625 0
DWIDTH 10 0
BBX 9 12 0 0
BITMAP
3000
FC00
3000
3700
3980
3180
3180
3180
3180
3180
3180
3180
ENDCHAR
STARTCHAR 0128
ENCODING 296
SWIDTH 312 0
DWIDTH 5 0
BBX 5 15 0 0
BITMAP
E8
B8
00
30
30
30
30
30
30
30
30
30
30
30
30
ENDCHAR
STARTCHAR 0129
ENCODING 297
SWIDTH 312 0
DWIDTH 5 0
BBX 5 13 0 0
BITMAP
E8
B8
00
00
30
30
30
30
30
30
30
30
30
ENDCHAR
STARTCHAR 012A
ENCODING 298
SWIDTH 312 0
DWIDTH 5 0
BBX 5 14 0 0
BITMAP
F8
00
30
30
30
30
30
30
30
30
30
30
30
30
ENDCHAR
STARTCHAR 012B
ENCODING 299
SWIDTH 312 0
DWIDTH 5 0
BBX 5 12 0 0
BITMAP
F8
00
00
30
30
30
30
30
30
30
30
30
ENDCHAR
STARTCHAR 012C
ENCODING 300
SWIDTH 312 0
DWIDTH 5 0
BBX 5 15 0 0
BITMAP
88
70
00
30
30
30
30
30
30
30
30
30
30
30
30
ENDCHAR
STARTCHAR 012D
ENCODING 301
SWIDTH 312 0
DWIDTH 5 0
BBX 5 13 0 0
BITMAP
88
70
00
00
30
30
30
30
30
30
30
30
30
ENDCHAR
STARTCHAR 012E
ENCODING 302
SWIDTH 312 0
DWIDTH 5 0
BBX 3 15 2 -4
BITMAP
C0
C0
C0
C0
C0
C0
C0
C0
C0
C0
C0
C0
00
80
60
ENDCHAR
STARTCHAR 012F
ENCODING 303
SWIDTH 312 0
DWIDTH 5 0
BBX 3 15 2 -4
BITMAP
C0
00
00
C0
C0
C0
C0
C0
C0
C0
C0
C0
00
80
60
ENDCHAR
STARTCHAR 0130
ENCODING 304
SWIDTH 312 0
DWIDTH 5 0
BBX 2 14 2 0
BITMAP
C0
00
C0
C0
C0
C0
C0
C0
C0
C0
C0
C0
C0
C0
ENDCHAR
STARTCHAR 0131
ENCODING 305
SWIDTH 312 0
DWIDTH 5 0
BBX 2 9 2 0
BITMAP
C0
C0
C0
C0
C0
C0
C0
C0
C0
ENDCHAR
STARTCHAR 0132
ENCODING 306
SWIDTH 625 0
DWIDTH 10 0
BBX 7 14 2 -2
BITMAP
C6
C6
C6
C6
C6
C6
C6
C6
C6
C6
C6
C6
06
3C
ENDCHAR
STARTCHAR 0133
ENCODING 307
SWIDTH 562 0
DWIDTH 9 0
BBX 6 15 2 -3
BITMAP
CC
00
00
CC
CC
CC
CC
CC
CC
CC
CC
CC
0C
0C
78
ENDCHAR
STARTCHAR 0134
ENCODING 308
SWIDTH 312 0
DWIDTH 5 0
BBX 7 18 -1 -2
BITMAP
1C
14
22
00
18
18
18
18
18
18
18
18
18
18
18
18
18
F0
ENDCHAR
STARTCHAR 0135
ENCODING 309
SWIDTH 312 0
DWIDTH 5 0
BBX 6 16 -1 -3
BITMAP
38
28
44
00
18
18
18
18
18
18
18
18
18
18
18
F0
ENDCHAR
STARTCHAR 0136
ENCODING 310
SWIDTH 625 0
DWIDTH 10 0
BBX 9 15 2 -3
BITMAP
C100
C200
C400
C800
D000
E000
F000
D800
CC00
C600
C300
C180
0C00
0400
1C00
ENDCHAR
STARTCHAR 0137
ENCODING 311
SWIDTH 562 0
DWIDTH 9 0
BBX 8 15 2 -3
BITMAP
C0
C0
C0
C2
C4
C8
D0
F0
D8
CC
C6
C3
0C
04
1C
ENDCHAR
STARTCHAR 0138
ENCODING 312
SWIDTH 562 0
DWIDTH 9 0
BBX 8 9 2 0
BITMAP
C3
C6
CC
DC
F8
D8
CC
C6
C3
ENDCHAR
STARTCHAR 0139
ENCODING 313
SWIDTH 562 0
DWIDTH 9 0
BBX 8 16 1 0
BITMAP
30
60
C0
00
60
60
60
60
60
60
60
60
60
60
60
7F
ENDCHAR
STARTCHAR 013A
ENCODING 314
SWIDTH 312 0
DWIDTH 5 0
BBX 4 16 1 0
BITMAP
30
60
C0
00
60
60
60
60
60
60
60
60
60
60
60
60
ENDCHAR
STARTCHAR 013B
ENCODING 315
SWIDTH 562 0
DWIDTH 9 0
BBX 7 15 2 -3
BITMAP
C0
C0
C0
C0
C0
C0
C0
C0
C0
C0
C0
FE
18
08
38
ENDCHAR
STARTCHAR 013C
ENCODING 316
SWIDTH 312 0
DWIDTH 5 0
BBX 3 15 2 -3
BITMAP
C0
C0
C0
C0
C0
C0
C0
C0
C0
C0
C0
C0
60
20
E0
ENDCHAR
STARTCHAR 013D
ENCODING 317
SWIDTH 562 0
DWIDTH 9 0
BBX 7 12 2 0
BITMAP
D8
C8
C8
D0
C0
C0
C0
C0
C0
C0
C0
FE
ENDCHAR
STARTCHAR 013E
ENCODING 318
SWIDTH 312 0
DWIDTH 5 0
BBX 5 12 2 0
BITMAP
D8
C8
C8
D0
C0
C0
C0
C0
C0
C0
C0
C0
ENDCHAR
STARTCHAR 013F
ENCODING 319
SWIDTH 562 0
DWIDTH 9 0
BBX 7 12 2 0
BITMAP
C0
C0
C0
C0
C0
C0
D8
C0
C0
C0
C0
FE
ENDCHAR
STARTCHAR 0140
ENCODING 320
SWIDTH 312 0
DWIDTH 5 0
BBX 5 12 2 0
BITMAP
C0
C0
C0
C0
C0
C0
D8
C0
C0
C0
C0
C0
ENDCHAR
STARTCHAR 0141
ENCODING 321
SWIDTH 562 0
DWIDTH 9 0
BBX 9 12 0 0
BITMAP
3000
3000
3000
3000
3800
3000
7000
B000
3000
3000
3000
3F80
ENDCHAR
STARTCHAR 0142
ENCODING 322
SWIDTH 312 0
DWIDTH 5 0
BBX 6 12 0 0
BITMAP
30
30
30
30
34
38
70
B0
30
30
30
30
ENDCHAR
STARTCHAR 0143
ENCODING 323
SWIDTH 750 0
DWIDTH 12 0
BBX 9 16 2 0
BITMAP
0C00
1800
3000
0000
C080
E080
E080
B080
B880
9880
8C80
8E80
8680
8380
8380
8180
ENDCHAR
STARTCHAR 0144
ENCODING 324
SWIDTH 625 0
DWIDTH 10 0
BBX 8 14 1 0
BITMAP
0C
18
30
00
00
DE
E3
C3
C3
C3
C3
C3
C3
C3
ENDCHAR
STARTCHAR 0145
ENCODING 325
SWIDTH 750 0
DWIDTH 12 0
BBX 9 15 2 -3
BITMAP
C080
E080
E080
B080
B880
9880
8C80
8E80
8680
8380
8380
8180
0C00
0400
1C00
ENDCHAR
STARTCHAR 0146
ENCODING 326
SWIDTH 625 0
DWIDTH 10 0
BBX 8 12 1 -3
BITMAP
DE
E3
C3
C3
C3
C3
C3
C3
C3
18
08
38
ENDCHAR
STARTCHAR 0147
ENCODING 327
SWIDTH 750 0
DWIDTH 12 0
BBX 9 16 2 0
BITMAP
2200
1400
1C00
0000
C080
E080
E080
B080
B880
9880
8C80
8E80
8680
8380
8380
8180
ENDCHAR
STARTCHAR 0148
ENCODING 328
SWIDTH 625 0
DWIDTH 10 0
BBX 8 14 1 0
BITMAP
22
14
1C
00
00
DE
E3
C3
C3
C3
C3
C3
C3
C3
ENDCHAR
STARTCHAR 0149
ENCODING 329
SWIDTH 625 0
DWIDTH 10 0
BBX 11 12 0 0
BITMAP
C000
4000
4000
9BC0
1C60
1860
1860
1860
1860
1860
1860
1860
ENDCHAR
STARTCHAR 014A
ENCODING 330
SWIDTH 750 0
DWIDTH 12 0
BBX 9 15 2 -3
BITMAP
C080
E080
E080
B080
9880
9C80
8C80
8680
8780
8380
8180
8180
0080
0080
0700
ENDCHAR
STARTCHAR 014B
ENCODING 331
SWIDTH 625 0
DWIDTH 10 0
BBX 7 12 2 -3
BITMAP
DC
E6
C6
C6
C6
C6
C6
C6
C6
06
06
1C
ENDCHAR
STARTCHAR 014C
ENCODING 332
SWIDTH 750 0
DWIDTH 12 0
BBX 11 14 1 0
BITMAP
1F00
0000
1F00
71C0
60C0
C060
C060
C060
C060
C060
C060
60C0
71C0
1F00
ENDCHAR
STARTCHAR 014D
ENCODING 333
SWIDTH 625 0
DWIDTH 10 0
BBX 8 12 1 0
BITMAP
3E
00
00
3C
66
C3
C3
C3
C3
C3
66
3C
ENDCHAR
STARTCHAR 014E
ENCODING 334
SWIDTH 750 0
DWIDTH 12 0
BBX 11 15 1 0
BITMAP
1100
0E00
0000
1F00
71C0
60C0
C060
C060
C060
C060
C060
C060
60C0
71C0
1F00
ENDCHAR
STARTCHAR 014F
ENCODING 335
SWIDTH 625 0
DWIDTH 10 0
BBX 8 13 1 0
BITMAP
22
1C
00
00
3C
66
C3
C3
C3
C3
C3
66
3C
ENDCHAR
STARTCHAR 0150
ENCODING 336
SWIDTH 750 0
DWIDTH 12 0
BBX 11 16 1 0
BITMAP
0D80
0900
1200
0000
1F00
71C0
60C0
C060
C060
C060
C060
C060
C060
60C0
71C0
1F00
ENDCHAR
STARTCHAR 0151
ENCODING 337
SWIDTH 625 0
DWIDTH 10 0
BBX 8 14 1 0
BITMAP
1B
12
24
00
00
3C
66
C3
C3
C3
C3
C3
66
3C
ENDCHAR
STARTCHAR 0152
ENCODING 338
SWIDTH 1000 0
DWIDTH 16 0
BBX 15 12 1 0
BITMAP
1EFE
71C0
60C0
C0C0
C0C0
C0FC
C0C0
C0C0
C0C0
60C0
71C0
1EFE
ENDCHAR
STARTCHAR 0153
ENCODING 339
SWIDTH 937 0
DWIDTH 15 0
BBX 13 9 1 0
BITMAP
3CE0
67B0
C318
C318
C3F8
C300
C300
6788
3CF0
ENDCHAR
STARTCHAR 0154
ENCODING 340
SWIDTH 625 0
DWIDTH 10 0
BBX 9 16 2 0
BITMAP
0600
0C00
1800
0000
F800
CC00
C600
C600
C600
CC00
F800
D800
CC00
C600
C300
C380
ENDCHAR
STARTCHAR 0155
ENCODING 341
SWIDTH 437 0
DWIDTH 7 0
BBX 5 14 2 0
BITMAP
30
60
C0
00
00
D8
E0
C0
C0
C0
C0
C0
C0
C0
ENDCHAR
STARTCHAR 0156
ENCODING 342
SWIDTH 625 0
DWIDTH 10 0
BBX 9 15 2 -3
BITMAP
F800
CC00
C600
C600
C600
CC00
F800
D800
CC00
C600
C300
C380
1800
0800
3800
ENDCHAR
STARTCHAR 0157
ENCODING 343
SWIDTH 437 0
DWIDTH 7 0
BBX 5 12 2 -3
BITMAP
D8
E0
C0
C0
C0
C0
C0
C0
C0
60
20
E0
ENDCHAR
STARTCHAR 0158
ENCODING 344
SWIDTH 625 0
DWIDTH 10 0
BBX 9 16 2 0
BITMAP
4400
2800
3800
0000
F800
CC00
C600
C600
C600
CC00
F800
D800
CC00
C600
C300
C380
ENDCHAR
STARTCHAR 0159
ENCODING 345
SWIDTH 437 0
DWIDTH 7 0
BBX 5 14 2 0
BITMAP
88
50
70
00
00
D8
E0
C0
C0
C0
C0
C0
C0
C0
ENDCHAR
STARTCHAR 015A
ENCODING 346
SWIDTH 562 0
DWIDTH 9 0
BBX 7 16 1 0
BITMAP
06
0C
18
00
3C
60
C0
C0
E0
78
1C
0E
06
06
8C
78
ENDCHAR
STARTCHAR 015B
ENCODING 347
SWIDTH 500 0
DWIDTH 8 0
BBX 6 14 1 0
BITMAP
18
30
60
00
00
78
C0
C0
E0
78
1C
0C
8C
78
ENDCHAR
STARTCHAR 015C
ENCODING 348
SWIDTH 562 0
DWIDTH 9 0
BBX 7 16 1 0
BITMAP
38
28
44
00
3C
60
C0
C0
E0
78
1C
0E
06
06
8C
78
ENDCHAR
STARTCHAR 015D
ENCODING 349
SWIDTH 500 0
DWIDTH 8 0
BBX 6 14 1 0
BITMAP
70
50
88
00
00
78
C0
C0
E0
78
1C
0C
8C
78
ENDCHAR
STARTCHAR 015E
ENCODING 350
SWIDTH 562 0
DWIDTH 9 0
BBX 7 15 1 -3
BITMAP
3C
60
C0
C0
E0
78
1C
0E
06
06
8C
78
18
08
38
ENDCHAR
STARTCHAR 015F
ENCODING 351
SWIDTH 500 0
DWIDTH 8 0
BBX 6 12 1 -3
BITMAP
78
C0
C0
E0
78
1C
0C
8C
78
30
10
70
ENDCHAR
STARTCHAR 0160
ENCODING 352
SWIDTH 562 0
DWIDTH 9 0
BBX 7 16 1 0
BITMAP
44
28
38
00
3C
60
C0
C0
E0
78
1C
0E
06
06
8C
78
ENDCHAR
STARTCHAR 0161
ENCODING 353
SWIDTH 500 0
DWIDTH 8 0
BBX 6 14 1 0
BITMAP
88
50
70
00
00
78
C0
C0
E0
78
1C
0C
8C
78
ENDCHAR
STARTCHAR 0162
ENCODING 354
SWIDTH 625 0
DWIDTH 10 0
BBX 10 15 0 -3
BITMAP
FFC0
0C00
0C00
0C00
0C00
0C00
0C00
0C00
0C00
0C00
0C00
0C00
0C00
0400
1C00
ENDCHAR
STARTCHAR 0163
ENCODING 355
SWIDTH 375 0
DWIDTH 6 0
BBX 5 14 0 -3
BITMAP
60
60
F8
60
60
60
60
60
60
60
38
18
08
38
ENDCHAR
STARTCHAR 0164
ENCODING 356
SWIDTH 625 0
DWIDTH 10 0
BBX 10 16 0 0
BITMAP
1100
0A00
0E00
0000
FFC0
0C00
0C00
0C00
0C00
0C00
0C00
0C00
0C00
0C00
0C00
0C00
ENDCHAR
STARTCHAR 0165
ENCODING 357
SWIDTH 562 0
DWIDTH 9 0
BBX 6 14 0 0
BITMAP
0C
04
04
68
60
F8
60
60
60
60
60
60
60
38
ENDCHAR
STARTCHAR 0166
ENCODING 358
SWIDTH 625 0
DWIDTH 10 0
BBX 10 12 0 0
BITMAP
FFC0
0C00
0C00
0C00
0C00
3F00
0C00
0C00
0C00
0C00
0C00
0C00
ENDCHAR
STARTCHAR 0167
ENCODING 359
SWIDTH 375 0
DWIDTH 6 0
BBX 5 11 1 0
BITMAP
60
60
F8
60
60
F8
60
60
60
60
38
ENDCHAR
STARTCHAR 0168
ENCODING 360
SWIDTH 687 0
DWIDTH 11 0
BBX 8 15 1 0
BITMAP
74
5C
00
C3
C3
C3
C3
C3
C3
C3
C3
C3
C3
66
3C
ENDCHAR
STARTCHAR 0169
ENCODING 361
SWIDTH 625 0
DWIDTH 10 0
BBX 8 13 1 0
BITMAP
3A
2E
00
00
C3
C3
C3
C3
C3
C3
C3
C7
7B
ENDCHAR
STARTCHAR 016A
ENCODING 362
SWIDTH 687 0
DWIDTH 11 0
BBX 8 14 1 0
BITMAP
7C
00
C3
C3
C3
C3
C3
C3
C3
C3
C3
C3
66
3C
ENDCHAR
STARTCHAR 016B
ENCODING 363
SWIDTH 625 0
DWIDTH 10 0
BBX 8 12 1 0
BITMAP
3E
00
00
C3
C3
C3
C3
C3
C3
C3
C7
7B
ENDCHAR
STARTCHAR 016C
ENCODING 364
SWIDTH 687 0
DWIDTH 11 0
BBX 8 15 1 0
BITMAP
44
38
00
C3
C3
C3
C3
C3
C3
C3
C3
C3
C3
66
3C
ENDCHAR
STARTCHAR 016D
ENCODING 365
SWIDTH 625 0
DWIDTH 10 0
BBX 8 13 1 0
BITMAP
22
1C
00
00
C3
C3
C3
C3
C3
C3
C3
C7
7B
ENDCHAR
STARTCHAR 016E
ENCODING 366
SWIDTH 687 0
DWIDTH 11 0
BBX 8 17 1 0
BITMAP
18
24
24
18
00
C3
C3
C3
C3
C3
C3
C3
C3
C3
C3
66
3C
ENDCHAR
STARTCHAR 016F
ENCODING 367
SWIDTH 625 0
DWIDTH 10 0
BBX 8 15 1 0
BITMAP
18
24
24
18
00
00
C3
C3
C3
C3
C3
C3
C3
C7
7B
ENDCHAR
STARTCHAR 0170
ENCODING 368
SWIDTH 687 0
DWIDTH 11 0
BBX 8 16 1 0
BITMAP
1B
12
24
00
C3
C3
C3
C3
C3
C3
C3
C3
C3
C3
66
3C
ENDCHAR
STARTCHAR 0171
ENCODING 369
SWIDTH 625 0
DWIDTH 10 0
BBX 8 14 1 0
BITMAP
1B
12
24
00
00
C3
C3
C3
C3
C3
C3
C3
C7
7B
ENDCHAR
STARTCHAR 0172
ENCODING 370
SWIDTH 687 0
DWIDTH 11 0
BBX 8 15 1 -4
BITMAP
C3
C3
C3
C3
C3
C3
C3
C3
C3
C3
66
3C
00
08
06
ENDCHAR
STARTCHAR 0173
ENCODING 371
SWIDTH 625 0
DWIDTH 10 0
BBX 8 12 1 -4
BITMAP
C3
C3
C3
C3
C3
C3
C3
C7
7B
00
04
03
ENDCHAR
STARTCHAR 0174
ENCODING 372
SWIDTH 875 0
DWIDTH 14 0
BBX 14 16 0 0
BITMAP
0380
0280
0440
0000
C304
C304
6388
6588
6588
6588
34D0
34D0
34D0
38D0
1860
1860
ENDCHAR
STARTCHAR 0175
ENCODING 373
SWIDTH 812 0
DWIDTH 13 0
BBX 11 14 1 0
BITMAP
0E00
0A00
1100
0000
0000
C620
C620
6B40
6B40
6B40
6B40
6B40
3180
3180
ENDCHAR
STARTCHAR 0176
ENCODING 374
SWIDTH 625 0
DWIDTH 10 0
BBX 10 16 0 0
BITMAP
0E00
0A00
1100
0000
C040
6080
6080
3100
1A00
1A00
0C00
0C00
0C00
0C00
0C00
0C00
ENDCHAR
STARTCHAR 0177
ENCODING 375
SWIDTH 500 0
DWIDTH 8 0
BBX 8 17 0 -3
BITMAP
1C
14
22
00
00
C1
62
62
62
34
34
34
18
18
10
10
30
ENDCHAR
STARTCHAR 0178
ENCODING 376
SWIDTH 625 0
DWIDTH 10 0
BBX 10 14 0 0
BITMAP
3600
0000
C040
6080
6080
3100
1A00
1A00
0C00
0C00
0C00
0C00
0C00
0C00
ENDCHAR
STARTCHAR 0179
ENCODING 377
SWIDTH 625 0
DWIDTH 10 0
BBX 8 16 1 0
BITMAP
06
0C
18
00
FF
03
06
0C
0C
18
18
30
60
60
C0
FF
ENDCHAR
STARTCHAR 017A
ENCODING 378
SWIDTH 562 0
DWIDTH 9 0
BBX 7 14 1 0
BITMAP
06
0C
18
00
00
FE
06
0C
18
18
30
60
C0
FE
ENDCHAR
STARTCHAR 017B
ENCODING 379
SWIDTH 625 0
DWIDTH 10 0
BBX 8 14 1 0
BITMAP
18
00
FF
03
06
0C
0C
18
18
30
60
60
C0
FF
ENDCHAR
STARTCHAR 017C
ENCODING 380
SWIDTH 562 0
DWIDTH 9 0
BBX 7 12 1 0
BITMAP
18
00
00
FE
06
0C
18
18
30
60
C0
FE
ENDCHAR
STARTCHAR 017D
ENCODING 381
SWIDTH 625 0
DWIDTH 10 0
BBX 8 16 1 0
BITMAP
22
14
1C
00
FF
03
06
0C
0C
18
18
30
60
60
C0
FF
ENDCHAR
STARTCHAR 017E
ENCODING 382
SWIDTH 562 0
DWIDTH 9 0
BBX 7 14 1 0
BITMAP
44
28
38
00
00
FE
06
0C
18
18
30
60
C0
FE
ENDCHAR
STARTCHAR 017F
ENCODING 383
SWIDTH 375 0
DWIDTH 6 0
BBX 6 12 1 0
BITMAP
3C
60
60
E0
60
60
60
60
60
60
60
60
ENDCHAR
STARTCHAR 0180
ENCODING 384
SWIDTH 625 0
DWIDTH 10 0
BBX 10 12 0 0
BITMAP
3000
FC00
3000
3780
3980
30C0
30C0
30C0
30C0
30C0
3980
3700
ENDCHAR
STARTCHAR 0181
ENCODING 385
SWIDTH 687 0
DWIDTH 11 0
BBX 10 12 0 0
BITMAP
7F80
99C0
98C0
98C0
1980
1F00
1980
18C0
18C0
18C0
19C0
1F80
ENDCHAR
STARTCHAR 0182
ENCODING 386
SWIDTH 562 0
DWIDTH 9 0
BBX 7 12 2 0
BITMAP
FC
C0
C0
C0
C0
FC
CE
C6
C6
C6
CC
F8
ENDCHAR
STARTCHAR 0183
ENCODING 387
SWIDTH 625 0
DWIDTH 10 0
BBX 8 12 2 0
BITMAP
FC
C0
C0
DC
E6
C3
C3
C3
C3
C3
E6
DC
ENDCHAR
STARTCHAR 0184
ENCODING 388
SWIDTH 562 0
DWIDTH 9 0
BBX 7 12 2 0
BITMAP
C0
C0
C0
C0
C0
FC
CE
C6
C6
C6
CC
F8
ENDCHAR
STARTCHAR 0185
ENCODING 389
SWIDTH 500 0
DWIDTH 8 0
BBX 6 9 2 0
BITMAP
C0
C0
C0
C0
F8
CC
CC
CC
F8
ENDCHAR
STARTCHAR 0186
ENCODING 390
SWIDTH 687 0
DWIDTH 11 0
BBX 9 12 1 0
BITMAP
7C00
8700
0300
0180
0180
0180
0180
0180
0180
0300
8600
7C00
ENDCHAR
STARTCHAR 0187
ENCODING 391
SWIDTH 687 0
DWIDTH 11 0
BBX 11 15 1 0
BITMAP
0060
0080
0080
1F80
3080
6000
C000
C000
C000
C000
C000
C000
6000
7080
1F00
ENDCHAR
STARTCHAR 0188
ENCODING 392
SWIDTH 562 0
DWIDTH 9 0
BBX 9 12 1 0
BITMAP
0180
0200
0200
3E00
6000
C000
C000
C000
C000
C000
6000
3E00
ENDCHAR
STARTCHAR 0189
ENCODING 393
SWIDTH 750 0
DWIDTH 12 0
BBX 12 12 0 0
BITMAP
3F80
30C0
3060
3030
3030
FC30
3030
3030
3030
3060
30C0
3F80
ENDCHAR
STARTCHAR 018A
ENCODING 394
SWIDTH 875 0
DWIDTH 14 0
BBX 13 12 0 0
BITMAP
7FC0
9870
9830
9818
1818
1818
1818
1818
1818
1830
1860
1FC0
ENDCHAR
STARTCHAR 018B
ENCODING 395
SWIDTH 562 0
DWIDTH 9 0
BBX 7 12 1 0
BITMAP
7E
06
06
06
06
7E
E6
C6
C6
C6
66
3E
ENDCHAR
STARTCHAR 018C
ENCODING 396
SWIDTH 625 0
DWIDTH 10 0
BBX 8 12 1 0
BITMAP
3F
03
03
3B
67
C3
C3
C3
C3
C3
67
3B
ENDCHAR
STARTCHAR 018D
ENCODING 397
SWIDTH 562 0
DWIDTH 9 0
BBX 8 12 1 0
BITMAP
3C
66
C3
C3
C3
C7
6E
38
0E
03
03
3E
ENDCHAR
STARTCHAR 018E
ENCODING 398
SWIDTH 562 0
DWIDTH 9 0
BBX 7 12 0 0
BITMAP
FE
06
06
06
06
06
7E
06
06
06
06
FE
ENDCHAR
STARTCHAR 018F
ENCODING 399
SWIDTH 687 0
DWIDTH 11 0
BBX 9 12 1 0
BITMAP
7C00
8600
0300
0180
0180
0180
FF80
C180
C180
C300
6300
3C00
ENDCHAR
STARTCHAR 0190
ENCODING 400
SWIDTH 500 0
DWIDTH 8 0
BBX 7 12 1 0
BITMAP
7C
E2
C0
C0
60
38
60
C0
C0
C0
62
3C
ENDCHAR
STARTCHAR 0191
ENCODING 401
SWIDTH 562 0
DWIDTH 9 0
BBX 8 15 0 -3
BITMAP
3F
30
30
30
30
3E
30
30
30
30
30
30
30
30
E0
ENDCHAR
STARTCHAR 0192
ENCODING 402
SWIDTH 375 0
DWIDTH 6 0
BBX 8 15 -1 -3
BITMAP
0F
18
18
3E
18
18
18
18
18
18
18
18
18
18
F0
ENDCHAR
STARTCHAR 0193
ENCODING 403
SWIDTH 750 0
DWIDTH 12 0
BBX 11 15 1 0
BITMAP
0060
0080
0080
1F80
3080
6000
C000
C000
C000
C000
C180
C180
6180
7180
1F80
ENDCHAR
STARTCHAR 0194
ENCODING 404
SWIDTH 687 0
DWIDTH 11 0
BBX 10 15 0 -3
BITMAP
C0C0
6180
6180
3180
3100
3B00
1A00
1E00
0E00
0C00
0E00
1E00
1600
1600
0C00
ENDCHAR
STARTCHAR 0195
ENCODING 405
SWIDTH 937 0
DWIDTH 15 0
BBX 12 12 2 0
BITMAP
C000
C000
C000
DC30
E630
C630
C630
C630
C630
C620
C660
C380
ENDCHAR
STARTCHAR 0196
ENCODING 406
SWIDTH 375 0
DWIDTH 6 0
BBX 5 12 1 0
BITMAP
C0
C0
C0
C0
C0
C0
C0
C0
C0
C0
C0
78
ENDCHAR
STARTCHAR 0197
ENCODING 407
SWIDTH 375 0
DWIDTH 6 0
BBX 6 12 0 0
BITMAP
30
30
30
30
30
FC
30
30
30
30
30
30
ENDCHAR
STARTCHAR 0198
ENCODING 408
SWIDTH 687 0
DWIDTH 11 0
BBX 10 12 2 0
BITMAP
C1C0
C600
CC00
CC00
D800
F000
F800
DC00
CE00
C600
C300
C180
ENDCHAR
STARTCHAR 0199
ENCODING 409
SWIDTH 562 0
DWIDTH 9 0
BBX 8 12 2 0
BITMAP
3E
60
C0
C2
C4
C8
D0
F8
DC
CC
C6
C3
ENDCHAR
STARTCHAR 019A
ENCODING 410
SWIDTH 375 0
DWIDTH 6 0
BBX 6 12 0 0
BITMAP
30
30
30
30
30
FC
30
30
30
30
30
30
ENDCHAR
STARTCHAR 019B
ENCODING 411
SWIDTH 625 0
DWIDTH 10 0
BBX 9 12 0 0
BITMAP
7000
1400
1800
6800
1C00
1C00
1C00
3200
3200
6100
6100
C080
ENDCHAR
STARTCHAR 019C
ENCODING 412
SWIDTH 1062 0
DWIDTH 17 0
BBX 14 12 1 0
BITMAP
C30C
C30C
C30C
C30C
C30C
C30C
C30C
C30C
C30C
C70C
C71C
79EC
ENDCHAR
STARTCHAR 019D
ENCODING 413
SWIDTH 750 0
DWIDTH 12 0
BBX 11 15 0 -3
BITMAP
3020
3820
3820
2C20
2E20
2620
2320
23A0
21A0
20E0
20E0
2060
2000
2000
C000
ENDCHAR
STARTCHAR 019E
ENCODING 414
SWIDTH 625 0
DWIDTH 10 0
BBX 7 9 2 0
BITMAP
DC
E6
C6
C6
C6
C6
C6
C6
C6
ENDCHAR
STARTCHAR 019F
ENCODING 415
SWIDTH 750 0
DWIDTH 12 0
BBX 11 12 1 0
BITMAP
1F00
3180
60C0
C060
C060
FFE0
C060
C060
C060
60C0
3180
1F00
ENDCHAR
STARTCHAR 01A0
ENCODING 416
SWIDTH 750 0
DWIDTH 12 0
BBX 11 14 1 0
BITMAP
0020
0020
1FE0
3180
60C0
C060
C060
C060
C060
C060
C060
60C0
3180
1F00
ENDCHAR
STARTCHAR 01A1
ENCODING 417
SWIDTH 625 0
DWIDTH 10 0
BBX 9 11 1 0
BITMAP
0080
0080
3F00
6600
C300
C300
C300
C300
C300
6600
3C00
ENDCHAR
STARTCHAR 01A2
ENCODING 418
SWIDTH 1062 0
DWIDTH 17 0
BBX 15 15 1 -3
BITMAP
1F3C
31C6
60C6
C066
C066
C066
C066
C066
C066
60C6
3186
1F06
0006
0006
0006
ENDCHAR
STARTCHAR 01A3
ENCODING 419
SWIDTH 875 0
DWIDTH 14 0
BBX 12 12 1 -3
BITMAP
3DE0
6730
C330
C330
C330
C330
C330
6630
3C30
0030
0030
0030
ENDCHAR
STARTCHAR 01A4
ENCODING 420
SWIDTH 687 0
DWIDTH 11 0
BBX 10 12 0 0
BITMAP
7F80
99C0
98C0
98C0
18C0
1980
1F00
1800
1800
1800
1800
1800
ENDCHAR
STARTCHAR 01A5
ENCODING 421
SWIDTH 625 0
DWIDTH 10 0
BBX 8 15 2 -3
BITMAP
3C
60
C0
DC
E6
C3
C3
C3
C3
C3
E6
DC
C0
C0
C0
ENDCHAR
STARTCHAR 01A6
ENCODING 422
SWIDTH 625 0
DWIDTH 10 0
BBX 9 16 2 -2
BITMAP
C000
C000
FC00
CE00
C600
C600
C600
CC00
F800
DC00
CC00
CE00
C600
C700
0300
0380
ENDCHAR
STARTCHAR 01A7
ENCODING 423
SWIDTH 562 0
DWIDTH 9 0
BBX 7 12 1 0
BITMAP
7C
06
06
06
0E
3C
70
E0
C0
C0
62
3C
ENDCHAR
STARTCHAR 01A8
ENCODING 424
SWIDTH 500 0
DWIDTH 8 0
BBX 6 9 1 0
BITMAP
78
0C
0C
1C
78
E0
C0
C4
78
ENDCHAR
STARTCHAR 01A9
ENCODING 425
SWIDTH 562 0
DWIDTH 9 0
BBX 9 12 0 0
BITMAP
FF80
C000
6000
3000
1800
0C00
0C00
1800
3000
6000
C000
FF80
ENDCHAR
STARTCHAR 01AA
ENCODING 426
SWIDTH 500 0
DWIDTH 8 0
BBX 9 15 0 -3
BITMAP
7800
8C00
8C00
7C00
0C00
0C00
0C00
0C00
0C00
0C00
0C00
0C00
0C00
0400
0780
ENDCHAR
STARTCHAR 01AB
ENCODING 427
SWIDTH 375 0
DWIDTH 6 0
BBX 5 14 1 -3
BITMAP
60
60
F8
60
60
60
60
60
60
60
38
18
18
70
ENDCHAR
STARTCHAR 01AC
ENCODING 428
SWIDTH 687 0
DWIDTH 11 0
BBX 11 12 0 0
BITMAP
7FE0
8600
8600
8600
0600
0600
0600
0600
0600
0600
0600
0600
ENDCHAR
STARTCHAR 01AD
ENCODING 429
SWIDTH 375 0
DWIDTH 6 0
BBX 5 12 1 0
BITMAP
38
60
60
F8
60
60
60
60
60
60
60
38
ENDCHAR
STARTCHAR 01AE
ENCODING 430
SWIDTH 625 0
DWIDTH 10 0
BBX 10 15 0 -3
BITMAP
FFC0
0C00
0C00
0C00
0C00
0C00
0C00
0C00
0C00
0C00
0C00
0C00
0C00
0C00
0700
ENDCHAR
STARTCHAR 01AF
ENCODING 431
SWIDTH 812 0
DWIDTH 13 0
BBX 11 14 1 0
BITMAP
0020
0020
C3E0
C380
C300
C300
C300
C300
C300
C300
C300
C300
6600
3C00
ENDCHAR
STARTCHAR 01B0
ENCODING 432
SWIDTH 750 0
DWIDTH 12 0
BBX 10 11 1 0
BITMAP
0040
0040
C7C0
C700
C600
C600
C600
C600
C600
CE00
7600
ENDCHAR
STARTCHAR 01B1
ENCODING 433
SWIDTH 812 0
DWIDTH 13 0
BBX 11 12 1 0
BITMAP
F1E0
3180
60C0
4040
C060
C060
C060
C060
C060
60C0
3180
1F00
ENDCHAR
STARTCHAR 01B2
ENCODING 434
SWIDTH 687 0
DWIDTH 11 0
BBX 9 12 1 0
BITMAP
C300
C300
C180
C180
C180
C180
C180
C180
C180
C300
6300
3C00
ENDCHAR
STARTCHAR 01B3
ENCODING 435
SWIDTH 625 0
DWIDTH 10 0
BBX 11 12 0 0
BITMAP
F020
3840
18C0
1C80
0D00
0F00
0600
0600
0600
0600
0600
0600
ENDCHAR
STARTCHAR 01B4
ENCODING 436
SWIDTH 687 0
DWIDTH 11 0
BBX 11 15 0 -3
BITMAP
00E0
0080
0100
C100
6200
6200
6200
3400
3400
3C00
1800
1800
1000
1000
3000
ENDCHAR
STARTCHAR 01B5
ENCODING 437
SWIDTH 625 0
DWIDTH 10 0
BBX 8 12 1 0
BITMAP
FF
07
06
0E
0C
7E
18
30
70
60
E0
FF
ENDCHAR
STARTCHAR 01B6
ENCODING 438
SWIDTH 562 0
DWIDTH 9 0
BBX 7 9 1 0
BITMAP
FE
0E
0C
18
7E
30
60
E0
FE
ENDCHAR
STARTCHAR 01B7
ENCODING 439
SWIDTH 562 0
DWIDTH 9 0
BBX 7 12 1 0
BITMAP
FE
06
0C
18
30
78
0C
06
06
06
0C
F8
ENDCHAR
STARTCHAR 01B8
ENCODING 440
SWIDTH 562 0
DWIDTH 9 0
BBX 7 12 1 0
BITMAP
FE
C0
60
30
18
3C
60
C0
C0
C0
60
3E
ENDCHAR
STARTCHAR 01B9
ENCODING 441
SWIDTH 500 0
DWIDTH 8 0
BBX 7 12 1 -3
BITMAP
FE
40
20
10
08
3C
60
C0
C0
C0
60
3E
ENDCHAR
STARTCHAR 01BA
ENCODING 442
SWIDTH 500 0
DWIDTH 8 0
BBX 6 12 1 -3
BITMAP
FC
08
10
60
78
0C
0C
1C
78
E0
C8
70
ENDCHAR
STARTCHAR 01BB
ENCODING 443
SWIDTH 625 0
DWIDTH 10 0
BBX 7 12 1 0
BITMAP
78
8E
06
06
06
0C
FE
30
60
60
C0
FE
ENDCHAR
STARTCHAR 01BC
ENCODING 444
SWIDTH 625 0
DWIDTH 10 0
BBX 6 12 2 0
BITMAP
FC
C0
C0
C0
F0
18
0C
0C
0C
0C
18
F0
ENDCHAR
STARTCHAR 01BD
ENCODING 445
SWIDTH 500 0
DWIDTH 8 0
BBX 5 9 1 0
BITMAP
F8
80
80
E0
38
18
18
18
F0
ENDCHAR
STARTCHAR 01BE
ENCODING 446
SWIDTH 437 0
DWIDTH 7 0
BBX 6 12 1 0
BITMAP
60
60
60
F8
60
60
30
18
0C
0C
8C
78
ENDCHAR
STARTCHAR 01BF
ENCODING 447
SWIDTH 625 0
DWIDTH 10 0
BBX 7 12 2 -3
BITMAP
DC
E6
C6
C6
C6
CC
D8
D0
E0
C0
C0
C0
ENDCHAR
STARTCHAR 01C0
ENCODING 448
SWIDTH 312 0
DWIDTH 5 0
BBX 1 12 2 0
BITMAP
80
80
80
80
80
80
80
80
80
80
80
80
ENDCHAR
STARTCHAR 01C1
ENCODING 449
SWIDTH 437 0
DWIDTH 7 0
BBX 4 12 2 0
BITMAP
90
90
90
90
90
90
90
90
90
90
90
90
ENDCHAR
STARTCHAR 01C2
ENCODING 450
SWIDTH 625 0
DWIDTH 10 0
BBX 7 12 2 0
BITMAP
10
10
10
FE
10
10
10
FE
10
10
10
10
ENDCHAR
STARTCHAR 01C3
ENCODING 451
SWIDTH 312 0
DWIDTH 5 0
BBX 2 12 2 0
BITMAP
C0
C0
C0
C0
C0
C0
C0
C0
C0
00
00
C0
ENDCHAR
STARTCHAR 01C4
ENCODING 452
SWIDTH 1250 0
DWIDTH 20 0
BBX 18 16 2 0
BITMAP
000880
000500
000700
000000
FE3FC0
C380C0
C18180
C0C300
C0C300
C0C600
C0C600
C0CC00
C0D800
C19800
C3B000
FE3FC0
ENDCHAR
STARTCHAR 01C5
ENCODING 453
SWIDTH 1312 0
DWIDTH 21 0
BBX 17 14 2 0
BITMAP
001100
000A00
FE0E00
C38000
C18000
C0FF80
C0C180
C0C300
C0C600
C0C600
C0CC00
C19800
C3B000
FE3F80
ENDCHAR
STARTCHAR 01C6
ENCODING 454
SWIDTH 1125 0
DWIDTH 18 0
BBX 16 14 1 0
BITMAP
0022
0014
031C
0300
0300
3B7F
6703
C306
C30C
C30C
C318
C330
6760
3B7F
ENDCHAR
STARTCHAR 01C7
ENCODING 455
SWIDTH 812 0
DWIDTH 13 0
BBX 10 14 2 -2
BITMAP
C0C0
C0C0
C0C0
C0C0
C0C0
C0C0
C0C0
C0C0
C0C0
C0C0
C0C0
FEC0
00C0
0780
ENDCHAR
STARTCHAR 01C8
ENCODING 456
SWIDTH 812 0
DWIDTH 13 0
BBX 10 15 2 -3
BITMAP
C0C0
C000
C000
C0C0
C0C0
C0C0
C0C0
C0C0
C0C0
C0C0
C0C0
FEC0
00C0
00C0
0780
ENDCHAR
STARTCHAR 01C9
ENCODING 457
SWIDTH 500 0
DWIDTH 8 0
BBX 6 15 2 -3
BITMAP
CC
C0
C0
CC
CC
CC
CC
CC
CC
CC
CC
CC
0C
0C
78
ENDCHAR
STARTCHAR 01CA
ENCODING 458
SWIDTH 1000 0
DWIDTH 16 0
BBX 13 14 2 -2
BITMAP
C098
E098
E098
B098
B898
9898
8C98
8E98
8698
8398
8398
8198
0018
00F0
ENDCHAR
STARTCHAR 01CB
ENCODING 459
SWIDTH 1000 0
DWIDTH 16 0
BBX 13 15 2 -3
BITMAP
C098
E080
E080
B098
B898
9898
8C98
8E98
8698
8398
8398
8198
0018
0018
00F0
ENDCHAR
STARTCHAR 01CC
ENCODING 460
SWIDTH 875 0
DWIDTH 14 0
BBX 12 15 1 -3
BITMAP
0030
0000
0000
DE30
E330
C330
C330
C330
C330
C330
C330
C330
0030
0030
01E0
ENDCHAR
STARTCHAR 01CD
ENCODING 461
SWIDTH 687 0
DWIDTH 11 0
BBX 11 16 0 0
BITMAP
1100
0A00
0E00
0000
0400
0C00
0E00
1600
1300
1300
2180
3F80
4180
40C0
40C0
8060
ENDCHAR
STARTCHAR 01CE
ENCODING 462
SWIDTH 562 0
DWIDTH 9 0
BBX 8 14 1 0
BITMAP
22
14
1C
00
00
3C
46
06
06
3E
E6
C6
C6
7B
ENDCHAR
STARTCHAR 01CF
ENCODING 463
SWIDTH 312 0
DWIDTH 5 0
BBX 5 16 0 0
BITMAP
88
50
70
00
30
30
30
30
30
30
30
30
30
30
30
30
ENDCHAR
STARTCHAR 01D0
ENCODING 464
SWIDTH 312 0
DWIDTH 5 0
BBX 5 14 0 0
BITMAP
88
50
70
00
00
30
30
30
30
30
30
30
30
30
ENDCHAR
STARTCHAR 01D1
ENCODING 465
SWIDTH 750 0
DWIDTH 12 0
BBX 11 16 1 0
BITMAP
1100
0A00
0E00
0000
1F00
71C0
60C0
C060
C060
C060
C060
C060
C060
60C0
71C0
1F00
ENDCHAR
STARTCHAR 01D2
ENCODING 466
SWIDTH 625 0
DWIDTH 10 0
BBX 8 14 1 0
BITMAP
22
14
1C
00
00
3C
66
C3
C3
C3
C3
C3
66
3C
ENDCHAR
STARTCHAR 01D3
ENCODING 467
SWIDTH 687 0
DWIDTH 11 0
BBX 8 16 1 0
BITMAP
44
28
38
00
C3
C3
C3
C3
C3
C3
C3
C3
C3
C3
66
3C
ENDCHAR
STARTCHAR 01D4
ENCODING 468
SWIDTH 625 0
DWIDTH 10 0
BBX 8 14 1 0
BITMAP
22
14
1C
00
00
C3
C3
C3
C3
C3
C3
C3
C7
7B
ENDCHAR
STARTCHAR 01D5
ENCODING 469
SWIDTH 687 0
DWIDTH 11 0
BBX 8 16 1 0
BITMAP
7C
00
6C
00
C3
C3
C3
C3
C3
C3
C3
C3
C3
C3
66
3C
ENDCHAR
STARTCHAR 01D6
ENCODING 470
SWIDTH 625 0
DWIDTH 10 0
BBX 8 14 1 0
BITMAP
3E
00
36
00
00
C3
C3
C3
C3
C3
C3
C3
C7
7B
ENDCHAR
STARTCHAR 01D7
ENCODING 471
SWIDTH 687 0
DWIDTH 11 0
BBX 8 18 1 0
BITMAP
06
0C
18
00
36
00
C3
C3
C3
C3
C3
C3
C3
C3
C3
C3
66
3C
ENDCHAR
STARTCHAR 01D8
ENCODING 472
SWIDTH 625 0
DWIDTH 10 0
BBX 8 16 1 0
BITMAP
06
0C
18
00
6C
00
00
C3
C3
C3
C3
C3
C3
C3
C7
7B
ENDCHAR
STARTCHAR 01D9
ENCODING 473
SWIDTH 687 0
DWIDTH 11 0
BBX 8 18 1 0
BITMAP
44
28
38
00
6C
00
C3
C3
C3
C3
C3
C3
C3
C3
C3
C3
66
3C
ENDCHAR
STARTCHAR 01DA
ENCODING 474
SWIDTH 625 0
DWIDTH 10 0
BBX 8 16 1 0
BITMAP
22
14
1C
00
36
00
00
C3
C3
C3
C3
C3
C3
C3
C7
7B
ENDCHAR
STARTCHAR 01DB
ENCODING 475
SWIDTH 687 0
DWIDTH 11 0
BBX 8 18 1 0
BITMAP
30
18
0C
00
36
00
C3
C3
C3
C3
C3
C3
C3
C3
C3
C3
66
3C
ENDCHAR
STARTCHAR 01DC
ENCODING 476
SWIDTH 625 0
DWIDTH 10 0
BBX 8 17 1 0
BITMAP
60
30
18
00
00
6C
00
00
C3
C3
C3
C3
C3
C3
C3
C7
7B
ENDCHAR
STARTCHAR 01DD
ENCODING 477
SWIDTH 562 0
DWIDTH 9 0
BBX 7 9 1 0
BITMAP
F8
0C
06
06
FE
C6
C6
4C
38
ENDCHAR
STARTCHAR 01DE
ENCODING 478
SWIDTH 687 0
DWIDTH 11 0
BBX 11 16 0 0
BITMAP
1F00
0000
1B00
0000
0400
0C00
0E00
1600
1300
1300
2180
3F80
4180
40C0
40C0
8060
ENDCHAR
STARTCHAR 01DF
ENCODING 479
SWIDTH 562 0
DWIDTH 9 0
BBX 8 15 1 0
BITMAP
7C
00
00
6C
00
00
3C
46
06
06
3E
E6
C6
C6
7B
ENDCHAR
STARTCHAR 01E0
ENCODING 480
SWIDTH 687 0
DWIDTH 11 0
BBX 11 16 0 0
BITMAP
1F00
0000
0600
0000
0400
0C00
0E00
1600
1300
1300
2180
3F80
4180
40C0
40C0
8060
ENDCHAR
STARTCHAR 01E1
ENCODING 481
SWIDTH 562 0
DWIDTH 9 0
BBX 8 15 1 0
BITMAP
3E
00
00
06
00
00
3C
46
06
06
3E
E6
C6
C6
7B
ENDCHAR
STARTCHAR 01E2
ENCODING 482
SWIDTH 937 0
DWIDTH 15 0
BBX 14 14 0 0
BITMAP
00F8
0000
01FC
0380
0780
0580
0980
09F8
1180
1180
3F80
6180
4180
81FC
ENDCHAR
STARTCHAR 01E3
ENCODING 483
SWIDTH 875 0
DWIDTH 14 0
BBX 12 12 1 0
BITMAP
0F80
0000
0000
3DC0
4760
0630
0630
3FF0
E600
C600
C710
79E0
ENDCHAR
STARTCHAR 01E4
ENCODING 484
SWIDTH 812 0
DWIDTH 13 0
BBX 11 12 1 0
BITMAP
1F00
3080
6000
C000
C000
C000
C180
C180
C7E0
6180
7180
1F80
ENDCHAR
STARTCHAR 01E5
ENCODING 485
SWIDTH 687 0
DWIDTH 11 0
BBX 10 12 1 -3
BITMAP
3B00
6700
C300
C300
CFC0
C300
C300
6700
3B00
0300
0600
7C00
ENDCHAR
STARTCHAR 01E6
ENCODING 486
SWIDTH 750 0
DWIDTH 12 0
BBX 10 16 1 0
BITMAP
0880
0500
0700
0000
1F80
7040
6000
C000
C000
C000
C000
C0C0
C0C0
60C0
70C0
1FC0
ENDCHAR
STARTCHAR 01E7
ENCODING 487
SWIDTH 625 0
DWIDTH 10 0
BBX 8 17 1 -3
BITMAP
44
28
38
00
00
3B
67
C3
C3
C3
C3
C3
67
3B
03
06
7C
ENDCHAR
STARTCHAR 01E8
ENCODING 488
SWIDTH 625 0
DWIDTH 10 0
BBX 9 16 2 0
BITMAP
4400
2800
3800
0000
C100
C200
C400
C800
D000
E000
F000
D800
CC00
C600
C300
C180
ENDCHAR
STARTCHAR 01E9
ENCODING 489
SWIDTH 562 0
DWIDTH 9 0
BBX 8 16 2 0
BITMAP
22
14
1C
00
C0
C0
C0
C2
C4
C8
D0
F0
D8
CC
C6
C3
ENDCHAR
STARTCHAR 01EA
ENCODING 490
SWIDTH 750 0
DWIDTH 12 0
BBX 11 15 1 -4
BITMAP
1F00
71C0
60C0
C060
C060
C060
C060
C060
C060
60C0
71C0
1F00
0000
0800
0600
ENDCHAR
STARTCHAR 01EB
ENCODING 491
SWIDTH 625 0
DWIDTH 10 0
BBX 8 12 1 -4
BITMAP
3C
66
C3
C3
C3
C3
C3
66
3C
00
20
18
ENDCHAR
STARTCHAR 01EC
ENCODING 492
SWIDTH 750 0
DWIDTH 12 0
BBX 11 17 1 -4
BITMAP
1F00
0000
1F00
71C0
60C0
C060
C060
C060
C060
C060
C060
60C0
71C0
1F00
0000
0400
0300
ENDCHAR
STARTCHAR 01ED
ENCODING 493
SWIDTH 625 0
DWIDTH 10 0
BBX 8 15 1 -4
BITMAP
3E
00
00
3C
66
C3
C3
C3
C3
C3
66
3C
00
08
06
ENDCHAR
STARTCHAR 01EE
ENCODING 494
SWIDTH 562 0
DWIDTH 9 0
BBX 7 16 1 0
BITMAP
44
28
38
00
FE
06
0C
18
30
78
0C
06
06
06
0C
F8
ENDCHAR
STARTCHAR 01EF
ENCODING 495
SWIDTH 500 0
DWIDTH 8 0
BBX 7 17 1 -3
BITMAP
44
28
38
00
00
FE
04
08
10
20
78
0C
06
06
06
0C
F8
ENDCHAR
STARTCHAR 01F0
ENCODING 496
SWIDTH 312 0
DWIDTH 5 0
BBX 7 16 -1 -3
BITMAP
22
14
1C
00
18
18
18
18
18
18
18
18
18
18
18
F0
ENDCHAR
STARTCHAR 01FA
ENCODING 506
SWIDTH 687 0
DWIDTH 11 0
BBX 11 19 0 0
BITMAP
0300
0600
0C00
0600
0900
0900
0600
0400
0C00
0E00
1600
1300
1300
2180
3F80
4180
40C0
40C0
8060
ENDCHAR
STARTCHAR 01FB
ENCODING 507
SWIDTH 562 0
DWIDTH 9 0
BBX 8 17 1 0
BITMAP
0C
18
30
00
18
24
24
18
3C
46
06
06
3E
E6
C6
C6
7B
ENDCHAR
STARTCHAR 01FC
ENCODING 508
SWIDTH 937 0
DWIDTH 15 0
BBX 14 16 0 0
BITMAP
0030
0060
00C0
0000
01FC
0380
0780
0580
0980
09F8
1180
1180
3F80
6180
4180
81FC
ENDCHAR
STARTCHAR 01FD
ENCODING 509
SWIDTH 875 0
DWIDTH 14 0
BBX 12 13 1 0
BITMAP
0180
0300
0600
0000
3DC0
4760
0630
0630
3FF0
E600
C600
C710
79E0
ENDCHAR
STARTCHAR 01FE
ENCODING 510
SWIDTH 750 0
DWIDTH 12 0
BBX 11 16 1 0
BITMAP
0300
0600
0C00
0000
1F60
30C0
60C0
C160
C260
C660
CC60
C860
D060
60C0
6180
DF00
ENDCHAR
STARTCHAR 01FF
ENCODING 511
SWIDTH 625 0
DWIDTH 10 0
BBX 9 13 1 0
BITMAP
0600
0C00
1800
0000
3E80
6300
C780
C580
C980
D180
F180
6300
BE00
ENDCHAR
STARTCHAR 0218
ENCODING 536
SWIDTH 562 0
DWIDTH 9 0
BBX 7 17 1 -5
BITMAP
3C
60
C0
C0
E0
78
1C
0E
06
06
8C
78
00
18
08
08
10
ENDCHAR
STARTCHAR 0219
ENCODING 537
SWIDTH 500 0
DWIDTH 8 0
BBX 6 14 1 -5
BITMAP
78
C0
C0
E0
78
1C
0C
8C
78
00
30
10
10
20
ENDCHAR
STARTCHAR 021A
ENCODING 538
SWIDTH 625 0
DWIDTH 10 0
BBX 10 17 0 -5
BITMAP
FFC0
0C00
0C00
0C00
0C00
0C00
0C00
0C00
0C00
0C00
0C00
0C00
0000
0C00
0400
0400
0800
ENDCHAR
STARTCHAR 021B
ENCODING 539
SWIDTH 375 0
DWIDTH 6 0
BBX 5 16 0 -5
BITMAP
60
60
F8
60
60
60
60
60
60
60
38
00
30
10
10
20
ENDCHAR
STARTCHAR 0250
ENCODING 592
SWIDTH 562 0
DWIDTH 9 0
BBX 7 9 1 0
BITMAP
CC
76
66
66
7C
60
60
64
38
ENDCHAR
STARTCHAR 0251
ENCODING 593
SWIDTH 625 0
DWIDTH 10 0
BBX 7 9 1 0
BITMAP
3E
66
66
C6
C6
C6
CE
D6
66
ENDCHAR
STARTCHAR 0252
ENCODING 594
SWIDTH 625 0
DWIDTH 10 0
BBX 7 9 2 0
BITMAP
CC
F6
E6
C6
C6
C6
CC
CC
F8
ENDCHAR
STARTCHAR 0253
ENCODING 595
SWIDTH 625 0
DWIDTH 10 0
BBX 8 12 2 0
BITMAP
3C
64
C0
DC
E6
C3
C3
C3
C3
C3
E6
DC
ENDCHAR
STARTCHAR 0254
ENCODING 596
SWIDTH 500 0
DWIDTH 8 0
BBX 7 9 1 0
BITMAP
F8
0C
06
06
06
06
06
0C
F8
ENDCHAR
STARTCHAR 0255
ENCODING 597
SWIDTH 562 0
DWIDTH 9 0
BBX 8 10 1 -1
BITMAP
3E
60
C0
C0
C0
CE
51
61
5E
40
ENDCHAR
STARTCHAR 0256
ENCODING 598
SWIDTH 625 0
DWIDTH 10 0
BBX 10 15 1 -3
BITMAP
0300
0300
0300
3B00
6700
C300
C300
C300
C300
C300
6700
3B00
0300
0300
01C0
ENDCHAR
STARTCHAR 0257
ENCODING 599
SWIDTH 625 0
DWIDTH 10 0
BBX 10 12 1 0
BITMAP
01C0
0300
0300
3B00
6700
C300
C300
C300
C300
C300
6700
3B00
ENDCHAR
STARTCHAR 0258
ENCODING 600
SWIDTH 562 0
DWIDTH 9 0
BBX 7 9 1 0
BITMAP
38
4C
C6
C6
FE
06
06
0C
F8
ENDCHAR
STARTCHAR 0259
ENCODING 601
SWIDTH 562 0
DWIDTH 9 0
BBX 7 9 1 0
BITMAP
F8
0C
06
06
FE
C6
C6
4C
38
ENDCHAR
STARTCHAR 025A
ENCODING 602
SWIDTH 812 0
DWIDTH 13 0
BBX 12 9 1 0
BITMAP
F800
0C00
0400
07C0
7E40
C640
C630
4C00
3800
ENDCHAR
STARTCHAR 025B
ENCODING 603
SWIDTH 500 0
DWIDTH 8 0
BBX 6 9 1 0
BITMAP
7C
C0
C0
60
38
C0
C0
C0
7C
ENDCHAR
STARTCHAR 025C
ENCODING 604
SWIDTH 500 0
DWIDTH 8 0
BBX 6 9 1 0
BITMAP
F8
0C
0C
18
70
0C
0C
0C
F8
ENDCHAR
STARTCHAR 025D
ENCODING 605
SWIDTH 687 0
DWIDTH 11 0
BBX 10 9 1 0
BITMAP
F900
0F00
0D00
1900
70C0
0C00
0C00
0C00
F800
ENDCHAR
STARTCHAR 025E
ENCODING 606
SWIDTH 562 0
DWIDTH 9 0
BBX 8 9 1 0
BITMAP
3E
63
C3
C3
DE
C3
C3
63
3E
ENDCHAR
STARTCHAR 025F
ENCODING 607
SWIDTH 375 0
DWIDTH 6 0
BBX 7 12 -1 -3
BITMAP
18
18
18
7E
18
18
18
18
18
18
98
F0
ENDCHAR
STARTCHAR 0260
ENCODING 608
SWIDTH 625 0
DWIDTH 10 0
BBX 10 15 1 -3
BITMAP
01C0
0300
0300
3B00
6700
C300
C300
C300
C300
C300
6700
3B00
0300
0600
7C00
ENDCHAR
STARTCHAR 0261
ENCODING 609
SWIDTH 625 0
DWIDTH 10 0
BBX 8 12 1 -3
BITMAP
3B
67
C3
C3
C3
C3
C3
67
3B
03
06
7C
ENDCHAR
STARTCHAR 0262
ENCODING 610
SWIDTH 562 0
DWIDTH 9 0
BBX 7 9 1 0
BITMAP
3E
60
C0
C0
C0
C6
C6
66
3E
ENDCHAR
STARTCHAR 0263
ENCODING 611
SWIDTH 562 0
DWIDTH 9 0
BBX 8 12 0 -3
BITMAP
C3
63
66
36
3C
18
18
2C
2C
2C
2C
18
ENDCHAR
STARTCHAR 0264
ENCODING 612
SWIDTH 562 0
DWIDTH 9 0
BBX 8 9 0 0
BITMAP
C3
36
1C
18
18
24
24
24
18
ENDCHAR
STARTCHAR 0265
ENCODING 613
SWIDTH 625 0
DWIDTH 10 0
BBX 7 12 1 -3
BITMAP
C6
C6
C6
C6
C6
C6
C6
CE
76
06
06
06
ENDCHAR
STARTCHAR 0266
ENCODING 614
SWIDTH 625 0
DWIDTH 10 0
BBX 7 12 2 0
BITMAP
3C
64
C0
DC
E6
C6
C6
C6
C6
C6
C6
C6
ENDCHAR
STARTCHAR 0267
ENCODING 615
SWIDTH 625 0
DWIDTH 10 0
BBX 7 15 2 -3
BITMAP
3C
64
C0
DC
E6
C6
C6
C6
C6
C6
C6
C6
06
06
1C
ENDCHAR
STARTCHAR 0268
ENCODING 616
SWIDTH 375 0
DWIDTH 6 0
BBX 6 12 0 0
BITMAP
30
00
00
30
30
30
FC
30
30
30
30
30
ENDCHAR
STARTCHAR 0269
ENCODING 617
SWIDTH 375 0
DWIDTH 6 0
BBX 4 9 2 0
BITMAP
C0
C0
C0
C0
C0
C0
C0
C0
70
ENDCHAR
STARTCHAR 026A
ENCODING 618
SWIDTH 437 0
DWIDTH 7 0
BBX 6 9 1 0
BITMAP
FC
30
30
30
30
30
30
30
FC
ENDCHAR
STARTCHAR 026B
ENCODING 619
SWIDTH 500 0
DWIDTH 8 0
BBX 8 12 0 0
BITMAP
18
18
18
18
19
79
9E
98
18
18
18
18
ENDCHAR
STARTCHAR 026C
ENCODING 620
SWIDTH 500 0
DWIDTH 8 0
BBX 8 12 0 0
BITMAP
0C
0C
0C
6C
9C
8C
7F
0C
0C
0C
0C
0C
ENDCHAR
STARTCHAR 026D
ENCODING 621
SWIDTH 312 0
DWIDTH 5 0
BBX 4 15 2 -3
BITMAP
C0
C0
C0
C0
C0
C0
C0
C0
C0
C0
C0
C0
C0
C0
70
ENDCHAR
STARTCHAR 026E
ENCODING 622
SWIDTH 687 0
DWIDTH 11 0
BBX 8 15 2 -3
BITMAP
C0
C0
C0
FF
C3
C6
CC
D8
DC
C6
C3
C3
03
06
3C
ENDCHAR
STARTCHAR 026F
ENCODING 623
SWIDTH 937 0
DWIDTH 15 0
BBX 12 9 1 -1
BITMAP
C630
C630
C630
C630
C630
C630
C630
CE70
F3B0
ENDCHAR
STARTCHAR 0270
ENCODING 624
SWIDTH 937 0
DWIDTH 15 0
BBX 12 12 1 -3
BITMAP
C630
C630
C630
C630
C630
C630
C630
CE70
73B0
0030
0030
0030
ENDCHAR
STARTCHAR 0271
ENCODING 625
SWIDTH 937 0
DWIDTH 15 0
BBX 12 12 2 -3
BITMAP
DCE0
E730
C630
C630
C630
C630
C630
C630
C630
0030
0030
00E0
ENDCHAR
STARTCHAR 0272
ENCODING 626
SWIDTH 625 0
DWIDTH 10 0
BBX 9 12 0 -3
BITMAP
3700
3980
3180
3180
3180
3180
3180
3180
3180
3000
3000
E000
ENDCHAR
STARTCHAR 0273
ENCODING 627
SWIDTH 625 0
DWIDTH 10 0
BBX 9 12 2 -3
BITMAP
DC00
E600
C600
C600
C600
C600
C600
C600
C600
0600
0600
0380
ENDCHAR
STARTCHAR 0274
ENCODING 628
SWIDTH 625 0
DWIDTH 10 0
BBX 7 9 2 0
BITMAP
C6
C6
E6
F6
D6
DE
CE
C6
C6
ENDCHAR
STARTCHAR 0275
ENCODING 629
SWIDTH 625 0
DWIDTH 10 0
BBX 8 9 1 0
BITMAP
3C
66
C3
C3
FF
C3
C3
66
3C
ENDCHAR
STARTCHAR 0276
ENCODING 630
SWIDTH 812 0
DWIDTH 13 0
BBX 11 9 1 0
BITMAP
3FE0
6700
C300
C300
C3C0
C300
C300
6300
3FE0
ENDCHAR
STARTCHAR 0277
ENCODING 631
SWIDTH 812 0
DWIDTH 13 0
BBX 12 9 1 0
BITMAP
1F80
70E0
6060
C630
C630
C630
C630
6660
39C0
ENDCHAR
STARTCHAR 0278
ENCODING 632
SWIDTH 750 0
DWIDTH 12 0
BBX 12 15 1 -3
BITMAP
0600
0600
0600
0600
3FC0
6660
C630
C630
C630
C630
6660
3FC0
0600
0600
0600
ENDCHAR
STARTCHAR 0279
ENCODING 633
SWIDTH 437 0
DWIDTH 7 0
BBX 5 9 0 0
BITMAP
18
18
18
18
18
18
18
38
D8
ENDCHAR
STARTCHAR 027A
ENCODING 634
SWIDTH 437 0
DWIDTH 7 0
BBX 5 12 0 0
BITMAP
18
18
18
18
18
18
18
18
18
18
38
D8
ENDCHAR
STARTCHAR 027B
ENCODING 635
SWIDTH 437 0
DWIDTH 7 0
BBX 7 12 0 -3
BITMAP
18
18
18
18
18
18
18
38
D8
18
18
0E
ENDCHAR
STARTCHAR 027C
ENCODING 636
SWIDTH 437 0
DWIDTH 7 0
BBX 5 12 2 -3
BITMAP
D8
E0
C0
C0
C0
C0
C0
C0
C0
C0
C0
C0
ENDCHAR
STARTCHAR 027D
ENCODING 637
SWIDTH 437 0
DWIDTH 7 0
BBX 5 12 2 -3
BITMAP
D8
E0
C0
C0
C0
C0
C0
C0
C0
C0
C0
70
ENDCHAR
STARTCHAR 027E
ENCODING 638
SWIDTH 437 0
DWIDTH 7 0
BBX 5 9 2 0
BITMAP
78
40
C0
C0
C0
C0
C0
C0
C0
ENDCHAR
STARTCHAR 027F
ENCODING 639
SWIDTH 437 0
DWIDTH 7 0
BBX 5 9 0 0
BITMAP
F0
10
18
18
18
18
18
18
18
ENDCHAR
STARTCHAR 0280
ENCODING 640
SWIDTH 562 0
DWIDTH 9 0
BBX 7 9 2 0
BITMAP
F8
CC
CC
CC
F8
D8
DC
CC
CE
ENDCHAR
STARTCHAR 0281
ENCODING 641
SWIDTH 562 0
DWIDTH 9 0
BBX 7 9 2 0
BITMAP
CE
CC
DC
D8
F8
CC
CC
CC
F8
ENDCHAR
STARTCHAR 0282
ENCODING 642
SWIDTH 500 0
DWIDTH 8 0
BBX 6 12 1 -3
BITMAP
78
C0
C0
E0
78
1C
0C
8C
F8
80
80
70
ENDCHAR
STARTCHAR 0283
ENCODING 643
SWIDTH 437 0
DWIDTH 7 0
BBX 8 15 -1 -3
BITMAP
0F
18
18
18
18
18
18
18
18
18
18
18
18
18
F0
ENDCHAR
STARTCHAR 0284
ENCODING 644
SWIDTH 437 0
DWIDTH 7 0
BBX 7 15 0 -3
BITMAP
0E
18
18
18
18
7E
18
18
18
7E
18
18
18
18
F0
ENDCHAR
STARTCHAR 0285
ENCODING 645
SWIDTH 437 0
DWIDTH 7 0
BBX 8 12 0 0
BITMAP
F0
18
18
18
18
18
18
18
18
18
18
0F
ENDCHAR
STARTCHAR 0286
ENCODING 646
SWIDTH 500 0
DWIDTH 8 0
BBX 9 15 0 -3
BITMAP
0780
0C00
0C00
0C00
0C00
0C00
0C00
0C00
0C00
0C00
0C00
7F00
8C00
9C00
7000
ENDCHAR
STARTCHAR 0287
ENCODING 647
SWIDTH 375 0
DWIDTH 6 0
BBX 5 11 1 -2
BITMAP
E0
30
30
30
30
30
30
30
F8
30
30
ENDCHAR
STARTCHAR 0288
ENCODING 648
SWIDTH 375 0
DWIDTH 6 0
BBX 5 14 1 -3
BITMAP
60
60
F8
60
60
60
60
60
60
60
60
60
60
38
ENDCHAR
STARTCHAR 0289
ENCODING 649
SWIDTH 687 0
DWIDTH 11 0
BBX 11 9 0 0
BITMAP
3180
3180
3180
FFE0
3180
3180
3180
3380
1D80
ENDCHAR
STARTCHAR 028A
ENCODING 650
SWIDTH 687 0
DWIDTH 11 0
BBX 9 9 1 0
BITMAP
E380
6300
C180
C180
C180
C180
C180
6300
3E00
ENDCHAR
STARTCHAR 028B
ENCODING 651
SWIDTH 625 0
DWIDTH 10 0
BBX 8 9 0 0
BITMAP
C3
E3
63
63
63
32
36
3C
38
ENDCHAR
STARTCHAR 028C
ENCODING 652
SWIDTH 500 0
DWIDTH 8 0
BBX 8 9 0 0
BITMAP
18
18
2C
2C
2C
46
46
46
83
ENDCHAR
STARTCHAR 028D
ENCODING 653
SWIDTH 750 0
DWIDTH 12 0
BBX 11 9 1 0
BITMAP
3180
3180
5AC0
5AC0
5AC0
5AC0
5AC0
8C60
8C60
ENDCHAR
STARTCHAR 028E
ENCODING 654
SWIDTH 500 0
DWIDTH 8 0
BBX 8 12 0 0
BITMAP
0C
08
08
18
18
3C
2C
2C
46
46
46
83
ENDCHAR
STARTCHAR 028F
ENCODING 655
SWIDTH 500 0
DWIDTH 8 0
BBX 8 9 0 0
BITMAP
E1
62
76
34
18
18
18
18
18
ENDCHAR
STARTCHAR 0290
ENCODING 656
SWIDTH 562 0
DWIDTH 9 0
BBX 10 12 1 -3
BITMAP
FE00
0E00
0C00
1800
3800
3000
6000
E000
FE00
0200
0200
01C0
ENDCHAR
STARTCHAR 0291
ENCODING 657
SWIDTH 687 0
DWIDTH 11 0
BBX 10 11 1 -2
BITMAP
FE00
0E00
0C00
1800
3980
3240
6440
ECC0
FF80
1000
1000
ENDCHAR
STARTCHAR 0292
ENCODING 658
SWIDTH 500 0
DWIDTH 8 0
BBX 7 12 1 -3
BITMAP
FE
04
08
10
20
78
0C
06
06
06
0C
F8
ENDCHAR
STARTCHAR 0293
ENCODING 659
SWIDTH 562 0
DWIDTH 9 0
BBX 7 13 0 -4
BITMAP
7E
06
0C
18
30
38
0E
06
76
9E
88
7C
04
ENDCHAR
STARTCHAR 0294
ENCODING 660
SWIDTH 437 0
DWIDTH 7 0
BBX 6 12 1 0
BITMAP
F8
0C
0C
0C
18
30
60
60
60
60
60
60
ENDCHAR
STARTCHAR 0295
ENCODING 661
SWIDTH 437 0
DWIDTH 7 0
BBX 6 12 0 0
BITMAP
7C
C0
C0
C0
60
30
18
18
18
18
18
18
ENDCHAR
STARTCHAR 0296
ENCODING 662
SWIDTH 437 0
DWIDTH 7 0
BBX 6 12 1 0
BITMAP
60
60
60
60
60
30
18
18
0C
0C
8C
78
ENDCHAR
STARTCHAR 0297
ENCODING 663
SWIDTH 500 0
DWIDTH 8 0
BBX 7 13 1 -4
BITMAP
1E
70
60
C0
C0
C0
C0
C0
C0
C0
60
72
1C
ENDCHAR
STARTCHAR 0298
ENCODING 664
SWIDTH 687 0
DWIDTH 11 0
BBX 9 9 1 0
BITMAP
3E00
6300
C180
8080
8C80
8C80
C180
6300
3E00
ENDCHAR
STARTCHAR 0299
ENCODING 665
SWIDTH 500 0
DWIDTH 8 0
BBX 6 9 2 0
BITMAP
F8
CC
CC
CC
F0
CC
CC
CC
F8
ENDCHAR
STARTCHAR 029A
ENCODING 666
SWIDTH 562 0
DWIDTH 9 0
BBX 8 9 1 0
BITMAP
7C
C2
C1
C1
79
C1
C1
E2
7C
ENDCHAR
STARTCHAR 029B
ENCODING 667
SWIDTH 562 0
DWIDTH 9 0
BBX 9 13 1 0
BITMAP
0180
0200
0200
0200
3E00
6000
C000
C000
C000
C600
C600
6600
3E00
ENDCHAR
STARTCHAR 029C
ENCODING 668
SWIDTH 625 0
DWIDTH 10 0
BBX 7 9 2 0
BITMAP
C6
C6
C6
C6
FE
C6
C6
C6
C6
ENDCHAR
STARTCHAR 029D
ENCODING 669
SWIDTH 500 0
DWIDTH 8 0
BBX 8 15 0 -3
BITMAP
0C
00
00
0C
0C
0C
0C
0C
0C
0C
0C
7F
8C
9C
70
ENDCHAR
STARTCHAR 029E
ENCODING 670
SWIDTH 562 0
DWIDTH 9 0
BBX 8 12 0 -3
BITMAP
C3
63
33
3B
1F
3B
33
63
C3
03
03
03
ENDCHAR
STARTCHAR 029F
ENCODING 671
SWIDTH 437 0
DWIDTH 7 0
BBX 5 9 2 0
BITMAP
C0
C0
C0
C0
C0
C0
C0
C0
F8
ENDCHAR
STARTCHAR 02A0
ENCODING 672
SWIDTH 625 0
DWIDTH 10 0
BBX 10 15 1 -3
BITMAP
01C0
0300
0300
3B00
6700
C300
C300
C300
C300
C300
6700
3B00
0300
0300
0300
ENDCHAR
STARTCHAR 02A1
ENCODING 673
SWIDTH 437 0
DWIDTH 7 0
BBX 7 12 0 0
BITMAP
7C
06
06
06
0C
18
30
30
FC
30
30
30
ENDCHAR
STARTCHAR 02A2
ENCODING 674
SWIDTH 437 0
DWIDTH 7 0
BBX 7 12 0 0
BITMAP
7C
C0
C0
C0
60
30
18
18
7E
18
18
18
ENDCHAR
STARTCHAR 02A3
ENCODING 675
SWIDTH 1062 0
DWIDTH 17 0
BBX 15 12 1 0
BITMAP
0300
0300
0300
3BFE
670E
C30C
C318
C338
C330
C360
67E0
3BFE
ENDCHAR
STARTCHAR 02A4
ENCODING 676
SWIDTH 1000 0
DWIDTH 16 0
BBX 15 15 1 -3
BITMAP
0300
0300
0300
3BFE
6706
C30C
C318
C330
C338
C30C
6706
3B06
0006
000C
00F8
ENDCHAR
STARTCHAR 02A5
ENCODING 677
SWIDTH 1187 0
DWIDTH 19 0
BBX 18 14 1 -2
BITMAP
030000
030000
030000
3BFE00
670E00
C31C00
C31800
C33980
C33240
C36440
67ECC0
3BFF80
001000
001000
ENDCHAR
STARTCHAR 02A6
ENCODING 678
SWIDTH 812 0
DWIDTH 13 0
BBX 11 11 1 0
BITMAP
6000
6000
FFC0
6600
6600
6700
63C0
60E0
6060
6460
3BC0
ENDCHAR
STARTCHAR 02A7
ENCODING 679
SWIDTH 687 0
DWIDTH 11 0
BBX 11 15 1 -3
BITMAP
01E0
6300
6300
FF00
6300
6300
6300
6300
6300
6300
6300
3B00
0300
0300
1E00
ENDCHAR
STARTCHAR 02A8
ENCODING 680
SWIDTH 875 0
DWIDTH 14 0
BBX 13 13 1 -2
BITMAP
6000
6000
FFF0
6300
6600
6600
6600
6670
6288
6308
3AF0
0200
0200
ENDCHAR
STARTCHAR 02B0
ENCODING 688
SWIDTH 375 0
DWIDTH 6 0
BBX 4 8 1 7
BITMAP
80
80
80
F0
90
90
90
90
ENDCHAR
STARTCHAR 02B1
ENCODING 689
SWIDTH 375 0
DWIDTH 6 0
BBX 4 8 1 7
BITMAP
60
80
80
F0
90
90
90
90
ENDCHAR
STARTCHAR 02B2
ENCODING 690
SWIDTH 250 0
DWIDTH 4 0
BBX 3 10 0 5
BITMAP
20
00
00
20
20
20
20
20
20
E0
ENDCHAR
STARTCHAR 02B3
ENCODING 691
SWIDTH 250 0
DWIDTH 4 0
BBX 3 5 1 7
BITMAP
E0
80
80
80
80
ENDCHAR
STARTCHAR 02B4
ENCODING 692
SWIDTH 250 0
DWIDTH 4 0
BBX 3 5 0 7
BITMAP
20
20
20
20
E0
ENDCHAR
STARTCHAR 02B5
ENCODING 693
SWIDTH 312 0
DWIDTH 5 0
BBX 5 7 0 5
BITMAP
20
20
20
20
E0
20
18
ENDCHAR
STARTCHAR 02B6
ENCODING 694
SWIDTH 375 0
DWIDTH 6 0
BBX 5 5 1 7
BITMAP
98
B0
E0
90
F0
ENDCHAR
STARTCHAR 02B7
ENCODING 695
SWIDTH 500 0
DWIDTH 8 0
BBX 7 5 0 7
BITMAP
92
94
74
54
48
ENDCHAR
STARTCHAR 02B8
ENCODING 696
SWIDTH 312 0
DWIDTH 5 0
BBX 5 7 0 5
BITMAP
88
50
50
70
20
20
40
ENDCHAR
STARTCHAR 02B9
ENCODING 697
SWIDTH 312 0
DWIDTH 5 0
BBX 3 5 1 7
BITMAP
60
40
40
C0
80
ENDCHAR
STARTCHAR 02BA
ENCODING 698
SWIDTH 500 0
DWIDTH 8 0
BBX 6 5 1 7
BITMAP
6C
48
48
D8
90
ENDCHAR
STARTCHAR 02BB
ENCODING 699
SWIDTH 312 0
DWIDTH 5 0
BBX 2 4 2 8
BITMAP
40
80
C0
C0
ENDCHAR
STARTCHAR 02BC
ENCODING 700
SWIDTH 312 0
DWIDTH 5 0
BBX 2 4 2 8
BITMAP
C0
C0
40
80
ENDCHAR
STARTCHAR 02BD
ENCODING 701
SWIDTH 312 0
DWIDTH 5 0
BBX 2 4 2 8
BITMAP
C0
C0
80
40
ENDCHAR
STARTCHAR 02BE
ENCODING 702
SWIDTH 312 0
DWIDTH 5 0
BBX 3 4 1 8
BITMAP
C0
20
20
C0
ENDCHAR
STARTCHAR 02BF
ENCODING 703
SWIDTH 312 0
DWIDTH 5 0
BBX 3 4 1 8
BITMAP
60
80
80
60
ENDCHAR
STARTCHAR 02C0
ENCODING 704
SWIDTH 312 0
DWIDTH 5 0
BBX 4 5 1 7
BITMAP
F0
10
10
60
40
ENDCHAR
STARTCHAR 02C1
ENCODING 705
SWIDTH 312 0
DWIDTH 5 0
BBX 4 5 1 7
BITMAP
F0
80
80
40
20
ENDCHAR
STARTCHAR 02C2
ENCODING 706
SWIDTH 375 0
DWIDTH 6 0
BBX 5 5 0 7
BITMAP
08
30
C0
30
08
ENDCHAR
STARTCHAR 02C3
ENCODING 707
SWIDTH 375 0
DWIDTH 6 0
BBX 5 5 1 7
BITMAP
80
60
18
60
80
ENDCHAR
STARTCHAR 02C4
ENCODING 708
SWIDTH 375 0
DWIDTH 6 0
BBX 5 5 1 7
BITMAP
20
20
50
50
88
ENDCHAR
STARTCHAR 02C5
ENCODING 709
SWIDTH 375 0
DWIDTH 6 0
BBX 5 5 1 7
BITMAP
88
50
50
20
20
ENDCHAR
STARTCHAR 02C6
ENCODING 710
SWIDTH 625 0
DWIDTH 10 0
BBX 5 3 2 10
BITMAP
70
50
88
ENDCHAR
STARTCHAR 02C7
ENCODING 711
SWIDTH 625 0
DWIDTH 10 0
BBX 5 3 2 10
BITMAP
88
50
70
ENDCHAR
STARTCHAR 02C8
ENCODING 712
SWIDTH 250 0
DWIDTH 4 0
BBX 1 5 1 7
BITMAP
80
80
80
80
80
ENDCHAR
STARTCHAR 02C9
ENCODING 713
SWIDTH 625 0
DWIDTH 10 0
BBX 5 1 2 10
BITMAP
F8
ENDCHAR
STARTCHAR 02CA
ENCODING 714
SWIDTH 625 0
DWIDTH 10 0
BBX 4 3 3 10
BITMAP
30
60
C0
ENDCHAR
STARTCHAR 02CB
ENCODING 715
SWIDTH 625 0
DWIDTH 10 0
BBX 4 3 3 10
BITMAP
C0
60
30
ENDCHAR
STARTCHAR 02CC
ENCODING 716
SWIDTH 250 0
DWIDTH 4 0
BBX 1 4 1 -3
BITMAP
80
80
80
80
ENDCHAR
STARTCHAR 02CD
ENCODING 717
SWIDTH 625 0
DWIDTH 10 0
BBX 5 1 2 -3
BITMAP
F8
ENDCHAR
STARTCHAR 02CE
ENCODING 718
SWIDTH 625 0
DWIDTH 10 0
BBX 4 3 3 -4
BITMAP
C0
60
30
ENDCHAR
STARTCHAR 02CF
ENCODING 719
SWIDTH 625 0
DWIDTH 10 0
BBX 4 3 3 -4
BITMAP
30
60
C0
ENDCHAR
STARTCHAR 02D0
ENCODING 720
SWIDTH 437 0
DWIDTH 7 0
BBX 3 9 2 0
BITMAP
E0
40
40
00
00
00
40
40
E0
ENDCHAR
STARTCHAR 02D1
ENCODING 721
SWIDTH 437 0
DWIDTH 7 0
BBX 3 3 2 5
BITMAP
E0
40
40
ENDCHAR
STARTCHAR 02D2
ENCODING 722
SWIDTH 312 0
DWIDTH 5 0
BBX 3 4 1 3
BITMAP
C0
20
20
C0
ENDCHAR
STARTCHAR 02D3
ENCODING 723
SWIDTH 312 0
DWIDTH 5 0
BBX 3 4 1 3
BITMAP
60
80
80
60
ENDCHAR
STARTCHAR 02D4
ENCODING 724
SWIDTH 500 0
DWIDTH 8 0
BBX 5 3 1 4
BITMAP
20
20
F8
ENDCHAR
STARTCHAR 02D5
ENCODING 725
SWIDTH 500 0
DWIDTH 8 0
BBX 5 3 1 4
BITMAP
F8
20
20
ENDCHAR
STARTCHAR 02D6
ENCODING 726
SWIDTH 500 0
DWIDTH 8 0
BBX 5 5 1 2
BITMAP
20
20
F8
20
20
ENDCHAR
STARTCHAR 02D7
ENCODING 727
SWIDTH 500 0
DWIDTH 8 0
BBX 5 3 1 3
BITMAP
88
F8
88
ENDCHAR
STARTCHAR 02D8
ENCODING 728
SWIDTH 625 0
DWIDTH 10 0
BBX 5 2 2 10
BITMAP
88
70
ENDCHAR
STARTCHAR 02D9
ENCODING 729
SWIDTH 625 0
DWIDTH 10 0
BBX 2 1 4 10
BITMAP
C0
ENDCHAR
STARTCHAR 02DA
ENCODING 730
SWIDTH 625 0
DWIDTH 10 0
BBX 4 4 3 10
BITMAP
60
90
90
60
ENDCHAR
STARTCHAR 02DB
ENCODING 731
SWIDTH 625 0
DWIDTH 10 0
BBX 3 2 4 -3
BITMAP
80
60
ENDCHAR
STARTCHAR 02DC
ENCODING 732
SWIDTH 625 0
DWIDTH 10 0
BBX 5 2 2 10
BITMAP
E8
B8
ENDCHAR
STARTCHAR 02DD
ENCODING 733
SWIDTH 625 0
DWIDTH 10 0
BBX 6 3 2 10
BITMAP
6C
48
90
ENDCHAR
STARTCHAR 02DE
ENCODING 734
SWIDTH 250 0
DWIDTH 4 0
BBX 5 5 -1 2
BITMAP
60
E0
20
20
18
ENDCHAR
STARTCHAR 02E0
ENCODING 736
SWIDTH 375 0
DWIDTH 6 0
BBX 6 7 0 5
BITMAP
C4
64
38
10
28
28
38
ENDCHAR
STARTCHAR 02E1
ENCODING 737
SWIDTH 187 0
DWIDTH 3 0
BBX 1 8 1 7
BITMAP
80
80
80
80
80
80
80
80
ENDCHAR
STARTCHAR 02E2
ENCODING 738
SWIDTH 375 0
DWIDTH 6 0
BBX 4 5 1 7
BITMAP
F0
80
60
10
F0
ENDCHAR
STARTCHAR 02E3
ENCODING 739
SWIDTH 437 0
DWIDTH 7 0
BBX 5 5 1 7
BITMAP
D8
50
20
50
D8
ENDCHAR
STARTCHAR 02E4
ENCODING 740
SWIDTH 312 0
DWIDTH 5 0
BBX 4 7 0 7
BITMAP
70
80
80
40
20
20
20
ENDCHAR
STARTCHAR 02E5
ENCODING 741
SWIDTH 437 0
DWIDTH 7 0
BBX 5 12 0 0
BITMAP
F8
08
08
08
08
08
08
08
08
08
08
08
ENDCHAR
STARTCHAR 02E6
ENCODING 742
SWIDTH 437 0
DWIDTH 7 0
BBX 5 12 0 0
BITMAP
08
08
08
F8
08
08
08
08
08
08
08
08
ENDCHAR
STARTCHAR 02E7
ENCODING 743
SWIDTH 437 0
DWIDTH 7 0
BBX 5 12 0 0
BITMAP
08
08
08
08
08
F8
08
08
08
08
08
08
ENDCHAR
STARTCHAR 02E8
ENCODING 744
SWIDTH 437 0
DWIDTH 7 0
BBX 5 12 0 0
BITMAP
08
08
08
08
08
08
08
08
F8
08
08
08
ENDCHAR
STARTCHAR 02E9
ENCODING 745
SWIDTH 437 0
DWIDTH 7 0
BBX 5 12 0 0
BITMAP
08
08
08
08
08
08
08
08
08
08
08
F8
ENDCHAR
STARTCHAR 0300
ENCODING 768
SWIDTH 0 0
DWIDTH 0 0
BBX 4 3 -7 10
BITMAP
C0
60
30
ENDCHAR
STARTCHAR 0301
ENCODING 769
SWIDTH 0 0
DWIDTH 0 0
BBX 4 3 -6 10
BITMAP
30
60
C0
ENDCHAR
STARTCHAR 0302
ENCODING 770
SWIDTH 0 0
DWIDTH 0 0
BBX 5 3 -8 10
BITMAP
70
50
88
ENDCHAR
STARTCHAR 0303
ENCODING 771
SWIDTH 0 0
DWIDTH 0 0
BBX 5 2 -8 10
BITMAP
E8
B8
ENDCHAR
STARTCHAR 0304
ENCODING 772
SWIDTH 0 0
DWIDTH 0 0
BBX 4 1 -7 10
BITMAP
F0
ENDCHAR
STARTCHAR 0305
ENCODING 773
SWIDTH 0 0
DWIDTH 0 0
BBX 10 1 -10 13
BITMAP
FFC0
ENDCHAR
STARTCHAR 0306
ENCODING 774
SWIDTH 0 0
DWIDTH 0 0
BBX 5 2 -8 10
BITMAP
88
70
ENDCHAR
STARTCHAR 0307
ENCODING 775
SWIDTH 0 0
DWIDTH 0 0
BBX 2 1 -6 11
BITMAP
C0
ENDCHAR
STARTCHAR 0308
ENCODING 776
SWIDTH 0 0
DWIDTH 0 0
BBX 5 1 -7 10
BITMAP
D8
ENDCHAR
STARTCHAR 0309
ENCODING 777
SWIDTH 0 0
DWIDTH 0 0
BBX 2 3 -6 10
BITMAP
C0
40
80
ENDCHAR
STARTCHAR 030A
ENCODING 778
SWIDTH 0 0
DWIDTH 0 0
BBX 4 4 -7 10
BITMAP
60
90
90
60
ENDCHAR
STARTCHAR 030B
ENCODING 779
SWIDTH 0 0
DWIDTH 0 0
BBX 6 3 -7 10
BITMAP
6C
48
90
ENDCHAR
STARTCHAR 030C
ENCODING 780
SWIDTH 0 0
DWIDTH 0 0
BBX 5 3 -8 10
BITMAP
88
50
70
ENDCHAR
STARTCHAR 030D
ENCODING 781
SWIDTH 0 0
DWIDTH 0 0
BBX 1 3 -5 10
BITMAP
80
80
80
ENDCHAR
STARTCHAR 030E
ENCODING 782
SWIDTH 0 0
DWIDTH 0 0
BBX 4 3 -7 10
BITMAP
90
90
90
ENDCHAR
STARTCHAR 030F
ENCODING 783
SWIDTH 0 0
DWIDTH 0 0
BBX 6 3 -9 10
BITMAP
D8
48
24
ENDCHAR
STARTCHAR 0310
ENCODING 784
SWIDTH 0 0
DWIDTH 0 0
BBX 5 5 -8 10
BITMAP
30
00
88
50
70
ENDCHAR
STARTCHAR 0311
ENCODING 785
SWIDTH 0 0
DWIDTH 0 0
BBX 5 2 -8 10
BITMAP
70
88
ENDCHAR
STARTCHAR 0312
ENCODING 786
SWIDTH 0 0
DWIDTH 0 0
BBX 2 4 -6 10
BITMAP
40
80
80
C0
ENDCHAR
STARTCHAR 0313
ENCODING 787
SWIDTH 0 0
DWIDTH 0 0
BBX 2 4 -6 10
BITMAP
C0
40
40
80
ENDCHAR
STARTCHAR 0314
ENCODING 788
SWIDTH 0 0
DWIDTH 0 0
BBX 2 4 -6 8
BITMAP
C0
80
80
40
ENDCHAR
STARTCHAR 0315
ENCODING 789
SWIDTH 0 0
DWIDTH 0 0
BBX 2 4 -2 10
BITMAP
C0
40
40
80
ENDCHAR
STARTCHAR 0316
ENCODING 790
SWIDTH 0 0
DWIDTH 0 0
BBX 4 3 -7 -4
BITMAP
C0
60
30
ENDCHAR
STARTCHAR 0317
ENCODING 791
SWIDTH 0 0
DWIDTH 0 0
BBX 4 3 -7 -4
BITMAP
30
60
C0
ENDCHAR
STARTCHAR 0318
ENCODING 792
SWIDTH 0 0
DWIDTH 0 0
BBX 3 5 -7 -5
BITMAP
20
20
E0
20
20
ENDCHAR
STARTCHAR 0319
ENCODING 793
SWIDTH 0 0
DWIDTH 0 0
BBX 3 5 -5 -5
BITMAP
80
80
E0
80
80
ENDCHAR
STARTCHAR 031A
ENCODING 794
SWIDTH 0 0
DWIDTH 0 0
BBX 4 3 -4 9
BITMAP
F0
10
10
ENDCHAR
STARTCHAR 031B
ENCODING 795
SWIDTH 0 0
DWIDTH 0 0
BBX 3 4 -3 8
BITMAP
20
20
20
C0
ENDCHAR
STARTCHAR 031C
ENCODING 796
SWIDTH 0 0
DWIDTH 0 0
BBX 2 4 -6 -5
BITMAP
40
80
80
40
ENDCHAR
STARTCHAR 031D
ENCODING 797
SWIDTH 0 0
DWIDTH 0 0
BBX 5 3 -7 -5
BITMAP
20
20
F8
ENDCHAR
STARTCHAR 031E
ENCODING 798
SWIDTH 0 0
DWIDTH 0 0
BBX 5 3 -7 -5
BITMAP
F8
20
20
ENDCHAR
STARTCHAR 031F
ENCODING 799
SWIDTH 0 0
DWIDTH 0 0
BBX 5 5 -7 -6
BITMAP
20
20
F8
20
20
ENDCHAR
STARTCHAR 0320
ENCODING 800
SWIDTH 0 0
DWIDTH 0 0
BBX 4 3 -7 -4
BITMAP
90
F0
90
ENDCHAR
STARTCHAR 0321
ENCODING 801
SWIDTH 0 0
DWIDTH 0 0
BBX 4 3 -4 -3
BITMAP
30
30
E0
ENDCHAR
STARTCHAR 0322
ENCODING 802
SWIDTH 0 0
DWIDTH 0 0
BBX 4 3 -4 -3
BITMAP
C0
C0
70
ENDCHAR
STARTCHAR 0323
ENCODING 803
SWIDTH 0 0
DWIDTH 0 0
BBX 2 1 -6 -3
BITMAP
C0
ENDCHAR
STARTCHAR 0324
ENCODING 804
SWIDTH 0 0
DWIDTH 0 0
BBX 5 1 -7 -3
BITMAP
D8
ENDCHAR
STARTCHAR 0325
ENCODING 805
SWIDTH 0 0
DWIDTH 0 0
BBX 4 4 -7 -5
BITMAP
60
90
90
60
ENDCHAR
STARTCHAR 0326
ENCODING 806
SWIDTH 0 0
DWIDTH 0 0
BBX 2 4 -6 -6
BITMAP
C0
40
40
80
ENDCHAR
STARTCHAR 0327
ENCODING 807
SWIDTH 0 0
DWIDTH 0 0
BBX 3 3 -6 -3
BITMAP
60
20
E0
ENDCHAR
STARTCHAR 0328
ENCODING 808
SWIDTH 0 0
DWIDTH 0 0
BBX 3 2 -6 -3
BITMAP
80
E0
ENDCHAR
STARTCHAR 0329
ENCODING 809
SWIDTH 0 0
DWIDTH 0 0
BBX 1 3 -5 -4
BITMAP
80
80
80
ENDCHAR
STARTCHAR 032A
ENCODING 810
SWIDTH 0 0
DWIDTH 0 0
BBX 4 3 -7 -4
BITMAP
F0
90
90
ENDCHAR
STARTCHAR 032B
ENCODING 811
SWIDTH 0 0
DWIDTH 0 0
BBX 7 2 -8 -4
BITMAP
92
6C
ENDCHAR
STARTCHAR 032C
ENCODING 812
SWIDTH 0 0
DWIDTH 0 0
BBX 5 3 -8 -5
BITMAP
88
50
70
ENDCHAR
STARTCHAR 032D
ENCODING 813
SWIDTH 0 0
DWIDTH 0 0
BBX 5 3 -8 -4
BITMAP
70
50
88
ENDCHAR
STARTCHAR 032E
ENCODING 814
SWIDTH 0 0
DWIDTH 0 0
BBX 5 2 -8 -4
BITMAP
88
70
ENDCHAR
STARTCHAR 032F
ENCODING 815
SWIDTH 0 0
DWIDTH 0 0
BBX 5 2 -8 -4
BITMAP
70
88
ENDCHAR
STARTCHAR 0330
ENCODING 816
SWIDTH 0 0
DWIDTH 0 0
BBX 5 2 -8 -3
BITMAP
E8
B8
ENDCHAR
STARTCHAR 0331
ENCODING 817
SWIDTH 0 0
DWIDTH 0 0
BBX 5 1 -7 -3
BITMAP
F8
ENDCHAR
STARTCHAR 0332
ENCODING 818
SWIDTH 0 0
DWIDTH 0 0
BBX 10 1 -10 -5
BITMAP
FFC0
ENDCHAR
STARTCHAR 0333
ENCODING 819
SWIDTH 0 0
DWIDTH 0 0
BBX 10 4 -10 -7
BITMAP
FFC0
0000
0000
FFC0
ENDCHAR
STARTCHAR 0334
ENCODING 820
SWIDTH 0 0
DWIDTH 0 0
BBX 8 3 -9 3
BITMAP
71
99
8E
ENDCHAR
STARTCHAR 0335
ENCODING 821
SWIDTH 0 0
DWIDTH 0 0
BBX 8 1 -9 4
BITMAP
FF
ENDCHAR
STARTCHAR 0336
ENCODING 822
SWIDTH 0 0
DWIDTH 0 0
BBX 10 1 -10 4
BITMAP
FFC0
ENDCHAR
STARTCHAR 0337
ENCODING 823
SWIDTH 0 0
DWIDTH 0 0
BBX 10 9 -10 0
BITMAP
00C0
0180
0300
0600
0C00
1800
3000
6000
C000
ENDCHAR
STARTCHAR 0338
ENCODING 824
SWIDTH 0 0
DWIDTH 0 0
BBX 8 15 -9 -2
BITMAP
01
02
02
04
04
08
08
18
10
10
20
20
40
40
80
ENDCHAR
STARTCHAR 0339
ENCODING 825
SWIDTH 0 0
DWIDTH 0 0
BBX 2 2 -6 -4
BITMAP
C0
C0
ENDCHAR
STARTCHAR 033A
ENCODING 826
SWIDTH 0 0
DWIDTH 0 0
BBX 4 3 -7 -4
BITMAP
90
90
F0
ENDCHAR
STARTCHAR 033B
ENCODING 827
SWIDTH 0 0
DWIDTH 0 0
BBX 4 3 -7 -5
BITMAP
F0
90
F0
ENDCHAR
STARTCHAR 033C
ENCODING 828
SWIDTH 0 0
DWIDTH 0 0
BBX 7 2 -8 -4
BITMAP
6C
92
ENDCHAR
STARTCHAR 033D
ENCODING 829
SWIDTH 0 0
DWIDTH 0 0
BBX 4 3 -7 10
BITMAP
F0
60
F0
ENDCHAR
STARTCHAR 033E
ENCODING 830
SWIDTH 0 0
DWIDTH 0 0
BBX 2 3 -6 10
BITMAP
80
C0
40
ENDCHAR
STARTCHAR 033F
ENCODING 831
SWIDTH 0 0
DWIDTH 0 0
BBX 10 4 -10 13
BITMAP
FFC0
0000
0000
FFC0
ENDCHAR
STARTCHAR 0340
ENCODING 832
SWIDTH 0 0
DWIDTH 0 0
BBX 4 3 -10 14
BITMAP
C0
60
30
ENDCHAR
STARTCHAR 0341
ENCODING 833
SWIDTH 0 0
DWIDTH 0 0
BBX 4 3 -4 14
BITMAP
30
60
C0
ENDCHAR
STARTCHAR 0344
ENCODING 836
SWIDTH 0 0
DWIDTH 0 0
BBX 8 3 -8 10
BITMAP
18
18
DB
ENDCHAR
STARTCHAR 0345
ENCODING 837
SWIDTH 0 0
DWIDTH 0 0
BBX 2 2 -5 -3
BITMAP
80
C0
ENDCHAR
STARTCHAR 0374
ENCODING 884
SWIDTH 312 0
DWIDTH 5 0
BBX 3 5 1 7
BITMAP
60
40
40
C0
80
ENDCHAR
STARTCHAR 0375
ENCODING 885
SWIDTH 312 0
DWIDTH 5 0
BBX 3 5 1 0
BITMAP
60
40
40
C0
80
ENDCHAR
STARTCHAR 037A
ENCODING 890
SWIDTH 625 0
DWIDTH 10 0
BBX 2 2 4 -3
BITMAP
80
C0
ENDCHAR
STARTCHAR 037E
ENCODING 894
SWIDTH 312 0
DWIDTH 5 0
BBX 2 11 2 -2
BITMAP
C0
00
00
00
00
00
00
00
C0
40
80
ENDCHAR
STARTCHAR 0384
ENCODING 900
SWIDTH 625 0
DWIDTH 10 0
BBX 2 3 4 9
BITMAP
C0
C0
C0
ENDCHAR
STARTCHAR 0385
ENCODING 901
SWIDTH 625 0
DWIDTH 10 0
BBX 8 3 2 10
BITMAP
18
18
DB
ENDCHAR
STARTCHAR 0386
ENCODING 902
SWIDTH 687 0
DWIDTH 11 0
BBX 11 12 0 0
BITMAP
C400
CC00
CE00
1600
1300
1300
2180
3F80
4180
40C0
40C0
8060
ENDCHAR
STARTCHAR 0388
ENCODING 904
SWIDTH 625 0
DWIDTH 10 0
BBX 11 12 0 0
BITMAP
CFE0
CC00
CC00
0C00
0C00
0FC0
0C00
0C00
0C00
0C00
0C00
0FE0
ENDCHAR
STARTCHAR 0389
ENCODING 905
SWIDTH 812 0
DWIDTH 13 0
BBX 13 12 0 0
BITMAP
CC18
CC18
CC18
0C18
0C18
0FF8
0C18
0C18
0C18
0C18
0C18
0C18
ENDCHAR
STARTCHAR 038A
ENCODING 906
SWIDTH 375 0
DWIDTH 6 0
BBX 6 12 0 0
BITMAP
CC
CC
CC
0C
0C
0C
0C
0C
0C
0C
0C
0C
ENDCHAR
STARTCHAR 038C
ENCODING 908
SWIDTH 875 0
DWIDTH 14 0
BBX 13 12 0 0
BITMAP
C7C0
DC70
D830
3018
3018
3018
3018
3018
3018
1830
1C70
07C0
ENDCHAR
STARTCHAR 038E
ENCODING 910
SWIDTH 812 0
DWIDTH 13 0
BBX 13 12 0 0
BITMAP
D808
C630
C220
0340
0140
0180
0180
0180
0180
0180
0180
0180
ENDCHAR
STARTCHAR 038F
ENCODING 911
SWIDTH 875 0
DWIDTH 14 0
BBX 13 12 0 0
BITMAP
C7C0
CC60
D830
3018
3018
3018
3018
3018
1010
1830
0C60
3C78
ENDCHAR
STARTCHAR 0390
ENCODING 912
SWIDTH 375 0
DWIDTH 6 0
BBX 8 14 -1 0
BITMAP
18
18
DB
00
00
18
18
18
18
18
18
18
18
0E
ENDCHAR
STARTCHAR 0391
ENCODING 913
SWIDTH 687 0
DWIDTH 11 0
BBX 11 12 0 0
BITMAP
0400
0C00
0E00
1600
1300
1300
2180
3F80
4180
40C0
40C0
8060
ENDCHAR
STARTCHAR 0392
ENCODING 914
SWIDTH 562 0
DWIDTH 9 0
BBX 7 12 2 0
BITMAP
F8
CC
C6
C6
CC
F8
CC
C6
C6
C6
CC
F8
ENDCHAR
STARTCHAR 0393
ENCODING 915
SWIDTH 500 0
DWIDTH 8 0
BBX 6 12 2 0
BITMAP
FC
C0
C0
C0
C0
C0
C0
C0
C0
C0
C0
C0
ENDCHAR
STARTCHAR 0394
ENCODING 916
SWIDTH 687 0
DWIDTH 11 0
BBX 11 12 0 0
BITMAP
0600
0E00
0A00
1B00
1100
3180
2180
20C0
60C0
4040
C060
FFE0
ENDCHAR
STARTCHAR 0395
ENCODING 917
SWIDTH 562 0
DWIDTH 9 0
BBX 7 12 2 0
BITMAP
FE
C0
C0
C0
C0
FC
C0
C0
C0
C0
C0
FE
ENDCHAR
STARTCHAR 0396
ENCODING 918
SWIDTH 625 0
DWIDTH 10 0
BBX 8 12 1 0
BITMAP
FF
03
06
0C
0C
18
18
30
60
60
C0
FF
ENDCHAR
STARTCHAR 0397
ENCODING 919
SWIDTH 750 0
DWIDTH 12 0
BBX 9 12 2 0
BITMAP
C180
C180
C180
C180
C180
FF80
C180
C180
C180
C180
C180
C180
ENDCHAR
STARTCHAR 0398
ENCODING 920
SWIDTH 750 0
DWIDTH 12 0
BBX 11 12 1 0
BITMAP
1F00
71C0
60C0
C060
C060
DF60
C060
C060
C060
60C0
71C0
1F00
ENDCHAR
STARTCHAR 0399
ENCODING 921
SWIDTH 312 0
DWIDTH 5 0
BBX 2 12 2 0
BITMAP
C0
C0
C0
C0
C0
C0
C0
C0
C0
C0
C0
C0
ENDCHAR
STARTCHAR 039A
ENCODING 922
SWIDTH 625 0
DWIDTH 10 0
BBX 9 12 2 0
BITMAP
C100
C200
C400
C800
D000
E000
F000
D800
CC00
C600
C300
C180
ENDCHAR
STARTCHAR 039B
ENCODING 923
SWIDTH 625 0
DWIDTH 10 0
BBX 10 12 0 0
BITMAP
0C00
0C00
1E00
1600
1600
2300
2300
2300
4180
4180
4180
80C0
ENDCHAR
STARTCHAR 039C
ENCODING 924
SWIDTH 875 0
DWIDTH 14 0
BBX 11 12 2 0
BITMAP
C0E0
C0E0
E0E0
E160
B160
B160
B160
9A60
9A60
8E60
8C60
8060
ENDCHAR
STARTCHAR 039D
ENCODING 925
SWIDTH 750 0
DWIDTH 12 0
BBX 9 12 2 0
BITMAP
C080
E080
E080
B080
B880
9880
8C80
8E80
8680
8380
8380
8180
ENDCHAR
STARTCHAR 039E
ENCODING 926
SWIDTH 625 0
DWIDTH 10 0
BBX 9 12 1 0
BITMAP
FF80
0000
0000
0000
0000
7F00
0000
0000
0000
0000
0000
FF80
ENDCHAR
STARTCHAR 039F
ENCODING 927
SWIDTH 750 0
DWIDTH 12 0
BBX 11 12 1 0
BITMAP
1F00
71C0
60C0
C060
C060
C060
C060
C060
C060
60C0
71C0
1F00
ENDCHAR
STARTCHAR 03A0
ENCODING 928
SWIDTH 750 0
DWIDTH 12 0
BBX 11 12 1 0
BITMAP
FFE0
60C0
60C0
60C0
60C0
60C0
60C0
60C0
60C0
60C0
60C0
60C0
ENDCHAR
STARTCHAR 03A1
ENCODING 929
SWIDTH 562 0
DWIDTH 9 0
BBX 7 12 2 0
BITMAP
FC
CE
C6
C6
C6
CC
F8
C0
C0
C0
C0
C0
ENDCHAR
STARTCHAR 03A3
ENCODING 931
SWIDTH 625 0
DWIDTH 10 0
BBX 9 12 0 0
BITMAP
FF80
E000
7000
3800
1C00
0E00
0C00
1800
3000
6000
C000
FF80
ENDCHAR
STARTCHAR 03A4
ENCODING 932
SWIDTH 625 0
DWIDTH 10 0
BBX 10 12 0 0
BITMAP
FFC0
0C00
0C00
0C00
0C00
0C00
0C00
0C00
0C00
0C00
0C00
0C00
ENDCHAR
STARTCHAR 03A5
ENCODING 933
SWIDTH 625 0
DWIDTH 10 0
BBX 10 12 0 0
BITMAP
C040
3180
1100
1A00
0A00
0C00
0C00
0C00
0C00
0C00
0C00
0C00
ENDCHAR
STARTCHAR 03A6
ENCODING 934
SWIDTH 687 0
DWIDTH 11 0
BBX 10 12 1 0
BITMAP
0C00
0C00
3F00
6D80
CCC0
CCC0
CCC0
CCC0
6D80
3F00
0C00
0C00
ENDCHAR
STARTCHAR 03A7
ENCODING 935
SWIDTH 625 0
DWIDTH 10 0
BBX 9 12 0 0
BITMAP
E080
6100
7200
3200
3C00
1C00
1C00
1E00
2600
2700
4300
8380
ENDCHAR
STARTCHAR 03A8
ENCODING 936
SWIDTH 750 0
DWIDTH 12 0
BBX 12 12 0 0
BITMAP
C630
6660
2640
2640
2640
36C0
1F80
0600
0600
0600
0600
0600
ENDCHAR
STARTCHAR 03A9
ENCODING 937
SWIDTH 812 0
DWIDTH 13 0
BBX 11 12 1 0
BITMAP
1F00
3180
60C0
C060
C060
C060
C060
C060
4040
60C0
3180
F1E0
ENDCHAR
STARTCHAR 03AA
ENCODING 938
SWIDTH 312 0
DWIDTH 5 0
BBX 5 14 1 0
BITMAP
D8
00
60
60
60
60
60
60
60
60
60
60
60
60
ENDCHAR
STARTCHAR 03AB
ENCODING 939
SWIDTH 625 0
DWIDTH 10 0
BBX 10 14 0 0
BITMAP
3600
0000
C040
3180
1100
1A00
0A00
0C00
0C00
0C00
0C00
0C00
0C00
0C00
ENDCHAR
STARTCHAR 03AC
ENCODING 940
SWIDTH 687 0
DWIDTH 11 0
BBX 10 14 1 0
BITMAP
0C00
0C00
0C00
0000
0000
38C0
6CC0
4480
C780
C300
C300
C500
ED80
70C0
ENDCHAR
STARTCHAR 03AD
ENCODING 941
SWIDTH 500 0
DWIDTH 8 0
BBX 7 14 1 0
BITMAP
0C
0C
0C
00
00
3E
60
C0
C0
FC
C0
C0
60
3E
ENDCHAR
STARTCHAR 03AE
ENCODING 942
SWIDTH 625 0
DWIDTH 10 0
BBX 8 17 1 -3
BITMAP
0C
0C
0C
00
00
CE
73
63
63
63
63
63
63
63
03
03
03
ENDCHAR
STARTCHAR 03AF
ENCODING 943
SWIDTH 375 0
DWIDTH 6 0
BBX 4 14 2 0
BITMAP
C0
C0
C0
00
00
C0
C0
C0
C0
C0
C0
C0
C0
70
ENDCHAR
STARTCHAR 03B0
ENCODING 944
SWIDTH 625 0
DWIDTH 10 0
BBX 8 14 1 0
BITMAP
18
18
DB
00
00
66
63
63
63
63
63
63
26
1C
ENDCHAR
STARTCHAR 03B1
ENCODING 945
SWIDTH 687 0
DWIDTH 11 0
BBX 10 9 1 0
BITMAP
38C0
6CC0
4480
C780
C300
C300
C500
ED80
70C0
ENDCHAR
STARTCHAR 03B2
ENCODING 946
SWIDTH 625 0
DWIDTH 10 0
BBX 7 15 2 -3
BITMAP
78
4C
CC
CC
C8
D8
CC
C6
C6
C6
CE
FC
C0
C0
C0
ENDCHAR
STARTCHAR 03B3
ENCODING 947
SWIDTH 562 0
DWIDTH 9 0
BBX 10 12 0 -3
BITMAP
C0C0
6180
3100
3300
1A00
1E00
0C00
0C00
0C00
0C00
0C00
0C00
ENDCHAR
STARTCHAR 03B4
ENCODING 948
SWIDTH 562 0
DWIDTH 9 0
BBX 8 12 1 0
BITMAP
7C
C0
C0
70
1C
66
C3
C3
C3
C3
66
3C
ENDCHAR
STARTCHAR 03B5
ENCODING 949
SWIDTH 500 0
DWIDTH 8 0
BBX 7 9 1 0
BITMAP
3E
60
C0
C0
FC
C0
C0
60
3E
ENDCHAR
STARTCHAR 03B6
ENCODING 950
SWIDTH 625 0
DWIDTH 10 0
BBX 9 15 1 -3
BITMAP
0180
8700
7E00
1800
3000
3000
6000
6000
6000
6000
3000
1F00
0080
0080
0F00
ENDCHAR
STARTCHAR 03B7
ENCODING 951
SWIDTH 625 0
DWIDTH 10 0
BBX 8 12 1 -3
BITMAP
CE
73
63
63
63
63
63
63
63
03
03
03
ENDCHAR
STARTCHAR 03B8
ENCODING 952
SWIDTH 625 0
DWIDTH 10 0
BBX 8 12 1 0
BITMAP
3C
66
42
C3
C3
FF
C3
C3
C3
42
66
3C
ENDCHAR
STARTCHAR 03B9
ENCODING 953
SWIDTH 375 0
DWIDTH 6 0
BBX 4 9 2 0
BITMAP
C0
C0
C0
C0
C0
C0
C0
C0
70
ENDCHAR
STARTCHAR 03BA
ENCODING 954
SWIDTH 562 0
DWIDTH 9 0
BBX 7 9 2 0
BITMAP
C2
C4
C8
D0
F0
F0
D8
CC
C6
ENDCHAR
STARTCHAR 03BB
ENCODING 955
SWIDTH 625 0
DWIDTH 10 0
BBX 9 12 1 0
BITMAP
6000
1000
1000
0800
0800
1C00
1C00
3200
3200
6100
6100
C080
ENDCHAR
STARTCHAR 03BC
ENCODING 956
SWIDTH 625 0
DWIDTH 10 0
BBX 7 11 2 -2
BITMAP
C6
C6
C6
C6
C6
C6
C6
EE
D6
C0
C0
ENDCHAR
STARTCHAR 03BD
ENCODING 957
SWIDTH 562 0
DWIDTH 9 0
BBX 8 9 1 0
BITMAP
C1
61
61
32
32
32
1C
1C
08
ENDCHAR
STARTCHAR 03BE
ENCODING 958
SWIDTH 562 0
DWIDTH 9 0
BBX 9 15 0 -2
BITMAP
8700
7E00
3000
3000
1800
1F00
3000
6000
6000
6000
3000
1F00
0080
0080
0F00
ENDCHAR
STARTCHAR 03BF
ENCODING 959
SWIDTH 625 0
DWIDTH 10 0
BBX 9 9 1 0
BITMAP
3E00
6300
C180
C180
C180
C180
C180
6300
3E00
ENDCHAR
STARTCHAR 03C0
ENCODING 960
SWIDTH 750 0
DWIDTH 12 0
BBX 11 9 1 0
BITMAP
FFE0
3180
3180
3180
3180
3180
3180
3180
30C0
ENDCHAR
STARTCHAR 03C1
ENCODING 961
SWIDTH 625 0
DWIDTH 10 0
BBX 8 12 2 -3
BITMAP
3C
66
C3
C3
C3
C3
C2
C6
FC
C0
C0
C0
ENDCHAR
STARTCHAR 03C2
ENCODING 962
SWIDTH 562 0
DWIDTH 9 0
BBX 8 12 1 -3
BITMAP
1E
30
60
C0
C0
C0
C0
60
3E
01
01
1E
ENDCHAR
STARTCHAR 03C3
ENCODING 963
SWIDTH 687 0
DWIDTH 11 0
BBX 11 9 1 0
BITMAP
3FE0
6300
C180
C180
C180
C180
C180
6300
3E00
ENDCHAR
STARTCHAR 03C4
ENCODING 964
SWIDTH 562 0
DWIDTH 9 0
BBX 8 9 1 0
BITMAP
FF
18
18
18
18
18
18
18
0C
ENDCHAR
STARTCHAR 03C5
ENCODING 965
SWIDTH 625 0
DWIDTH 10 0
BBX 7 9 2 0
BITMAP
CC
C6
C6
C6
C6
C6
C6
4C
38
ENDCHAR
STARTCHAR 03C6
ENCODING 966
SWIDTH 750 0
DWIDTH 12 0
BBX 10 15 1 -3
BITMAP
0C00
0C00
0C00
0C00
3F00
6D80
CCC0
CCC0
CCC0
CCC0
6D80
3F00
0C00
0C00
0C00
ENDCHAR
STARTCHAR 03C7
ENCODING 967
SWIDTH 562 0
DWIDTH 9 0
BBX 9 12 0 -3
BITMAP
E080
6100
3200
3200
1C00
1800
0C00
1C00
2600
2600
4300
8380
ENDCHAR
STARTCHAR 03C8
ENCODING 968
SWIDTH 812 0
DWIDTH 13 0
BBX 11 14 2 -3
BITMAP
0C00
0C00
CCC0
CC60
CC60
CC60
CC60
CC60
CCC0
6CC0
3F00
0C00
0C00
0C00
ENDCHAR
STARTCHAR 03C9
ENCODING 969
SWIDTH 875 0
DWIDTH 14 0
BBX 12 9 1 0
BITMAP
6060
C630
C630
C630
C630
C630
C630
6660
39C0
ENDCHAR
STARTCHAR 03CA
ENCODING 970
SWIDTH 375 0
DWIDTH 6 0
BBX 5 12 1 0
BITMAP
D8
00
00
60
60
60
60
60
60
60
60
38
ENDCHAR
STARTCHAR 03CB
ENCODING 971
SWIDTH 625 0
DWIDTH 10 0
BBX 7 12 2 0
BITMAP
6C
00
00
CC
C6
C6
C6
C6
C6
C6
4C
38
ENDCHAR
STARTCHAR 03CC
ENCODING 972
SWIDTH 625 0
DWIDTH 10 0
BBX 9 14 1 0
BITMAP
0C00
0C00
0C00
0000
0000
3E00
6300
C180
C180
C180
C180
C180
6300
3E00
ENDCHAR
STARTCHAR 03CD
ENCODING 973
SWIDTH 625 0
DWIDTH 10 0
BBX 7 14 2 0
BITMAP
18
18
18
00
00
CC
C6
C6
C6
C6
C6
C6
4C
38
ENDCHAR
STARTCHAR 03CE
ENCODING 974
SWIDTH 875 0
DWIDTH 14 0
BBX 12 14 1 0
BITMAP
0600
0600
0600
0000
0000
6060
C630
C630
C630
C630
C630
C630
6660
39C0
ENDCHAR
STARTCHAR 03D0
ENCODING 976
SWIDTH 500 0
DWIDTH 8 0
BBX 7 12 1 0
BITMAP
1C
26
66
FC
C0
C0
DC
E6
C6
C6
64
38
ENDCHAR
STARTCHAR 03D1
ENCODING 977
SWIDTH 625 0
DWIDTH 10 0
BBX 9 12 2 0
BITMAP
3800
6C00
C400
C600
C600
7F80
0600
0600
0600
C400
CC00
7800
ENDCHAR
STARTCHAR 03D2
ENCODING 978
SWIDTH 625 0
DWIDTH 10 0
BBX 10 12 0 0
BITMAP
C0C0
6100
3200
1A00
1C00
0C00
0C00
0C00
0C00
0C00
0C00
0C00
ENDCHAR
STARTCHAR 03D3
ENCODING 979
SWIDTH 812 0
DWIDTH 13 0
BBX 13 12 0 0
BITMAP
CC18
C420
C640
0340
0380
0180
0180
0180
0180
0180
0180
0180
ENDCHAR
STARTCHAR 03D4
ENCODING 980
SWIDTH 625 0
DWIDTH 10 0
BBX 10 14 0 0
BITMAP
1B00
0000
C0C0
6100
3200
1A00
1C00
0C00
0C00
0C00
0C00
0C00
0C00
0C00
ENDCHAR
STARTCHAR 03D5
ENCODING 981
SWIDTH 875 0
DWIDTH 14 0
BBX 12 12 1 -3
BITMAP
39C0
6F60
C630
C630
C630
C630
6660
6660
1F80
0600
0600
0600
ENDCHAR
STARTCHAR 03D6
ENCODING 982
SWIDTH 875 0
DWIDTH 14 0
BBX 14 9 0 0
BITMAP
FFFC
3030
6318
6318
6318
6318
6318
3330
1CE0
ENDCHAR
STARTCHAR 03DA
ENCODING 986
SWIDTH 687 0
DWIDTH 11 0
BBX 9 15 2 -3
BITMAP
0F80
1800
3000
6000
C000
C000
C000
C000
C000
C000
6000
3F00
0080
0080
0F00
ENDCHAR
STARTCHAR 03DC
ENCODING 988
SWIDTH 562 0
DWIDTH 9 0
BBX 6 12 2 0
BITMAP
FC
C0
C0
C0
C0
F8
C0
C0
C0
C0
C0
C0
ENDCHAR
STARTCHAR 03DE
ENCODING 990
SWIDTH 562 0
DWIDTH 9 0
BBX 8 12 1 0
BITMAP
10
20
20
40
40
FF
02
02
04
04
04
08
ENDCHAR
STARTCHAR 03E0
ENCODING 992
SWIDTH 625 0
DWIDTH 10 0
BBX 9 12 0 0
BITMAP
E000
1800
0400
0E00
1900
3100
4380
0680
0C80
1080
0080
0080
ENDCHAR
STARTCHAR 03EE
ENCODING 1006
SWIDTH 625 0
DWIDTH 10 0
BBX 10 12 0 0
BITMAP
0C00
0C00
FFC0
0C00
0C00
0C00
0C00
0C00
0C00
0C00
0C00
0C00
ENDCHAR
STARTCHAR 03EF
ENCODING 1007
SWIDTH 562 0
DWIDTH 9 0
BBX 8 15 1 -3
BITMAP
18
18
18
FF
18
18
18
18
18
18
18
18
18
18
18
ENDCHAR
STARTCHAR 03F0
ENCODING 1008
SWIDTH 562 0
DWIDTH 9 0
BBX 7 9 1 0
BITMAP
C6
26
2C
28
38
28
68
E8
C6
ENDCHAR
STARTCHAR 03F1
ENCODING 1009
SWIDTH 625 0
DWIDTH 10 0
BBX 7 12 1 -3
BITMAP
3C
6E
C6
C6
C6
C6
CC
F8
C0
40
60
3E
ENDCHAR
STARTCHAR 03F2
ENCODING 1010
SWIDTH 500 0
DWIDTH 8 0
BBX 7 9 1 0
BITMAP
3E
60
C0
C0
C0
C0
C0
60
3E
ENDCHAR
STARTCHAR 0401
ENCODING 1025
SWIDTH 562 0
DWIDTH 9 0
BBX 7 14 2 0
BITMAP
6C
00
FE
C0
C0
C0
C0
FC
C0
C0
C0
C0
C0
FE
ENDCHAR
STARTCHAR 0402
ENCODING 1026
SWIDTH 812 0
DWIDTH 13 0
BBX 12 12 0 0
BITMAP
FFC0
0C00
0C00
0C00
0DC0
0E60
0C30
0C30
0C30
0C30
0C60
0DC0
ENDCHAR
STARTCHAR 0403
ENCODING 1027
SWIDTH 500 0
DWIDTH 8 0
BBX 6 16 2 0
BITMAP
18
30
60
00
FC
C0
C0
C0
C0
C0
C0
C0
C0
C0
C0
C0
ENDCHAR
STARTCHAR 0404
ENCODING 1028
SWIDTH 625 0
DWIDTH 10 0
BBX 8 12 1 0
BITMAP
1F
30
60
C0
C0
FC
C0
C0
C0
60
30
1F
ENDCHAR
STARTCHAR 0405
ENCODING 1029
SWIDTH 562 0
DWIDTH 9 0
BBX 7 12 1 0
BITMAP
3C
60
C0
C0
E0
78
1C
0E
06
06
8C
78
ENDCHAR
STARTCHAR 0406
ENCODING 1030
SWIDTH 312 0
DWIDTH 5 0
BBX 2 12 2 0
BITMAP
C0
C0
C0
C0
C0
C0
C0
C0
C0
C0
C0
C0
ENDCHAR
STARTCHAR 0407
ENCODING 1031
SWIDTH 312 0
DWIDTH 5 0
BBX 5 14 1 0
BITMAP
D8
00
60
60
60
60
60
60
60
60
60
60
60
60
ENDCHAR
STARTCHAR 0408
ENCODING 1032
SWIDTH 312 0
DWIDTH 5 0
BBX 5 14 -1 -2
BITMAP
18
18
18
18
18
18
18
18
18
18
18
18
18
F0
ENDCHAR
STARTCHAR 0409
ENCODING 1033
SWIDTH 1000 0
DWIDTH 16 0
BBX 15 12 0 0
BITMAP
1FC0
18C0
18C0
18C0
18C0
18FC
18CE
18C6
10C6
30C6
60CC
C0F8
ENDCHAR
STARTCHAR 040A
ENCODING 1034
SWIDTH 937 0
DWIDTH 15 0
BBX 13 12 2 0
BITMAP
C300
C300
C300
C300
C300
FFF0
C338
C318
C318
C318
C330
C3E0
ENDCHAR
STARTCHAR 040B
ENCODING 1035
SWIDTH 750 0
DWIDTH 12 0
BBX 11 12 0 0
BITMAP
FF00
1800
1800
1800
1BC0
1C60
1860
1860
1860
1860
1860
1860
ENDCHAR
STARTCHAR 040C
ENCODING 1036
SWIDTH 562 0
DWIDTH 9 0
BBX 8 16 2 0
BITMAP
06
0C
18
00
C3
C6
C4
CC
D8
F0
D8
CC
CC
C6
C6
C3
ENDCHAR
STARTCHAR 040E
ENCODING 1038
SWIDTH 625 0
DWIDTH 10 0
BBX 10 15 1 0
BITMAP
1100
0E00
0000
C040
6080
6080
3100
3100
1A00
1A00
0C00
0800
0800
1000
6000
ENDCHAR
STARTCHAR 040F
ENCODING 1039
SWIDTH 750 0
DWIDTH 12 0
BBX 8 14 2 -2
BITMAP
C3
C3
C3
C3
C3
C3
C3
C3
C3
C3
C3
FF
18
18
ENDCHAR
STARTCHAR 0410
ENCODING 1040
SWIDTH 687 0
DWIDTH 11 0
BBX 11 12 0 0
BITMAP
0400
0C00
0E00
1600
1300
1300
2180
3F80
4180
40C0
40C0
8060
ENDCHAR
STARTCHAR 0411
ENCODING 1041
SWIDTH 562 0
DWIDTH 9 0
BBX 7 12 2 0
BITMAP
FC
C0
C0
C0
C0
FC
CE
C6
C6
C6
CC
F8
ENDCHAR
STARTCHAR 0412
ENCODING 1042
SWIDTH 562 0
DWIDTH 9 0
BBX 7 12 2 0
BITMAP
F8
CC
C6
C6
CC
F8
CC
C6
C6
C6
CC
F8
ENDCHAR
STARTCHAR 0413
ENCODING 1043
SWIDTH 500 0
DWIDTH 8 0
BBX 6 12 2 0
BITMAP
FC
C0
C0
C0
C0
C0
C0
C0
C0
C0
C0
C0
ENDCHAR
STARTCHAR 0414
ENCODING 1044
SWIDTH 750 0
DWIDTH 12 0
BBX 12 14 1 -2
BITMAP
1FC0
18C0
18C0
18C0
18C0
18C0
10C0
30C0
30C0
30C0
60C0
FFF0
C030
C030
ENDCHAR
STARTCHAR 0415
ENCODING 1045
SWIDTH 562 0
DWIDTH 9 0
BBX 7 12 2 0
BITMAP
FE
C0
C0
C0
C0
FC
C0
C0
C0
C0
C0
FE
ENDCHAR
STARTCHAR 0416
ENCODING 1046
SWIDTH 812 0
DWIDTH 13 0
BBX 12 12 0 0
BITMAP
8610
4620
6660
2640
1680
1F80
36C0
2640
6660
6660
4620
C630
ENDCHAR
STARTCHAR 0417
ENCODING 1047
SWIDTH 562 0
DWIDTH 9 0
BBX 7 12 1 0
BITMAP
7C
86
06
06
0C
38
0C
06
06
06
8C
78
ENDCHAR
STARTCHAR 0418
ENCODING 1048
SWIDTH 750 0
DWIDTH 12 0
BBX 9 12 2 0
BITMAP
8180
8380
8380
8680
8E80
8C80
9880
B880
B080
E080
E080
C080
ENDCHAR
STARTCHAR 0419
ENCODING 1049
SWIDTH 750 0
DWIDTH 12 0
BBX 9 15 2 0
BITMAP
2200
1C00
0000
8180
8380
8380
8680
8E80
8C80
9880
B880
B080
E080
E080
C080
ENDCHAR
STARTCHAR 041A
ENCODING 1050
SWIDTH 562 0
DWIDTH 9 0
BBX 8 12 2 1
BITMAP
C3
C6
C4
CC
D8
F0
D8
CC
CC
C6
C6
C3
ENDCHAR
STARTCHAR 041B
ENCODING 1051
SWIDTH 687 0
DWIDTH 11 0
BBX 9 12 0 0
BITMAP
1F80
1980
1980
1980
1980
1980
1980
1980
1180
3180
6180
C180
ENDCHAR
STARTCHAR 041C
ENCODING 1052
SWIDTH 875 0
DWIDTH 14 0
BBX 11 12 2 0
BITMAP
C0E0
C0E0
E0E0
E160
B160
B160
B160
9A60
9A60
8E60
8C60
8060
ENDCHAR
STARTCHAR 041D
ENCODING 1053
SWIDTH 750 0
DWIDTH 12 0
BBX 9 12 2 0
BITMAP
C180
C180
C180
C180
C180
FF80
C180
C180
C180
C180
C180
C180
ENDCHAR
STARTCHAR 041E
ENCODING 1054
SWIDTH 750 0
DWIDTH 12 0
BBX 11 12 1 0
BITMAP
1F00
71C0
60C0
C060
C060
C060
C060
C060
C060
60C0
71C0
1F00
ENDCHAR
STARTCHAR 041F
ENCODING 1055
SWIDTH 750 0
DWIDTH 12 0
BBX 9 12 2 0
BITMAP
FF80
C180
C180
C180
C180
C180
C180
C180
C180
C180
C180
C180
ENDCHAR
STARTCHAR 0420
ENCODING 1056
SWIDTH 562 0
DWIDTH 9 0
BBX 7 12 2 0
BITMAP
FC
CE
C6
C6
C6
CC
F8
C0
C0
C0
C0
C0
ENDCHAR
STARTCHAR 0421
ENCODING 1057
SWIDTH 687 0
DWIDTH 11 0
BBX 9 12 1 0
BITMAP
1F00
3080
6000
C000
C000
C000
C000
C000
C000
6000
7080
1F00
ENDCHAR
STARTCHAR 0422
ENCODING 1058
SWIDTH 625 0
DWIDTH 10 0
BBX 10 12 0 0
BITMAP
FFC0
0C00
0C00
0C00
0C00
0C00
0C00
0C00
0C00
0C00
0C00
0C00
ENDCHAR
STARTCHAR 0423
ENCODING 1059
SWIDTH 625 0
DWIDTH 10 0
BBX 10 12 1 0
BITMAP
C040
6080
6080
3100
3100
1A00
1A00
0C00
0800
0800
1000
6000
ENDCHAR
STARTCHAR 0424
ENCODING 1060
SWIDTH 687 0
DWIDTH 11 0
BBX 10 12 1 0
BITMAP
0C00
0C00
3F00
6D80
CCC0
CCC0
CCC0
CCC0
6D80
3F00
0C00
0C00
ENDCHAR
STARTCHAR 0425
ENCODING 1061
SWIDTH 625 0
DWIDTH 10 0
BBX 9 12 0 0
BITMAP
E080
6100
7200
3200
3C00
1C00
1C00
1E00
2600
2700
4300
8380
ENDCHAR
STARTCHAR 0426
ENCODING 1062
SWIDTH 750 0
DWIDTH 12 0
BBX 11 14 2 -2
BITMAP
C180
C180
C180
C180
C180
C180
C180
C180
C180
C180
C180
FFE0
0060
0060
ENDCHAR
STARTCHAR 0427
ENCODING 1063
SWIDTH 625 0
DWIDTH 10 0
BBX 7 12 2 0
BITMAP
C6
C6
C6
C6
C6
C6
C6
7E
06
06
06
06
ENDCHAR
STARTCHAR 0428
ENCODING 1064
SWIDTH 937 0
DWIDTH 15 0
BBX 12 12 2 0
BITMAP
C630
C630
C630
C630
C630
C630
C630
C630
C630
C630
C630
FFF0
ENDCHAR
STARTCHAR 0429
ENCODING 1065
SWIDTH 1000 0
DWIDTH 16 0
BBX 14 14 2 -2
BITMAP
C630
C630
C630
C630
C630
C630
C630
C630
C630
C630
C630
FFFC
000C
000C
ENDCHAR
STARTCHAR 042A
ENCODING 1066
SWIDTH 687 0
DWIDTH 11 0
BBX 10 12 0 0
BITMAP
F800
1800
1800
1800
1800
1F80
19C0
18C0
18C0
18C0
1980
1F00
ENDCHAR
STARTCHAR 042B
ENCODING 1067
SWIDTH 812 0
DWIDTH 13 0
BBX 10 12 2 0
BITMAP
C0C0
C0C0
C0C0
C0C0
C0C0
F8C0
CCC0
C6C0
C6C0
C6C0
CCC0
F8C0
ENDCHAR
STARTCHAR 042C
ENCODING 1068
SWIDTH 562 0
DWIDTH 9 0
BBX 7 12 2 0
BITMAP
C0
C0
C0
C0
C0
FC
CE
C6
C6
C6
CC
F8
ENDCHAR
STARTCHAR 042D
ENCODING 1069
SWIDTH 625 0
DWIDTH 10 0
BBX 8 12 1 0
BITMAP
78
8C
06
03
03
3F
03
03
03
06
0C
F8
ENDCHAR
STARTCHAR 042E
ENCODING 1070
SWIDTH 937 0
DWIDTH 15 0
BBX 14 12 1 0
BITMAP
C1E0
C230
C618
CC0C
CC0C
FC0C
CC0C
CC0C
CC0C
C618
C210
C1E0
ENDCHAR
STARTCHAR 042F
ENCODING 1071
SWIDTH 625 0
DWIDTH 10 0
BBX 8 12 1 0
BITMAP
1F
33
63
63
63
33
1F
1B
33
33
63
C3
ENDCHAR
STARTCHAR 0430
ENCODING 1072
SWIDTH 562 0
DWIDTH 9 0
BBX 8 9 1 0
BITMAP
3C
46
06
06
3E
E6
C6
C6
7B
ENDCHAR
STARTCHAR 0431
ENCODING 1073
SWIDTH 625 0
DWIDTH 10 0
BBX 8 12 1 0
BITMAP
3E
60
40
DE
E6
C3
C3
C3
C3
C3
66
3C
ENDCHAR
STARTCHAR 0432
ENCODING 1074
SWIDTH 500 0
DWIDTH 8 0
BBX 6 9 2 0
BITMAP
F8
CC
CC
C8
F0
C8
CC
CC
F8
ENDCHAR
STARTCHAR 0433
ENCODING 1075
SWIDTH 500 0
DWIDTH 8 0
BBX 6 9 2 0
BITMAP
FC
C0
C0
C0
C0
C0
C0
C0
C0
ENDCHAR
STARTCHAR 0434
ENCODING 1076
SWIDTH 687 0
DWIDTH 11 0
BBX 10 11 1 -2
BITMAP
3F00
3300
3300
3300
3300
3300
6300
6300
FFC0
C0C0
C0C0
ENDCHAR
STARTCHAR 0435
ENCODING 1077
SWIDTH 625 0
DWIDTH 10 0
BBX 8 9 1 0
BITMAP
3C
66
C3
C3
FF
C0
C0
60
3F
ENDCHAR
STARTCHAR 0436
ENCODING 1078
SWIDTH 750 0
DWIDTH 12 0
BBX 12 9 0 0
BITMAP
4620
2640
2640
1680
1F80
36C0
6660
6660
C630
ENDCHAR
STARTCHAR 0437
ENCODING 1079
SWIDTH 500 0
DWIDTH 8 0
BBX 6 9 1 0
BITMAP
78
8C
0C
0C
30
0C
0C
8C
78
ENDCHAR
STARTCHAR 0438
ENCODING 1080
SWIDTH 625 0
DWIDTH 10 0
BBX 7 9 2 0
BITMAP
C6
C6
CE
CE
D6
E6
E6
C6
C6
ENDCHAR
STARTCHAR 0439
ENCODING 1081
SWIDTH 625 0
DWIDTH 10 0
BBX 7 13 2 0
BITMAP
44
38
00
00
C6
C6
CE
CE
D6
E6
E6
C6
C6
ENDCHAR
STARTCHAR 043A
ENCODING 1082
SWIDTH 562 0
DWIDTH 9 0
BBX 7 9 2 0
BITMAP
C2
C4
C8
C8
F0
D8
CC
CC
C6
ENDCHAR
STARTCHAR 043B
ENCODING 1083
SWIDTH 562 0
DWIDTH 9 0
BBX 8 9 0 0
BITMAP
3F
33
33
33
33
33
63
E3
C3
ENDCHAR
STARTCHAR 043C
ENCODING 1084
SWIDTH 750 0
DWIDTH 12 0
BBX 9 9 2 0
BITMAP
E180
E380
E380
F380
D580
D580
DD80
C980
C180
ENDCHAR
STARTCHAR 043D
ENCODING 1085
SWIDTH 625 0
DWIDTH 10 0
BBX 7 9 2 0
BITMAP
C6
C6
C6
C6
FE
C6
C6
C6
C6
ENDCHAR
STARTCHAR 043E
ENCODING 1086
SWIDTH 625 0
DWIDTH 10 0
BBX 8 9 1 0
BITMAP
3C
66
C3
C3
C3
C3
C3
66
3C
ENDCHAR
STARTCHAR 043F
ENCODING 1087
SWIDTH 625 0
DWIDTH 10 0
BBX 7 9 2 0
BITMAP
FE
C6
C6
C6
C6
C6
C6
C6
C6
ENDCHAR
STARTCHAR 0440
ENCODING 1088
SWIDTH 625 0
DWIDTH 10 0
BBX 8 12 1 -3
BITMAP
DC
E6
C3
C3
C3
C3
C3
E6
DC
C0
C0
C0
ENDCHAR
STARTCHAR 0441
ENCODING 1089
SWIDTH 500 0
DWIDTH 8 0
BBX 7 9 1 0
BITMAP
3E
60
C0
C0
C0
C0
C0
60
3E
ENDCHAR
STARTCHAR 0442
ENCODING 1090
SWIDTH 500 0
DWIDTH 8 0
BBX 8 9 0 0
BITMAP
FF
18
18
18
18
18
18
18
18
ENDCHAR
STARTCHAR 0443
ENCODING 1091
SWIDTH 500 0
DWIDTH 8 0
BBX 8 12 0 -3
BITMAP
C1
62
62
72
34
34
1C
18
08
10
10
60
ENDCHAR
STARTCHAR 0444
ENCODING 1092
SWIDTH 812 0
DWIDTH 13 0
BBX 12 15 1 -3
BITMAP
0600
0600
0600
3FC0
6660
C630
C630
C630
C630
C630
6660
3FC0
0600
0600
0600
ENDCHAR
STARTCHAR 0445
ENCODING 1093
SWIDTH 625 0
DWIDTH 10 0
BBX 8 9 1 0
BITMAP
E1
62
34
3C
18
3C
2C
46
87
ENDCHAR
STARTCHAR 0446
ENCODING 1094
SWIDTH 687 0
DWIDTH 11 0
BBX 9 11 2 -2
BITMAP
C600
C600
C600
C600
C600
C600
C600
C600
FF80
0180
0180
ENDCHAR
STARTCHAR 0447
ENCODING 1095
SWIDTH 500 0
DWIDTH 8 0
BBX 6 9 1 0
BITMAP
CC
CC
CC
CC
CC
7C
0C
0C
0C
ENDCHAR
STARTCHAR 0448
ENCODING 1096
SWIDTH 875 0
DWIDTH 14 0
BBX 10 9 2 0
BITMAP
CCC0
CCC0
CCC0
CCC0
CCC0
CCC0
CCC0
CCC0
FFC0
ENDCHAR
STARTCHAR 0449
ENCODING 1097
SWIDTH 875 0
DWIDTH 14 0
BBX 12 11 2 -2
BITMAP
CCC0
CCC0
CCC0
CCC0
CCC0
CCC0
CCC0
CCC0
FFF0
0030
0030
ENDCHAR
STARTCHAR 044A
ENCODING 1098
SWIDTH 562 0
DWIDTH 9 0
BBX 8 9 0 0
BITMAP
F0
30
30
30
3E
33
33
33
3E
ENDCHAR
STARTCHAR 044B
ENCODING 1099
SWIDTH 750 0
DWIDTH 12 0
BBX 9 9 2 0
BITMAP
C180
C180
C180
C180
F980
CD80
CD80
CD80
F980
ENDCHAR
STARTCHAR 044C
ENCODING 1100
SWIDTH 500 0
DWIDTH 8 0
BBX 6 9 2 0
BITMAP
C0
C0
C0
C0
F8
CC
CC
CC
F8
ENDCHAR
STARTCHAR 044D
ENCODING 1101
SWIDTH 500 0
DWIDTH 8 0
BBX 7 9 1 0
BITMAP
F8
0C
06
06
3E
06
06
0C
F8
ENDCHAR
STARTCHAR 044E
ENCODING 1102
SWIDTH 812 0
DWIDTH 13 0
BBX 10 9 2 0
BITMAP
C700
CD80
D8C0
D8C0
F8C0
D8C0
D8C0
CD80
C700
ENDCHAR
STARTCHAR 044F
ENCODING 1103
SWIDTH 500 0
DWIDTH 8 0
BBX 7 9 0 0
BITMAP
3E
66
66
66
1E
36
66
66
C6
ENDCHAR
STARTCHAR 0451
ENCODING 1105
SWIDTH 625 0
DWIDTH 10 0
BBX 8 12 1 0
BITMAP
36
00
00
3C
66
C3
C3
FF
C0
C0
60
3F
ENDCHAR
STARTCHAR 0452
ENCODING 1106
SWIDTH 625 0
DWIDTH 10 0
BBX 9 15 0 -3
BITMAP
3000
3000
FE00
3000
3000
3700
3980
3180
3180
3180
3180
3180
0180
0180
0700
ENDCHAR
STARTCHAR 0453
ENCODING 1107
SWIDTH 500 0
DWIDTH 8 0
BBX 6 14 2 0
BITMAP
18
30
60
00
00
FC
C0
C0
C0
C0
C0
C0
C0
C0
ENDCHAR
STARTCHAR 0454
ENCODING 1108
SWIDTH 500 0
DWIDTH 8 0
BBX 7 9 1 0
BITMAP
3E
60
C0
C0
F8
C0
C0
60
3E
ENDCHAR
STARTCHAR 0455
ENCODING 1109
SWIDTH 500 0
DWIDTH 8 0
BBX 6 9 1 0
BITMAP
78
C0
C0
E0
78
1C
0C
8C
78
ENDCHAR
STARTCHAR 0456
ENCODING 1110
SWIDTH 312 0
DWIDTH 5 0
BBX 2 12 2 0
BITMAP
C0
00
00
C0
C0
C0
C0
C0
C0
C0
C0
C0
ENDCHAR
STARTCHAR 0457
ENCODING 1111
SWIDTH 312 0
DWIDTH 5 0
BBX 5 12 1 0
BITMAP
D8
00
00
60
60
60
60
60
60
60
60
60
ENDCHAR
STARTCHAR 0458
ENCODING 1112
SWIDTH 312 0
DWIDTH 5 0
BBX 5 15 -1 -3
BITMAP
18
00
00
18
18
18
18
18
18
18
18
18
18
18
F0
ENDCHAR
STARTCHAR 0459
ENCODING 1113
SWIDTH 812 0
DWIDTH 13 0
BBX 12 9 0 0
BITMAP
3F00
3300
3300
3300
33E0
3330
6330
6330
C3E0
ENDCHAR
STARTCHAR 045A
ENCODING 1114
SWIDTH 812 0
DWIDTH 13 0
BBX 11 9 2 0
BITMAP
C600
C600
C600
C600
FFC0
C660
C660
C660
C7C0
ENDCHAR
STARTCHAR 045B
ENCODING 1115
SWIDTH 625 0
DWIDTH 10 0
BBX 9 12 0 0
BITMAP
3000
3000
FE00
3000
3000
3700
3980
3180
3180
3180
3180
3180
ENDCHAR
STARTCHAR 045C
ENCODING 1116
SWIDTH 562 0
DWIDTH 9 0
BBX 7 14 2 0
BITMAP
0C
18
30
00
00
C2
C4
C8
C8
F0
D8
CC
CC
C6
ENDCHAR
STARTCHAR 045E
ENCODING 1118
SWIDTH 500 0
DWIDTH 8 0
BBX 8 16 0 -3
BITMAP
22
1C
00
00
C1
62
62
72
34
34
1C
18
08
10
10
60
ENDCHAR
STARTCHAR 045F
ENCODING 1119
SWIDTH 625 0
DWIDTH 10 0
BBX 8 11 2 -2
BITMAP
C3
C3
C3
C3
C3
C3
C3
C3
FF
18
18
ENDCHAR
STARTCHAR 0462
ENCODING 1122
SWIDTH 687 0
DWIDTH 11 0
BBX 10 12 0 0
BITMAP
1800
1800
FF00
1800
1800
1800
1F80
19C0
18C0
18C0
19C0
1F00
ENDCHAR
STARTCHAR 0463
ENCODING 1123
SWIDTH 562 0
DWIDTH 9 0
BBX 8 12 0 0
BITMAP
30
30
30
FC
30
30
30
3E
33
33
33
3E
ENDCHAR
STARTCHAR 046A
ENCODING 1130
SWIDTH 812 0
DWIDTH 13 0
BBX 12 12 0 0
BITMAP
7FE0
4020
2040
1080
0900
1F80
36C0
2640
6660
6660
4620
C630
ENDCHAR
STARTCHAR 046B
ENCODING 1131
SWIDTH 687 0
DWIDTH 11 0
BBX 10 9 0 0
BITMAP
7F80
7080
3100
1A00
1E00
2D00
6D80
6D80
CCC0
ENDCHAR
STARTCHAR 0490
ENCODING 1168
SWIDTH 500 0
DWIDTH 8 0
BBX 6 14 2 0
BITMAP
0C
0C
FC
C0
C0
C0
C0
C0
C0
C0
C0
C0
C0
C0
ENDCHAR
STARTCHAR 0491
ENCODING 1169
SWIDTH 500 0
DWIDTH 8 0
BBX 6 11 2 0
BITMAP
0C
0C
FC
C0
C0
C0
C0
C0
C0
C0
C0
ENDCHAR
STARTCHAR 0492
ENCODING 1170
SWIDTH 562 0
DWIDTH 9 0
BBX 8 12 1 0
BITMAP
3F
30
30
30
30
FC
30
30
30
30
30
30
ENDCHAR
STARTCHAR 0493
ENCODING 1171
SWIDTH 500 0
DWIDTH 8 0
BBX 7 9 1 0
BITMAP
7E
60
60
60
F8
60
60
60
60
ENDCHAR
STARTCHAR 0494
ENCODING 1172
SWIDTH 625 0
DWIDTH 10 0
BBX 8 14 2 -2
BITMAP
FC
C0
C0
C0
C0
DC
E6
C3
C3
C3
C3
C3
06
1C
ENDCHAR
STARTCHAR 0495
ENCODING 1173
SWIDTH 562 0
DWIDTH 9 0
BBX 6 11 2 -2
BITMAP
F8
C0
C0
F8
CC
CC
CC
CC
CC
18
30
ENDCHAR
STARTCHAR 0496
ENCODING 1174
SWIDTH 875 0
DWIDTH 14 0
BBX 13 14 0 -1
BITMAP
C630
4620
2640
2640
1680
1F80
36C0
2640
6640
6660
4620
C638
0018
0018
ENDCHAR
STARTCHAR 0497
ENCODING 1175
SWIDTH 812 0
DWIDTH 13 0
BBX 12 11 0 -2
BITMAP
4620
2640
2640
3680
1F00
3680
66C0
6640
C670
0030
0030
ENDCHAR
STARTCHAR 0498
ENCODING 1176
SWIDTH 562 0
DWIDTH 9 0
BBX 7 15 1 -3
BITMAP
7C
86
06
06
0C
38
0C
06
06
06
8C
78
30
10
70
ENDCHAR
STARTCHAR 0499
ENCODING 1177
SWIDTH 500 0
DWIDTH 8 0
BBX 6 12 1 -3
BITMAP
78
8C
0C
0C
30
0C
0C
8C
78
30
10
70
ENDCHAR
STARTCHAR 049A
ENCODING 1178
SWIDTH 625 0
DWIDTH 10 0
BBX 9 14 2 -1
BITMAP
C200
C400
CC00
C800
D800
F000
D800
CC00
CC00
C400
C600
C380
0180
0180
ENDCHAR
STARTCHAR 049B
ENCODING 1179
SWIDTH 562 0
DWIDTH 9 0
BBX 7 11 2 -2
BITMAP
C8
D0
D0
E0
E0
D0
D0
C8
CE
06
06
ENDCHAR
STARTCHAR 049C
ENCODING 1180
SWIDTH 750 0
DWIDTH 12 0
BBX 9 12 2 1
BITMAP
C180
C100
C200
D200
D400
F800
D600
D600
D300
C300
C100
C180
ENDCHAR
STARTCHAR 049D
ENCODING 1181
SWIDTH 687 0
DWIDTH 11 0
BBX 8 9 2 0
BITMAP
C1
C2
D2
D4
F8
D4
D6
C2
C3
ENDCHAR
STARTCHAR 049E
ENCODING 1182
SWIDTH 625 0
DWIDTH 10 0
BBX 10 12 0 1
BITMAP
30C0
3180
FD00
3300
3600
3C00
3600
3300
3100
3180
3180
30C0
ENDCHAR
STARTCHAR 049F
ENCODING 1183
SWIDTH 562 0
DWIDTH 9 0
BBX 8 12 0 0
BITMAP
30
30
FC
31
32
32
34
38
34
36
32
33
ENDCHAR
STARTCHAR 04A0
ENCODING 1184
SWIDTH 687 0
DWIDTH 11 0
BBX 11 12 0 1
BITMAP
F860
18C0
1880
1980
1B00
1E00
1B00
1980
1980
18C0
18C0
1860
ENDCHAR
STARTCHAR 04A1
ENCODING 1185
SWIDTH 562 0
DWIDTH 9 0
BBX 8 9 0 0
BITMAP
F1
32
32
34
38
34
36
32
33
ENDCHAR
STARTCHAR 04A2
ENCODING 1186
SWIDTH 750 0
DWIDTH 12 0
BBX 11 14 2 -2
BITMAP
C180
C180
C180
C180
C180
FF80
C180
C180
C180
C180
C180
C1E0
0060
0060
ENDCHAR
STARTCHAR 04A3
ENCODING 1187
SWIDTH 687 0
DWIDTH 11 0
BBX 9 11 2 -2
BITMAP
C600
C600
C600
C600
FE00
C600
C600
C600
C780
0180
0180
ENDCHAR
STARTCHAR 04A4
ENCODING 1188
SWIDTH 875 0
DWIDTH 14 0
BBX 12 12 2 0
BITMAP
C1F0
C180
C180
C180
C180
FF80
C180
C180
C180
C180
C180
C180
ENDCHAR
STARTCHAR 04A5
ENCODING 1189
SWIDTH 687 0
DWIDTH 11 0
BBX 9 9 2 0
BITMAP
C780
C600
C600
C600
FE00
C600
C600
C600
C600
ENDCHAR
STARTCHAR 04A6
ENCODING 1190
SWIDTH 1000 0
DWIDTH 16 0
BBX 14 14 2 -2
BITMAP
FF00
C300
C300
C300
C300
C370
C398
C30C
C30C
C30C
C30C
C30C
0018
0070
ENDCHAR
STARTCHAR 04A7
ENCODING 1191
SWIDTH 875 0
DWIDTH 14 0
BBX 11 11 2 -2
BITMAP
FE00
C600
C600
C7C0
C660
C660
C660
C660
C660
00C0
0180
ENDCHAR
STARTCHAR 04A8
ENCODING 1192
SWIDTH 750 0
DWIDTH 12 0
BBX 11 14 1 -2
BITMAP
1F00
3180
63C0
C240
C660
C660
C660
C660
C640
63C0
3380
1F80
00C0
0060
ENDCHAR
STARTCHAR 04A9
ENCODING 1193
SWIDTH 625 0
DWIDTH 10 0
BBX 9 11 1 -2
BITMAP
3C00
6600
C600
CB00
CB00
CB00
CB00
6600
3C00
0300
0180
ENDCHAR
STARTCHAR 04AA
ENCODING 1194
SWIDTH 687 0
DWIDTH 11 0
BBX 9 15 1 -3
BITMAP
1F00
3080
6000
C000
C000
C000
C000
C000
C000
6000
7080
1F00
0600
0200
0E00
ENDCHAR
STARTCHAR 04AB
ENCODING 1195
SWIDTH 500 0
DWIDTH 8 0
BBX 7 12 1 -3
BITMAP
3E
60
C0
C0
C0
C0
C0
60
3E
18
04
18
ENDCHAR
STARTCHAR 04AC
ENCODING 1196
SWIDTH 625 0
DWIDTH 10 0
BBX 10 14 0 -2
BITMAP
FFC0
0C00
0C00
0C00
0C00
0C00
0C00
0C00
0C00
0C00
0C00
0F00
0300
0300
ENDCHAR
STARTCHAR 04AD
ENCODING 1197
SWIDTH 500 0
DWIDTH 8 0
BBX 8 10 0 -2
BITMAP
FF
18
18
18
18
18
18
1E
06
06
ENDCHAR
STARTCHAR 04AE
ENCODING 1198
SWIDTH 625 0
DWIDTH 10 0
BBX 10 12 0 0
BITMAP
E040
6080
7180
3100
1A00
1A00
0C00
0C00
0C00
0C00
0C00
0C00
ENDCHAR
STARTCHAR 04AF
ENCODING 1199
SWIDTH 500 0
DWIDTH 8 0
BBX 8 8 0 0
BITMAP
E3
62
34
3C
18
18
18
18
ENDCHAR
STARTCHAR 04B0
ENCODING 1200
SWIDTH 625 0
DWIDTH 10 0
BBX 10 12 0 0
BITMAP
E040
6080
7180
3100
1A00
1A00
0C00
0C00
7F80
0C00
0C00
0C00
ENDCHAR
STARTCHAR 04B1
ENCODING 1201
SWIDTH 500 0
DWIDTH 8 0
BBX 8 9 0 0
BITMAP
E1
62
76
34
18
18
7E
18
18
ENDCHAR
STARTCHAR 04B2
ENCODING 1202
SWIDTH 687 0
DWIDTH 11 0
BBX 10 14 0 -2
BITMAP
E080
6100
7200
3200
3C00
1800
1C00
1C00
2E00
2600
4700
C3C0
00C0
00C0
ENDCHAR
STARTCHAR 04B3
ENCODING 1203
SWIDTH 625 0
DWIDTH 10 0
BBX 9 11 1 -2
BITMAP
E300
6200
7400
3C00
1800
3C00
2C00
4E00
C780
0180
0180
ENDCHAR
STARTCHAR 04B4
ENCODING 1204
SWIDTH 875 0
DWIDTH 14 0
BBX 14 14 0 -2
BITMAP
FF30
1830
1830
1830
1830
1830
1830
1830
1830
1830
1830
1FFC
000C
000C
ENDCHAR
STARTCHAR 04B5
ENCODING 1205
SWIDTH 687 0
DWIDTH 11 0
BBX 11 11 0 -2
BITMAP
FD80
3180
3180
3180
3180
3180
3180
3180
3FE0
0060
0060
ENDCHAR
STARTCHAR 04B6
ENCODING 1206
SWIDTH 687 0
DWIDTH 11 0
BBX 10 14 1 -2
BITMAP
C300
C300
C300
C300
C300
C300
C700
7B00
0300
0300
0300
03C0
00C0
00C0
ENDCHAR
STARTCHAR 04B7
ENCODING 1207
SWIDTH 562 0
DWIDTH 9 0
BBX 8 10 1 -2
BITMAP
CC
CC
CC
CC
7C
0C
0C
0F
03
03
ENDCHAR
STARTCHAR 04B8
ENCODING 1208
SWIDTH 625 0
DWIDTH 10 0
BBX 8 12 1 0
BITMAP
C3
C3
C3
C3
D3
D3
D7
7B
13
13
03
03
ENDCHAR
STARTCHAR 04B9
ENCODING 1209
SWIDTH 500 0
DWIDTH 8 0
BBX 6 9 1 0
BITMAP
CC
CC
CC
DC
DC
7C
1C
1C
0C
ENDCHAR
STARTCHAR 04BA
ENCODING 1210
SWIDTH 625 0
DWIDTH 10 0
BBX 8 12 2 0
BITMAP
C0
C0
C0
C0
DE
E7
C3
C3
C3
C3
C3
C3
ENDCHAR
STARTCHAR 04BB
ENCODING 1211
SWIDTH 500 0
DWIDTH 8 0
BBX 6 9 2 0
BITMAP
C0
C0
C0
F8
CC
CC
CC
CC
CC
ENDCHAR
STARTCHAR 04BC
ENCODING 1212
SWIDTH 875 0
DWIDTH 14 0
BBX 12 12 1 0
BITMAP
03C0
0E60
0C30
9830
9830
7FF0
1800
1800
1800
0C00
0610
03E0
ENDCHAR
STARTCHAR 04BD
ENCODING 1213
SWIDTH 750 0
DWIDTH 12 0
BBX 10 9 0 0
BITMAP
0700
8C80
98C0
98C0
7FC0
1800
1800
0C00
07C0
ENDCHAR
STARTCHAR 04BE
ENCODING 1214
SWIDTH 875 0
DWIDTH 14 0
BBX 12 15 1 -4
BITMAP
03C0
0E60
0C30
9830
9830
7FF0
1800
1800
1800
0C00
0610
03E0
0100
0100
01C0
ENDCHAR
STARTCHAR 04BF
ENCODING 1215
SWIDTH 750 0
DWIDTH 12 0
BBX 10 12 0 -4
BITMAP
0700
8C80
98C0
98C0
7FC0
1800
1800
0C00
07C0
0000
0200
0180
ENDCHAR
STARTCHAR 04C0
ENCODING 1216
SWIDTH 312 0
DWIDTH 5 0
BBX 2 12 1 0
BITMAP
C0
C0
C0
C0
C0
C0
C0
C0
C0
C0
C0
C0
ENDCHAR
STARTCHAR 04C1
ENCODING 1217
SWIDTH 812 0
DWIDTH 13 0
BBX 12 15 0 0
BITMAP
1100
0E00
0000
8610
4620
6660
2640
1680
1F80
36C0
2640
6660
6660
4620
C630
ENDCHAR
STARTCHAR 04C2
ENCODING 1218
SWIDTH 750 0
DWIDTH 12 0
BBX 12 13 0 0
BITMAP
0880
0700
0000
0000
4620
2640
2640
1680
1F80
36C0
6660
6660
C630
ENDCHAR
STARTCHAR 04C3
ENCODING 1219
SWIDTH 625 0
DWIDTH 10 0
BBX 7 14 2 -1
BITMAP
C2
C4
CC
C8
D0
F8
CC
C6
C6
C6
C6
C6
0C
18
ENDCHAR
STARTCHAR 04C4
ENCODING 1220
SWIDTH 562 0
DWIDTH 9 0
BBX 6 11 2 -2
BITMAP
C4
C8
C8
D0
F0
D8
CC
CC
CC
0C
18
ENDCHAR
STARTCHAR 04C7
ENCODING 1223
SWIDTH 750 0
DWIDTH 12 0
BBX 9 15 2 -3
BITMAP
C180
C180
C180
C180
C180
FF80
C180
C180
C180
C180
C180
C180
0180
0180
0700
ENDCHAR
STARTCHAR 04C8
ENCODING 1224
SWIDTH 625 0
DWIDTH 10 0
BBX 7 12 2 -3
BITMAP
C6
C6
C6
C6
FE
C6
C6
C6
C6
06
06
1C
ENDCHAR
STARTCHAR 04CB
ENCODING 1227
SWIDTH 625 0
DWIDTH 10 0
BBX 8 14 1 -2
BITMAP
C3
C3
C3
C3
C3
C3
C7
7B
03
03
03
0F
0C
0C
ENDCHAR
STARTCHAR 04CC
ENCODING 1228
SWIDTH 500 0
DWIDTH 8 0
BBX 6 11 1 -2
BITMAP
CC
CC
CC
CC
CC
7C
0C
0C
3C
30
30
ENDCHAR
STARTCHAR 05B0
ENCODING 1456
SWIDTH 0 0
DWIDTH 0 0
BBX 2 5 5 -6
BITMAP
80
C0
00
80
C0
ENDCHAR
STARTCHAR 05B1
ENCODING 1457
SWIDTH 0 0
DWIDTH 0 0
BBX 7 5 2 -6
BITMAP
94
DE
00
24
36
ENDCHAR
STARTCHAR 05B2
ENCODING 1458
SWIDTH 0 0
DWIDTH 0 0
BBX 7 5 2 -6
BITMAP
F4
06
00
04
06
ENDCHAR
STARTCHAR 05B3
ENCODING 1459
SWIDTH 0 0
DWIDTH 0 0
BBX 7 5 2 -6
BITMAP
F4
26
20
04
06
ENDCHAR
STARTCHAR 05B4
ENCODING 1460
SWIDTH 0 0
DWIDTH 0 0
BBX 2 2 5 -3
BITMAP
80
C0
ENDCHAR
STARTCHAR 05B5
ENCODING 1461
SWIDTH 0 0
DWIDTH 0 0
BBX 5 2 3 -3
BITMAP
90
D8
ENDCHAR
STARTCHAR 05B6
ENCODING 1462
SWIDTH 0 0
DWIDTH 0 0
BBX 5 5 3 -6
BITMAP
90
D8
00
20
20
ENDCHAR
STARTCHAR 05B7
ENCODING 1463
SWIDTH 0 0
DWIDTH 0 0
BBX 4 1 4 -2
BITMAP
F0
ENDCHAR
STARTCHAR 05B8
ENCODING 1464
SWIDTH 0 0
DWIDTH 0 0
BBX 4 3 4 -4
BITMAP
F0
20
20
ENDCHAR
STARTCHAR 05B9
ENCODING 1465
SWIDTH 0 0
DWIDTH 0 0
BBX 2 2 -1 10
BITMAP
80
C0
ENDCHAR
STARTCHAR 05BB
ENCODING 1467
SWIDTH 0 0
DWIDTH 0 0
BBX 8 4 2 -5
BITMAP
80
D0
1A
03
ENDCHAR
STARTCHAR 05BC
ENCODING 1468
SWIDTH 0 0
DWIDTH 0 0
BBX 2 1 4 5
BITMAP
C0
ENDCHAR
STARTCHAR 05BD
ENCODING 1469
SWIDTH 0 0
DWIDTH 0 0
BBX 1 3 5 -4
BITMAP
80
80
80
ENDCHAR
STARTCHAR 05BE
ENCODING 1470
SWIDTH 437 0
DWIDTH 7 0
BBX 5 1 1 8
BITMAP
F8
ENDCHAR
STARTCHAR 05BF
ENCODING 1471
SWIDTH 0 0
DWIDTH 0 0
BBX 4 1 4 11
BITMAP
F0
ENDCHAR
STARTCHAR 05C0
ENCODING 1472
SWIDTH 250 0
DWIDTH 4 0
BBX 2 9 1 0
BITMAP
40
C0
C0
C0
C0
C0
C0
C0
80
ENDCHAR
STARTCHAR 05C1
ENCODING 1473
SWIDTH 0 0
DWIDTH 0 0
BBX 2 2 9 10
BITMAP
80
C0
ENDCHAR
STARTCHAR 05C2
ENCODING 1474
SWIDTH 0 0
DWIDTH 0 0
BBX 1 2 1 10
BITMAP
80
80
ENDCHAR
STARTCHAR 05C3
ENCODING 1475
SWIDTH 250 0
DWIDTH 4 0
BBX 2 9 1 0
BITMAP
80
C0
00
00
00
00
00
80
C0
ENDCHAR
STARTCHAR 05D0
ENCODING 1488
SWIDTH 625 0
DWIDTH 10 0
BBX 9 9 0 0
BITMAP
C180
6180
3180
7F00
4E00
C600
C300
C180
C080
ENDCHAR
STARTCHAR 05D1
ENCODING 1489
SWIDTH 562 0
DWIDTH 9 0
BBX 8 9 0 0
BITMAP
7C
06
06
06
06
06
06
06
FF
ENDCHAR
STARTCHAR 05D2
ENCODING 1490
SWIDTH 437 0
DWIDTH 7 0
BBX 5 9 1 0
BITMAP
30
18
08
08
08
08
38
D8
88
ENDCHAR
STARTCHAR 05D3
ENCODING 1491
SWIDTH 500 0
DWIDTH 8 0
BBX 8 9 0 0
BITMAP
FF
06
06
06
06
06
06
06
06
ENDCHAR
STARTCHAR 05D4
ENCODING 1492
SWIDTH 687 0
DWIDTH 11 0
BBX 9 9 1 0
BITMAP
FF00
0180
0180
6180
6180
6180
6180
6180
6180
ENDCHAR
STARTCHAR 05D5
ENCODING 1493
SWIDTH 312 0
DWIDTH 5 0
BBX 4 9 0 0
BITMAP
E0
70
30
30
30
30
30
30
30
ENDCHAR
STARTCHAR 05D6
ENCODING 1494
SWIDTH 312 0
DWIDTH 5 0
BBX 4 9 0 1
BITMAP
C0
F0
30
60
60
60
60
60
60
ENDCHAR
STARTCHAR 05D7
ENCODING 1495
SWIDTH 687 0
DWIDTH 11 0
BBX 9 9 1 0
BITMAP
FF00
6180
6180
6180
6180
6180
6180
6180
6180
ENDCHAR
STARTCHAR 05D8
ENCODING 1496
SWIDTH 625 0
DWIDTH 10 0
BBX 9 10 1 0
BITMAP
4000
C700
C180
C180
C180
6180
6300
6700
7C00
7000
ENDCHAR
STARTCHAR 05D9
ENCODING 1497
SWIDTH 312 0
DWIDTH 5 0
BBX 4 5 0 4
BITMAP
E0
70
30
30
30
ENDCHAR
STARTCHAR 05DA
ENCODING 1498
SWIDTH 500 0
DWIDTH 8 0
BBX 7 11 0 -2
BITMAP
FE
06
06
06
06
06
06
06
06
06
06
ENDCHAR
STARTCHAR 05DB
ENCODING 1499
SWIDTH 562 0
DWIDTH 9 0
BBX 8 9 0 0
BITMAP
7E
06
03
03
03
03
02
06
FE
ENDCHAR
STARTCHAR 05DC
ENCODING 1500
SWIDTH 562 0
DWIDTH 9 0
BBX 6 12 1 1
BITMAP
C0
C0
C0
F8
0C
0C
0C
1C
18
30
E0
C0
ENDCHAR
STARTCHAR 05DD
ENCODING 1501
SWIDTH 687 0
DWIDTH 11 0
BBX 9 9 1 0
BITMAP
FF00
6180
6180
6180
6180
6180
6180
6180
7F00
ENDCHAR
STARTCHAR 05DE
ENCODING 1502
SWIDTH 687 0
DWIDTH 11 0
BBX 9 9 1 0
BITMAP
4E00
D300
6300
6100
6180
6180
4180
C180
DF00
ENDCHAR
STARTCHAR 05DF
ENCODING 1503
SWIDTH 312 0
DWIDTH 5 0
BBX 4 11 0 -2
BITMAP
C0
70
30
30
30
30
30
30
30
30
30
ENDCHAR
STARTCHAR 05E0
ENCODING 1504
SWIDTH 437 0
DWIDTH 7 0
BBX 5 9 0 0
BITMAP
60
38
18
18
18
18
18
18
F0
ENDCHAR
STARTCHAR 05E1
ENCODING 1505
SWIDTH 687 0
DWIDTH 11 0
BBX 9 9 0 0
BITMAP
FF00
6180
6180
7180
7180
3300
3300
3600
3800
ENDCHAR
STARTCHAR 05E2
ENCODING 1506
SWIDTH 625 0
DWIDTH 10 0
BBX 9 10 0 -1
BITMAP
3180
3180
3180
1980
1900
1900
1A00
1C00
1800
E000
ENDCHAR
STARTCHAR 05E3
ENCODING 1507
SWIDTH 500 0
DWIDTH 8 0
BBX 7 11 0 -2
BITMAP
60
DC
C6
C6
66
06
06
06
06
06
06
ENDCHAR
STARTCHAR 05E4
ENCODING 1508
SWIDTH 562 0
DWIDTH 9 0
BBX 7 9 0 0
BITMAP
30
6C
66
66
36
06
06
06
FE
ENDCHAR
STARTCHAR 05E5
ENCODING 1509
SWIDTH 500 0
DWIDTH 8 0
BBX 7 11 1 -2
BITMAP
82
C2
42
64
78
30
30
30
30
30
30
ENDCHAR
STARTCHAR 05E6
ENCODING 1510
SWIDTH 562 0
DWIDTH 9 0
BBX 8 9 0 0
BITMAP
43
63
23
36
16
0C
0C
06
FF
ENDCHAR
STARTCHAR 05E7
ENCODING 1511
SWIDTH 687 0
DWIDTH 11 0
BBX 9 11 1 -2
BITMAP
FF00
0180
0180
6180
6180
6300
6600
6C00
7800
6000
6000
ENDCHAR
STARTCHAR 05E8
ENCODING 1512
SWIDTH 500 0
DWIDTH 8 0
BBX 7 9 0 0
BITMAP
FC
86
06
06
06
06
06
06
06
ENDCHAR
STARTCHAR 05E9
ENCODING 1513
SWIDTH 687 0
DWIDTH 11 0
BBX 10 9 1 0
BITMAP
0CC0
8CC0
CCC0
CCC0
D980
7180
4300
7E00
7800
ENDCHAR
STARTCHAR 05EA
ENCODING 1514
SWIDTH 687 0
DWIDTH 11 0
BBX 9 9 0 0
BITMAP
FF00
2180
6180
6180
6180
6180
6180
7180
F180
ENDCHAR
STARTCHAR 05F0
ENCODING 1520
SWIDTH 625 0
DWIDTH 10 0
BBX 9 9 0 0
BITMAP
E700
7380
3180
3180
3180
3180
3180
3180
3180
ENDCHAR
STARTCHAR 05F1
ENCODING 1521
SWIDTH 625 0
DWIDTH 10 0
BBX 8 9 0 0
BITMAP
EE
77
33
33
33
03
03
03
03
ENDCHAR
STARTCHAR 05F2
ENCODING 1522
SWIDTH 625 0
DWIDTH 10 0
BBX 9 5 0 4
BITMAP
E700
7380
3180
3180
3180
ENDCHAR
STARTCHAR 05F3
ENCODING 1523
SWIDTH 250 0
DWIDTH 4 0
BBX 3 4 1 8
BITMAP
60
40
C0
80
ENDCHAR
STARTCHAR 05F4
ENCODING 1524
SWIDTH 500 0
DWIDTH 8 0
BBX 6 4 1 8
BITMAP
6C
48
D8
90
ENDCHAR
STARTCHAR 1E80
ENCODING 7808
SWIDTH 875 0
DWIDTH 14 0
BBX 14 16 0 0
BITMAP
0C00
0600
0300
0000
C304
C304
6388
6588
6588
6588
34D0
34D0
34D0
38D0
1860
1860
ENDCHAR
STARTCHAR 1E81
ENCODING 7809
SWIDTH 812 0
DWIDTH 13 0
BBX 11 13 1 0
BITMAP
3000
1800
0C00
0000
C620
C620
6B40
6B40
6B40
6B40
6B40
3180
3180
ENDCHAR
STARTCHAR 1E82
ENCODING 7810
SWIDTH 875 0
DWIDTH 14 0
BBX 14 16 0 0
BITMAP
00C0
0180
0300
0000
C304
C304
6388
6588
6588
6588
34D0
34D0
34D0
38D0
1860
1860
ENDCHAR
STARTCHAR 1E83
ENCODING 7811
SWIDTH 812 0
DWIDTH 13 0
BBX 11 13 1 0
BITMAP
0300
0600
0C00
0000
C620
C620
6B40
6B40
6B40
6B40
6B40
3180
3180
ENDCHAR
STARTCHAR 1E84
ENCODING 7812
SWIDTH 875 0
DWIDTH 14 0
BBX 14 14 0 0
BITMAP
06C0
0000
C304
C304
6388
6588
6588
6588
34D0
34D0
34D0
38D0
1860
1860
ENDCHAR
STARTCHAR 1E85
ENCODING 7813
SWIDTH 812 0
DWIDTH 13 0
BBX 11 11 1 0
BITMAP
1B00
0000
C620
C620
6B40
6B40
6B40
6B40
6B40
3180
3180
ENDCHAR
STARTCHAR 1EF2
ENCODING 7922
SWIDTH 625 0
DWIDTH 10 0
BBX 10 16 0 0
BITMAP
3000
1800
0C00
0000
C040
6080
6080
3100
1A00
1A00
0C00
0C00
0C00
0C00
0C00
0C00
ENDCHAR
STARTCHAR 1EF3
ENCODING 7923
SWIDTH 500 0
DWIDTH 8 0
BBX 8 16 0 -3
BITMAP
30
18
0C
00
C1
62
62
62
34
34
34
18
18
10
10
30
ENDCHAR
STARTCHAR 2000
ENCODING 8192
SWIDTH 500 0
DWIDTH 8 0
BBX 0 0 0 0
BITMAP
ENDCHAR
STARTCHAR 2001
ENCODING 8193
SWIDTH 1000 0
DWIDTH 16 0
BBX 0 0 0 0
BITMAP
ENDCHAR
STARTCHAR 2002
ENCODING 8194
SWIDTH 500 0
DWIDTH 8 0
BBX 0 0 0 0
BITMAP
ENDCHAR
STARTCHAR 2003
ENCODING 8195
SWIDTH 1000 0
DWIDTH 16 0
BBX 0 0 0 0
BITMAP
ENDCHAR
STARTCHAR 2004
ENCODING 8196
SWIDTH 312 0
DWIDTH 5 0
BBX 0 0 0 0
BITMAP
ENDCHAR
STARTCHAR 2005
ENCODING 8197
SWIDTH 250 0
DWIDTH 4 0
BBX 0 0 0 0
BITMAP
ENDCHAR
STARTCHAR 2006
ENCODING 8198
SWIDTH 187 0
DWIDTH 3 0
BBX 0 0 0 0
BITMAP
ENDCHAR
STARTCHAR 2007
ENCODING 8199
SWIDTH 625 0
DWIDTH 10 0
BBX 0 0 0 0
BITMAP
ENDCHAR
STARTCHAR 2008
ENCODING 8200
SWIDTH 312 0
DWIDTH 5 0
BBX 0 0 0 0
BITMAP
ENDCHAR
STARTCHAR 2009
ENCODING 8201
SWIDTH 125 0
DWIDTH 2 0
BBX 0 0 0 0
BITMAP
ENDCHAR
STARTCHAR 200A
ENCODING 8202
SWIDTH 62 0
DWIDTH 1 0
BBX 0 0 0 0
BITMAP
ENDCHAR
STARTCHAR 200B
ENCODING 8203
SWIDTH 0 0
DWIDTH 0 0
BBX 0 0 0 0
BITMAP
ENDCHAR
STARTCHAR 200C
ENCODING 8204
SWIDTH 0 0
DWIDTH 0 0
BBX 0 0 0 0
BITMAP
ENDCHAR
STARTCHAR 200D
ENCODING 8205
SWIDTH 0 0
DWIDTH 0 0
BBX 0 0 0 0
BITMAP
ENDCHAR
STARTCHAR 200E
ENCODING 8206
SWIDTH 0 0
DWIDTH 0 0
BBX 0 0 0 0
BITMAP
ENDCHAR
STARTCHAR 200F
ENCODING 8207
SWIDTH 0 0
DWIDTH 0 0
BBX 0 0 0 0
BITMAP
ENDCHAR
STARTCHAR 2010
ENCODING 8208
SWIDTH 312 0
DWIDTH 5 0
BBX 3 1 1 4
BITMAP
E0
ENDCHAR
STARTCHAR 2011
ENCODING 8209
SWIDTH 312 0
DWIDTH 5 0
BBX 3 1 1 4
BITMAP
E0
ENDCHAR
STARTCHAR 2012
ENCODING 8210
SWIDTH 625 0
DWIDTH 10 0
BBX 6 1 2 4
BITMAP
FC
ENDCHAR
STARTCHAR 2013
ENCODING 8211
SWIDTH 500 0
DWIDTH 8 0
BBX 6 1 1 4
BITMAP
FC
ENDCHAR
STARTCHAR 2014
ENCODING 8212
SWIDTH 1000 0
DWIDTH 16 0
BBX 14 1 1 4
BITMAP
FFFC
ENDCHAR
STARTCHAR 2015
ENCODING 8213
SWIDTH 1000 0
DWIDTH 16 0
BBX 14 1 1 4
BITMAP
FFFC
ENDCHAR
STARTCHAR 2016
ENCODING 8214
SWIDTH 562 0
DWIDTH 9 0
BBX 5 14 2 -2
BITMAP
88
88
88
88
88
88
88
88
88
88
88
88
88
88
ENDCHAR
STARTCHAR 2017
ENCODING 8215
SWIDTH 500 0
DWIDTH 8 0
BBX 7 3 1 -3
BITMAP
FE
00
FE
ENDCHAR
STARTCHAR 2018
ENCODING 8216
SWIDTH 312 0
DWIDTH 5 0
BBX 2 4 2 8
BITMAP
40
80
C0
C0
ENDCHAR
STARTCHAR 2019
ENCODING 8217
SWIDTH 312 0
DWIDTH 5 0
BBX 2 4 2 8
BITMAP
C0
C0
40
80
ENDCHAR
STARTCHAR 201A
ENCODING 8218
SWIDTH 312 0
DWIDTH 5 0
BBX 2 4 2 -2
BITMAP
C0
C0
40
80
ENDCHAR
STARTCHAR 201B
ENCODING 8219
SWIDTH 312 0
DWIDTH 5 0
BBX 2 5 2 7
BITMAP
C0
C0
80
80
40
ENDCHAR
STARTCHAR 201C
ENCODING 8220
SWIDTH 375 0
DWIDTH 6 0
BBX 5 4 1 8
BITMAP
48
90
90
D8
ENDCHAR
STARTCHAR 201D
ENCODING 8221
SWIDTH 375 0
DWIDTH 6 0
BBX 5 4 1 8
BITMAP
D8
48
48
90
ENDCHAR
STARTCHAR 201E
ENCODING 8222
SWIDTH 375 0
DWIDTH 6 0
BBX 5 4 1 -2
BITMAP
D8
D8
48
90
ENDCHAR
STARTCHAR 201F
ENCODING 8223
SWIDTH 375 0
DWIDTH 6 0
BBX 5 5 1 7
BITMAP
D8
D8
90
D8
48
ENDCHAR
STARTCHAR 2020
ENCODING 8224
SWIDTH 625 0
DWIDTH 10 0
BBX 8 14 1 -2
BITMAP
18
18
18
18
FF
18
18
18
18
18
18
18
18
18
ENDCHAR
STARTCHAR 2021
ENCODING 8225
SWIDTH 625 0
DWIDTH 10 0
BBX 8 14 1 -2
BITMAP
18
18
18
18
FF
18
18
18
18
FF
18
18
18
18
ENDCHAR
STARTCHAR 2022
ENCODING 8226
SWIDTH 625 0
DWIDTH 10 0
BBX 3 3 4 3
BITMAP
E0
E0
E0
ENDCHAR
STARTCHAR 2023
ENCODING 8227
SWIDTH 375 0
DWIDTH 6 0
BBX 3 5 2 3
BITMAP
80
C0
E0
C0
80
ENDCHAR
STARTCHAR 2024
ENCODING 8228
SWIDTH 312 0
DWIDTH 5 0
BBX 1 1 2 0
BITMAP
80
ENDCHAR
STARTCHAR 2025
ENCODING 8229
SWIDTH 687 0
DWIDTH 11 0
BBX 6 1 2 0
BITMAP
84
ENDCHAR
STARTCHAR 2026
ENCODING 8230
SWIDTH 1000 0
DWIDTH 16 0
BBX 12 1 2 0
BITMAP
C630
ENDCHAR
STARTCHAR 2027
ENCODING 8231
SWIDTH 312 0
DWIDTH 5 0
BBX 1 1 2 4
BITMAP
80
ENDCHAR
STARTCHAR 2028
ENCODING 8232
SWIDTH 0 0
DWIDTH 0 0
BBX 0 0 0 0
BITMAP
ENDCHAR
STARTCHAR 2029
ENCODING 8233
SWIDTH 0 0
DWIDTH 0 0
BBX 0 0 0 0
BITMAP
ENDCHAR
STARTCHAR 202A
ENCODING 8234
SWIDTH 0 0
DWIDTH 0 0
BBX 0 0 0 0
BITMAP
ENDCHAR
STARTCHAR 202B
ENCODING 8235
SWIDTH 0 0
DWIDTH 0 0
BBX 0 0 0 0
BITMAP
ENDCHAR
STARTCHAR 202C
ENCODING 8236
SWIDTH 0 0
DWIDTH 0 0
BBX 0 0 0 0
BITMAP
ENDCHAR
STARTCHAR 202D
ENCODING 8237
SWIDTH 0 0
DWIDTH 0 0
BBX 0 0 0 0
BITMAP
ENDCHAR
STARTCHAR 202E
ENCODING 8238
SWIDTH 0 0
DWIDTH 0 0
BBX 0 0 0 0
BITMAP
ENDCHAR
STARTCHAR 2030
ENCODING 8240
SWIDTH 1000 0
DWIDTH 16 0
BBX 16 12 0 0
BITMAP
7040
88C0
8880
8900
8A00
7600
0DCE
0A31
1231
2231
6231
C1CE
ENDCHAR
STARTCHAR 2031
ENCODING 8241
SWIDTH 1375 0
DWIDTH 22 0
BBX 23 12 0 0
BITMAP
702000
884000
888000
890000
8A0000
740000
05C71C
0A28A2
1228A2
2228A2
4228A2
81C71C
ENDCHAR
STARTCHAR 2032
ENCODING 8242
SWIDTH 312 0
DWIDTH 5 0
BBX 3 5 1 7
BITMAP
60
40
40
C0
80
ENDCHAR
STARTCHAR 2033
ENCODING 8243
SWIDTH 562 0
DWIDTH 9 0
BBX 7 5 1 7
BITMAP
66
44
44
CC
88
ENDCHAR
STARTCHAR 2034
ENCODING 8244
SWIDTH 750 0
DWIDTH 12 0
BBX 11 5 1 7
BITMAP
6660
4440
4440
CCC0
8880
ENDCHAR
STARTCHAR 2035
ENCODING 8245
SWIDTH 312 0
DWIDTH 5 0
BBX 3 5 1 7
BITMAP
C0
40
40
60
20
ENDCHAR
STARTCHAR 2036
ENCODING 8246
SWIDTH 562 0
DWIDTH 9 0
BBX 7 5 1 7
BITMAP
CC
44
44
66
22
ENDCHAR
STARTCHAR 2037
ENCODING 8247
SWIDTH 750 0
DWIDTH 12 0
BBX 11 5 0 7
BITMAP
CCC0
4440
4440
6660
2220
ENDCHAR
STARTCHAR 2038
ENCODING 8248
SWIDTH 375 0
DWIDTH 6 0
BBX 5 5 0 -3
BITMAP
20
20
50
50
88
ENDCHAR
STARTCHAR 2039
ENCODING 8249
SWIDTH 312 0
DWIDTH 5 0
BBX 4 7 1 1
BITMAP
10
20
60
C0
60
20
10
ENDCHAR
STARTCHAR 203A
ENCODING 8250
SWIDTH 312 0
DWIDTH 5 0
BBX 4 7 1 1
BITMAP
80
40
60
30
60
40
80
ENDCHAR
STARTCHAR 203B
ENCODING 8251
SWIDTH 750 0
DWIDTH 12 0
BBX 8 8 2 2
BITMAP
91
42
24
18
99
24
42
91
ENDCHAR
STARTCHAR 203C
ENCODING 8252
SWIDTH 500 0
DWIDTH 8 0
BBX 5 12 2 0
BITMAP
D8
D8
D8
D8
D8
D8
D8
D8
D8
00
00
D8
ENDCHAR
STARTCHAR 203D
ENCODING 8253
SWIDTH 437 0
DWIDTH 7 0
BBX 6 12 0 0
BITMAP
78
84
24
24
28
30
20
20
20
00
00
20
ENDCHAR
STARTCHAR 203E
ENCODING 8254
SWIDTH 500 0
DWIDTH 8 0
BBX 7 1 1 13
BITMAP
FE
ENDCHAR
STARTCHAR 2040
ENCODING 8256
SWIDTH 562 0
DWIDTH 9 0
BBX 9 3 0 13
BITMAP
3E00
4100
8080
ENDCHAR
STARTCHAR 2041
ENCODING 8257
SWIDTH 437 0
DWIDTH 7 0
BBX 7 12 0 -3
BITMAP
02
04
04
08
08
10
10
20
30
50
48
C8
ENDCHAR
STARTCHAR 2042
ENCODING 8258
SWIDTH 937 0
DWIDTH 15 0
BBX 14 11 1 0
BITMAP
0200
1240
0F80
0700
1AC0
1220
9324
7CF8
3870
D7AC
1020
ENDCHAR
STARTCHAR 2043
ENCODING 8259
SWIDTH 312 0
DWIDTH 5 0
BBX 3 2 1 4
BITMAP
E0
E0
ENDCHAR
STARTCHAR 2044
ENCODING 8260
SWIDTH 0 0
DWIDTH 0 0
BBX 10 12 -5 0
BITMAP
0040
0080
0100
0200
0200
0400
0800
1000
1000
2000
4000
8000
ENDCHAR
STARTCHAR 2070
ENCODING 8304
SWIDTH 437 0
DWIDTH 7 0
BBX 5 7 1 5
BITMAP
70
88
88
88
88
88
70
ENDCHAR
STARTCHAR 2074
ENCODING 8308
SWIDTH 437 0
DWIDTH 7 0
BBX 5 7 1 5
BITMAP
10
30
50
90
F8
10
10
ENDCHAR
STARTCHAR 2075
ENCODING 8309
SWIDTH 437 0
DWIDTH 7 0
BBX 4 7 1 5
BITMAP
F0
80
80
E0
10
10
E0
ENDCHAR
STARTCHAR 2076
ENCODING 8310
SWIDTH 437 0
DWIDTH 7 0
BBX 5 7 1 5
BITMAP
78
C0
80
F0
88
88
70
ENDCHAR
STARTCHAR 2077
ENCODING 8311
SWIDTH 437 0
DWIDTH 7 0
BBX 5 7 1 5
BITMAP
F8
08
10
20
60
40
C0
ENDCHAR
STARTCHAR 2078
ENCODING 8312
SWIDTH 437 0
DWIDTH 7 0
BBX 5 7 1 5
BITMAP
70
88
D0
70
88
88
70
ENDCHAR
STARTCHAR 2079
ENCODING 8313
SWIDTH 437 0
DWIDTH 7 0
BBX 5 7 1 5
BITMAP
70
88
88
78
08
18
F0
ENDCHAR
STARTCHAR 207A
ENCODING 8314
SWIDTH 437 0
DWIDTH 7 0
BBX 5 5 1 6
BITMAP
20
20
F8
20
20
ENDCHAR
STARTCHAR 207B
ENCODING 8315
SWIDTH 437 0
DWIDTH 7 0
BBX 5 1 1 8
BITMAP
F8
ENDCHAR
STARTCHAR 207C
ENCODING 8316
SWIDTH 437 0
DWIDTH 7 0
BBX 5 3 1 7
BITMAP
F8
00
F8
ENDCHAR
STARTCHAR 207D
ENCODING 8317
SWIDTH 250 0
DWIDTH 4 0
BBX 2 9 1 3
BITMAP
40
40
80
80
80
80
80
40
40
ENDCHAR
STARTCHAR 207E
ENCODING 8318
SWIDTH 250 0
DWIDTH 4 0
BBX 2 9 0 3
BITMAP
80
80
40
40
40
40
40
80
80
ENDCHAR
STARTCHAR 207F
ENCODING 8319
SWIDTH 375 0
DWIDTH 6 0
BBX 4 5 1 5
BITMAP
F0
90
90
90
90
ENDCHAR
STARTCHAR 2080
ENCODING 8320
SWIDTH 437 0
DWIDTH 7 0
BBX 5 7 1 0
BITMAP
70
88
88
88
88
88
70
ENDCHAR
STARTCHAR 2081
ENCODING 8321
SWIDTH 437 0
DWIDTH 7 0
BBX 2 7 2 0
BITMAP
C0
40
40
40
40
40
40
ENDCHAR
STARTCHAR 2082
ENCODING 8322
SWIDTH 437 0
DWIDTH 7 0
BBX 4 7 1 0
BITMAP
E0
10
10
20
40
80
F0
ENDCHAR
STARTCHAR 2083
ENCODING 8323
SWIDTH 437 0
DWIDTH 7 0
BBX 4 7 1 0
BITMAP
F0
10
10
60
10
10
E0
ENDCHAR
STARTCHAR 2084
ENCODING 8324
SWIDTH 437 0
DWIDTH 7 0
BBX 5 7 1 0
BITMAP
10
30
50
90
F8
10
10
ENDCHAR
STARTCHAR 2085
ENCODING 8325
SWIDTH 437 0
DWIDTH 7 0
BBX 4 7 1 0
BITMAP
F0
80
80
E0
10
10
E0
ENDCHAR
STARTCHAR 2086
ENCODING 8326
SWIDTH 437 0
DWIDTH 7 0
BBX 5 7 1 0
BITMAP
78
C0
80
F0
88
88
70
ENDCHAR
STARTCHAR 2087
ENCODING 8327
SWIDTH 437 0
DWIDTH 7 0
BBX 5 7 1 0
BITMAP
F8
08
10
20
60
40
C0
ENDCHAR
STARTCHAR 2088
ENCODING 8328
SWIDTH 437 0
DWIDTH 7 0
BBX 5 7 1 0
BITMAP
70
88
D0
70
88
88
70
ENDCHAR
STARTCHAR 2089
ENCODING 8329
SWIDTH 437 0
DWIDTH 7 0
BBX 5 7 1 0
BITMAP
70
88
88
78
08
18
F0
ENDCHAR
STARTCHAR 208A
ENCODING 8330
SWIDTH 437 0
DWIDTH 7 0
BBX 5 5 1 1
BITMAP
20
20
F8
20
20
ENDCHAR
STARTCHAR 208B
ENCODING 8331
SWIDTH 437 0
DWIDTH 7 0
BBX 5 1 1 3
BITMAP
F8
ENDCHAR
STARTCHAR 208C
ENCODING 8332
SWIDTH 437 0
DWIDTH 7 0
BBX 5 3 1 2
BITMAP
F8
00
F8
ENDCHAR
STARTCHAR 208D
ENCODING 8333
SWIDTH 250 0
DWIDTH 4 0
BBX 2 10 1 -2
BITMAP
40
40
80
80
80
80
80
80
40
40
ENDCHAR
STARTCHAR 208E
ENCODING 8334
SWIDTH 250 0
DWIDTH 4 0
BBX 2 10 1 -2
BITMAP
80
80
40
40
40
40
40
40
80
80
ENDCHAR
STARTCHAR 20A0
ENCODING 8352
SWIDTH 687 0
DWIDTH 11 0
BBX 9 12 1 0
BITMAP
3C00
6000
C000
C000
C780
C600
6600
3F80
0600
0600
0600
0780
ENDCHAR
STARTCHAR 20A1
ENCODING 8353
SWIDTH 687 0
DWIDTH 11 0
BBX 11 14 0 -1
BITMAP
0120
0FC0
3A40
3480
6480
6900
6900
7200
7200
6400
3400
7840
4F80
9000
ENDCHAR
STARTCHAR 20A2
ENCODING 8354
SWIDTH 687 0
DWIDTH 11 0
BBX 9 12 1 0
BITMAP
1F00
3080
6000
C000
C680
C700
C600
C600
C600
6600
3680
1F00
ENDCHAR
STARTCHAR 20A3
ENCODING 8355
SWIDTH 625 0
DWIDTH 10 0
BBX 8 12 1 0
BITMAP
3F
30
30
30
30
3E
30
30
30
FC
30
30
ENDCHAR
STARTCHAR 20A4
ENCODING 8356
SWIDTH 625 0
DWIDTH 10 0
BBX 7 12 2 0
BITMAP
1E
30
30
30
F8
30
F8
30
30
30
60
FE
ENDCHAR
STARTCHAR 20A5
ENCODING 8357
SWIDTH 937 0
DWIDTH 15 0
BBX 12 14 2 -2
BITMAP
0080
0100
0100
DFE0
E630
C630
C630
C630
CE30
CE30
DE30
D630
1000
2000
ENDCHAR
STARTCHAR 20A6
ENCODING 8358
SWIDTH 812 0
DWIDTH 13 0
BBX 13 12 0 0
BITMAP
3020
3820
3820
2C20
FFF8
2620
2320
FFF8
21A0
20E0
20E0
2060
ENDCHAR
STARTCHAR 20A7
ENCODING 8359
SWIDTH 1312 0
DWIDTH 21 0
BBX 18 12 2 0
BITMAP
FC0000
CEC000
C6C000
C7F780
C6CC00
CCCC00
F8CE00
C0C780
C0C1C0
C0C0C0
C0C8C0
C07780
ENDCHAR
STARTCHAR 20A8
ENCODING 8360
SWIDTH 1000 0
DWIDTH 16 0
BBX 14 12 2 0
BITMAP
FC00
CE00
C600
C678
C6C0
CCC0
F8E0
DC78
CC1C
CE0C
C68C
C778
ENDCHAR
STARTCHAR 20A9
ENCODING 8361
SWIDTH 1062 0
DWIDTH 17 0
BBX 16 12 1 0
BITMAP
61C2
61C2
FFFF
33C4
33C4
FFFF
1A68
1A68
1A68
1E78
0C30
0C30
ENDCHAR
STARTCHAR 20AA
ENCODING 8362
SWIDTH 1062 0
DWIDTH 17 0
BBX 13 12 2 0
BITMAP
FF18
C198
C198
C198
CD98
CD98
CD98
CD98
CC18
CC18
CC18
CFF0
ENDCHAR
STARTCHAR 20AC
ENCODING 8364
SWIDTH 625 0
DWIDTH 10 0
BBX 9 12 0 0
BITMAP
1F00
3080
3000
6000
FE00
6000
FE00
6000
6000
3000
1880
0F00
ENDCHAR
STARTCHAR 2100
ENCODING 8448
SWIDTH 750 0
DWIDTH 12 0
BBX 12 12 0 0
BITMAP
3830
4860
98C0
9080
B100
D200
04E0
0900
1200
3200
6200
C3C0
ENDCHAR
STARTCHAR 2101
ENCODING 8449
SWIDTH 750 0
DWIDTH 12 0
BBX 12 12 0 0
BITMAP
3830
4860
98C0
9080
B100
D200
05C0
0900
1100
3080
6080
C380
ENDCHAR
STARTCHAR 2102
ENCODING 8450
SWIDTH 750 0
DWIDTH 12 0
BBX 10 12 1 0
BITMAP
0FC0
3800
5000
E000
A000
A000
A000
A000
E000
5000
2840
1F80
ENDCHAR
STARTCHAR 2103
ENCODING 8451
SWIDTH 937 0
DWIDTH 15 0
BBX 13 12 1 0
BITMAP
E1F0
A308
E600
0C00
0C00
0C00
0C00
0C00
0C00
0600
0708
01F0
ENDCHAR
STARTCHAR 2104
ENCODING 8452
SWIDTH 625 0
DWIDTH 10 0
BBX 8 12 1 0
BITMAP
18
3E
78
D8
D8
D8
D8
D8
78
3E
18
1F
ENDCHAR
STARTCHAR 2105
ENCODING 8453
SWIDTH 750 0
DWIDTH 12 0
BBX 12 12 0 0
BITMAP
1C30
2060
40C0
4080
4100
7A00
04C0
0920
1220
3220
6240
C180
ENDCHAR
STARTCHAR 2106
ENCODING 8454
SWIDTH 750 0
DWIDTH 12 0
BBX 12 12 0 0
BITMAP
1C30
2060
40C0
4080
7900
0200
0400
0920
1120
3240
62C0
C340
ENDCHAR
STARTCHAR 2107
ENCODING 8455
SWIDTH 625 0
DWIDTH 10 0
BBX 7 12 1 0
BITMAP
3C
62
60
60
20
18
60
C0
C0
C2
62
3C
ENDCHAR
STARTCHAR 2108
ENCODING 8456
SWIDTH 625 0
DWIDTH 10 0
BBX 8 12 1 0
BITMAP
78
8E
06
03
03
3F
03
03
03
06
0C
F8
ENDCHAR
STARTCHAR 2109
ENCODING 8457
SWIDTH 750 0
DWIDTH 12 0
BBX 11 12 1 0
BITMAP
E7E0
A600
E600
0600
0600
07C0
0600
0600
0600
0600
0600
0600
ENDCHAR
STARTCHAR 210A
ENCODING 8458
SWIDTH 750 0
DWIDTH 12 0
BBX 12 14 1 -5
BITMAP
1D80
3380
3180
6180
6300
6310
6720
3B40
0780
3B00
4300
8600
8C00
7800
ENDCHAR
STARTCHAR 210B
ENCODING 8459
SWIDTH 1125 0
DWIDTH 18 0
BBX 17 12 0 0
BITMAP
0F8780
318D80
218980
191980
031B00
03FC00
033000
023000
623000
C63400
C43800
783000
ENDCHAR
STARTCHAR 210C
ENCODING 8460
SWIDTH 625 0
DWIDTH 10 0
BBX 9 15 0 -3
BITMAP
0700
1900
2000
2200
2700
2B00
1980
1080
1080
1080
2080
F880
0100
0700
0400
ENDCHAR
STARTCHAR 210D
ENCODING 8461
SWIDTH 875 0
DWIDTH 14 0
BBX 10 12 2 0
BITMAP
E1C0
A140
A140
A140
A140
BF40
A140
A140
A140
A140
A140
E1C0
ENDCHAR
STARTCHAR 210E
ENCODING 8462
SWIDTH 687 0
DWIDTH 11 0
BBX 10 12 1 0
BITMAP
7000
3000
3000
7380
6D80
6980
7180
6300
6300
C300
C340
C380
ENDCHAR
STARTCHAR 210F
ENCODING 8463
SWIDTH 687 0
DWIDTH 11 0
BBX 11 12 1 0
BITMAP
7000
3000
3E00
F380
6D80
6980
7180
6300
6300
C300
C320
C3C0
ENDCHAR
STARTCHAR 2110
ENCODING 8464
SWIDTH 687 0
DWIDTH 11 0
BBX 11 15 0 -3
BITMAP
0040
01C0
0380
0D80
19A0
19A0
19C0
0F80
0300
0300
0300
0600
8600
8C00
7000
ENDCHAR
STARTCHAR 2111
ENCODING 8465
SWIDTH 687 0
DWIDTH 11 0
BBX 8 12 1 0
BITMAP
33
5E
C2
66
26
47
03
03
03
82
C4
38
ENDCHAR
STARTCHAR 2112
ENCODING 8466
SWIDTH 812 0
DWIDTH 13 0
BBX 12 12 0 0
BITMAP
00F0
2330
2630
3660
1F80
0E00
0E00
0E00
0C00
7C10
8E20
F1C0
ENDCHAR
STARTCHAR 2113
ENCODING 8467
SWIDTH 562 0
DWIDTH 9 0
BBX 9 12 0 0
BITMAP
0700
0C80
0C80
1880
1900
1A00
1C00
3800
F200
3400
3400
3800
ENDCHAR
STARTCHAR 2114
ENCODING 8468
SWIDTH 1000 0
DWIDTH 16 0
BBX 14 12 1 0
BITMAP
6300
FF80
6300
6370
6398
630C
630C
630C
630C
630C
6398
6370
ENDCHAR
STARTCHAR 2115
ENCODING 8469
SWIDTH 812 0
DWIDTH 13 0
BBX 9 12 2 0
BITMAP
C080
E080
B080
9080
C880
A480
9280
8980
8480
8680
8380
8180
ENDCHAR
STARTCHAR 2116
ENCODING 8470
SWIDTH 937 0
DWIDTH 15 0
BBX 13 12 2 0
BITMAP
8600
C600
C670
E6D8
E6D8
D6D8
D6D8
CE70
CE00
C6F8
C600
C200
ENDCHAR
STARTCHAR 2117
ENCODING 8471
SWIDTH 875 0
DWIDTH 14 0
BBX 12 12 1 0
BITMAP
0F00
30C0
4020
4F20
8910
8910
8E10
8810
4820
4020
30C0
0F00
ENDCHAR
STARTCHAR 2118
ENCODING 8472
SWIDTH 750 0
DWIDTH 12 0
BBX 10 13 0 -3
BITMAP
1000
2180
46C0
48C0
50C0
60C0
2080
7080
9700
9600
9000
9000
E000
ENDCHAR
STARTCHAR 2119
ENCODING 8473
SWIDTH 687 0
DWIDTH 11 0
BBX 9 12 2 0
BITMAP
FF00
A580
A280
A280
A280
A500
BE00
A000
A000
A000
A000
E000
ENDCHAR
STARTCHAR 211A
ENCODING 8474
SWIDTH 875 0
DWIDTH 14 0
BBX 12 14 1 -2
BITMAP
1F80
39C0
50A0
A050
A050
A050
A050
A050
E070
50A0
2940
1F80
00C0
0030
ENDCHAR
STARTCHAR 211B
ENCODING 8475
SWIDTH 937 0
DWIDTH 15 0
BBX 14 12 0 0
BITMAP
0FF0
3338
2318
1B18
0310
0760
0780
0640
6640
C464
CC28
7038
ENDCHAR
STARTCHAR 211C
ENCODING 8476
SWIDTH 937 0
DWIDTH 15 0
BBX 13 12 1 -1
BITMAP
30C0
DBC0
9C60
CC40
6C80
2D00
2F80
08C0
0840
0860
1038
3C30
ENDCHAR
STARTCHAR 211D
ENCODING 8477
SWIDTH 812 0
DWIDTH 13 0
BBX 10 12 2 0
BITMAP
FE00
AB00
A500
A500
A500
AA00
BC00
B400
AA00
A900
A480
E3C0
ENDCHAR
STARTCHAR 211E
ENCODING 8478
SWIDTH 625 0
DWIDTH 10 0
BBX 9 12 2 0
BITMAP
FC00
CE00
C600
C600
C600
CC00
F800
CD80
CF00
C600
CF00
DB80
ENDCHAR
STARTCHAR 211F
ENCODING 8479
SWIDTH 625 0
DWIDTH 10 0
BBX 9 16 2 -1
BITMAP
0600
0180
FC80
CF00
C700
C600
C600
CC00
F800
DC00
DC00
D600
E700
E380
4000
4000
ENDCHAR
STARTCHAR 2120
ENCODING 8480
SWIDTH 812 0
DWIDTH 13 0
BBX 11 6 1 6
BITMAP
7660
8660
C660
35A0
15A0
E5A0
ENDCHAR
STARTCHAR 2121
ENCODING 8481
SWIDTH 1500 0
DWIDTH 24 0
BBX 20 9 2 0
BITMAP
FFF980
18C180
18C180
18C180
18F180
18C180
18C180
18C180
18F9F0
ENDCHAR
STARTCHAR 2122
ENCODING 8482
SWIDTH 812 0
DWIDTH 13 0
BBX 12 6 0 6
BITMAP
FB10
2330
23B0
22D0
22D0
22D0
ENDCHAR
STARTCHAR 2123
ENCODING 8483
SWIDTH 625 0
DWIDTH 10 0
BBX 10 16 0 -1
BITMAP
0400
0300
C340
6280
6680
6480
3D00
3900
3900
1A00
1A00
3E00
2C00
4C00
4000
8000
ENDCHAR
STARTCHAR 2124
ENCODING 8484
SWIDTH 625 0
DWIDTH 10 0
BBX 9 12 1 0
BITMAP
FF80
0480
0900
0900
1200
1200
2400
2400
4800
4800
9000
FF80
ENDCHAR
STARTCHAR 2125
ENCODING 8485
SWIDTH 500 0
DWIDTH 8 0
BBX 7 15 1 -3
BITMAP
FE
0C
30
60
FE
0C
18
30
78
0C
06
06
06
0C
F8
ENDCHAR
STARTCHAR 2126
ENCODING 8486
SWIDTH 875 0
DWIDTH 14 0
BBX 12 12 1 0
BITMAP
1F80
70E0
6060
C030
C030
C030
C030
4020
6060
30C0
9090
F9F0
ENDCHAR
STARTCHAR 2127
ENCODING 8487
SWIDTH 875 0
DWIDTH 14 0
BBX 11 12 1 0
BITMAP
F1E0
9120
2080
60C0
4040
C060
C060
C060
C060
60C0
3180
1F00
ENDCHAR
STARTCHAR 2128
ENCODING 8488
SWIDTH 562 0
DWIDTH 9 0
BBX 8 12 0 0
BITMAP
61
9E
04
08
10
3E
47
03
03
02
C6
38
ENDCHAR
STARTCHAR 2129
ENCODING 8489
SWIDTH 375 0
DWIDTH 6 0
BBX 4 9 1 0
BITMAP
E0
30
30
30
30
30
30
30
30
ENDCHAR
STARTCHAR 212A
ENCODING 8490
SWIDTH 625 0
DWIDTH 10 0
BBX 9 12 2 0
BITMAP
C100
C200
C400
C800
D000
E000
F000
D800
CC00
C600
C300
C180
ENDCHAR
STARTCHAR 212B
ENCODING 8491
SWIDTH 687 0
DWIDTH 11 0
BBX 11 15 0 0
BITMAP
0E00
0A00
0E00
0600
0E00
0E00
1300
1300
1300
2180
3F80
41C0
40C0
40C0
8060
ENDCHAR
STARTCHAR 212C
ENCODING 8492
SWIDTH 812 0
DWIDTH 13 0
BBX 11 12 0 0
BITMAP
1F80
6660
4660
3660
0660
0EC0
0F80
0EC0
0C60
7860
9CE0
F780
ENDCHAR
STARTCHAR 212D
ENCODING 8493
SWIDTH 687 0
DWIDTH 11 0
BBX 10 12 0 0
BITMAP
1FC0
3000
5000
C800
CC00
C400
C400
C800
6000
6000
38C0
0F00
ENDCHAR
STARTCHAR 212E
ENCODING 8494
SWIDTH 875 0
DWIDTH 14 0
BBX 12 12 1 0
BITMAP
0F00
30C0
6060
4020
C030
FFF0
C000
C000
C000
6020
30C0
1F00
ENDCHAR
STARTCHAR 212F
ENCODING 8495
SWIDTH 500 0
DWIDTH 8 0
BBX 6 9 1 0
BITMAP
1C
2C
6C
CC
D8
F0
C4
C8
70
ENDCHAR
STARTCHAR 2130
ENCODING 8496
SWIDTH 562 0
DWIDTH 9 0
BBX 8 14 1 0
BITMAP
10
20
2F
31
6E
60
70
1C
60
C0
C0
C1
E2
7C
ENDCHAR
STARTCHAR 2131
ENCODING 8497
SWIDTH 812 0
DWIDTH 13 0
BBX 14 13 0 0
BITMAP
0004
0FF8
3300
2300
2700
1F20
07E0
0600
0600
6600
C400
CC00
7000
ENDCHAR
STARTCHAR 2132
ENCODING 8498
SWIDTH 687 0
DWIDTH 11 0
BBX 7 12 2 0
BITMAP
02
02
02
02
02
FE
02
02
02
02
02
FE
ENDCHAR
STARTCHAR 2133
ENCODING 8499
SWIDTH 1062 0
DWIDTH 17 0
BBX 15 12 0 0
BITMAP
399C
DFEC
99CC
198C
318C
318C
319C
3398
3318
731A
631C
6318
ENDCHAR
STARTCHAR 2134
ENCODING 8500
SWIDTH 562 0
DWIDTH 9 0
BBX 7 9 1 0
BITMAP
1C
26
66
C6
C6
C6
CC
CC
70
ENDCHAR
STARTCHAR 2135
ENCODING 8501
SWIDTH 687 0
DWIDTH 11 0
BBX 9 10 0 0
BITMAP
0200
0380
6180
2100
7900
4E00
8600
8100
E080
E080
ENDCHAR
STARTCHAR 2136
ENCODING 8502
SWIDTH 687 0
DWIDTH 11 0
BBX 8 9 2 1
BITMAP
FC
02
02
02
02
02
02
02
FF
ENDCHAR
STARTCHAR 2137
ENCODING 8503
SWIDTH 437 0
DWIDTH 7 0
BBX 6 9 1 1
BITMAP
60
70
10
10
08
08
38
28
C4
ENDCHAR
STARTCHAR 2138
ENCODING 8504
SWIDTH 625 0
DWIDTH 10 0
BBX 9 10 0 0
BITMAP
8000
FF80
0200
0200
0200
0200
0200
0200
0200
0200
ENDCHAR
STARTCHAR 215B
ENCODING 8539
SWIDTH 812 0
DWIDTH 13 0
BBX 11 12 1 0
BITMAP
C040
4080
4100
4200
4200
45C0
4A20
1340
11C0
2220
4220
81C0
ENDCHAR
STARTCHAR 215C
ENCODING 8540
SWIDTH 812 0
DWIDTH 13 0
BBX 11 12 1 0
BITMAP
E040
1080
1100
6200
1200
15C0
EA20
1340
11C0
2220
4220
81C0
ENDCHAR
STARTCHAR 215D
ENCODING 8541
SWIDTH 812 0
DWIDTH 13 0
BBX 12 12 0 0
BITMAP
F020
8040
8080
E100
1100
12E0
E510
09A0
08E0
1110
2110
40E0
ENDCHAR
STARTCHAR 215E
ENCODING 8542
SWIDTH 812 0
DWIDTH 13 0
BBX 11 12 1 0
BITMAP
F840
0880
1100
2200
6200
45C0
CA20
1340
11C0
2220
4220
81C0
ENDCHAR
STARTCHAR 2190
ENCODING 8592
SWIDTH 937 0
DWIDTH 15 0
BBX 12 5 2 2
BITMAP
2000
4000
FFF0
4000
2000
ENDCHAR
STARTCHAR 2191
ENCODING 8593
SWIDTH 500 0
DWIDTH 8 0
BBX 5 12 2 0
BITMAP
20
70
A8
20
20
20
20
20
20
20
20
20
ENDCHAR
STARTCHAR 2192
ENCODING 8594
SWIDTH 937 0
DWIDTH 15 0
BBX 12 5 2 2
BITMAP
0040
0020
FFF0
0020
0040
ENDCHAR
STARTCHAR 2193
ENCODING 8595
SWIDTH 500 0
DWIDTH 8 0
BBX 5 12 2 0
BITMAP
20
20
20
20
20
20
20
20
A8
70
30
20
ENDCHAR
STARTCHAR 2194
ENCODING 8596
SWIDTH 1187 0
DWIDTH 19 0
BBX 16 5 2 2
BITMAP
2004
4002
FFFF
4002
2004
ENDCHAR
STARTCHAR 2195
ENCODING 8597
SWIDTH 500 0
DWIDTH 8 0
BBX 5 16 2 -3
BITMAP
20
70
A8
20
20
20
20
20
20
20
20
20
20
A8
70
20
ENDCHAR
STARTCHAR 2196
ENCODING 8598
SWIDTH 750 0
DWIDTH 12 0
BBX 8 8 2 2
BITMAP
80
60
A0
10
08
04
02
01
ENDCHAR
STARTCHAR 2197
ENCODING 8599
SWIDTH 750 0
DWIDTH 12 0
BBX 8 8 2 2
BITMAP
01
06
06
08
10
20
40
80
ENDCHAR
STARTCHAR 2198
ENCODING 8600
SWIDTH 750 0
DWIDTH 12 0
BBX 8 8 2 1
BITMAP
80
40
20
10
09
05
03
01
ENDCHAR
STARTCHAR 2199
ENCODING 8601
SWIDTH 750 0
DWIDTH 12 0
BBX 8 8 2 1
BITMAP
01
02
04
08
10
A0
40
A0
ENDCHAR
STARTCHAR 219A
ENCODING 8602
SWIDTH 937 0
DWIDTH 15 0
BBX 12 5 2 2
BITMAP
1000
2100
FFF0
2200
1200
ENDCHAR
STARTCHAR 219B
ENCODING 8603
SWIDTH 937 0
DWIDTH 15 0
BBX 12 5 1 2
BITMAP
0480
0440
FFF0
0840
0080
ENDCHAR
STARTCHAR 219C
ENCODING 8604
SWIDTH 812 0
DWIDTH 13 0
BBX 9 4 2 3
BITMAP
8000
F700
E480
B800
ENDCHAR
STARTCHAR 219D
ENCODING 8605
SWIDTH 812 0
DWIDTH 13 0
BBX 9 4 2 3
BITMAP
0080
7780
9380
0E80
ENDCHAR
STARTCHAR 219E
ENCODING 8606
SWIDTH 937 0
DWIDTH 15 0
BBX 12 5 2 2
BITMAP
2400
4800
FFF0
4800
2400
ENDCHAR
STARTCHAR 219F
ENCODING 8607
SWIDTH 500 0
DWIDTH 8 0
BBX 5 12 2 0
BITMAP
20
70
A8
20
70
A8
20
20
20
20
20
20
ENDCHAR
STARTCHAR 21A0
ENCODING 8608
SWIDTH 937 0
DWIDTH 15 0
BBX 12 5 2 2
BITMAP
0240
0120
FFF0
0120
0240
ENDCHAR
STARTCHAR 21A1
ENCODING 8609
SWIDTH 500 0
DWIDTH 8 0
BBX 5 12 2 0
BITMAP
20
20
20
20
20
20
A8
70
20
A8
70
20
ENDCHAR
STARTCHAR 21A2
ENCODING 8610
SWIDTH 937 0
DWIDTH 15 0
BBX 12 5 2 2
BITMAP
2010
4020
FFC0
4020
2010
ENDCHAR
STARTCHAR 21A3
ENCODING 8611
SWIDTH 937 0
DWIDTH 15 0
BBX 12 5 1 2
BITMAP
8040
4020
3FF0
4020
8040
ENDCHAR
STARTCHAR 21A4
ENCODING 8612
SWIDTH 937 0
DWIDTH 15 0
BBX 12 5 2 2
BITMAP
2010
4010
FFF0
4010
2010
ENDCHAR
STARTCHAR 21A5
ENCODING 8613
SWIDTH 500 0
DWIDTH 8 0
BBX 5 12 2 0
BITMAP
20
70
A8
20
20
20
20
20
20
20
20
F8
ENDCHAR
STARTCHAR 21A6
ENCODING 8614
SWIDTH 937 0
DWIDTH 15 0
BBX 12 5 1 2
BITMAP
8040
8020
FFF0
8020
8040
ENDCHAR
STARTCHAR 21A7
ENCODING 8615
SWIDTH 500 0
DWIDTH 8 0
BBX 5 12 2 0
BITMAP
F8
20
20
20
20
20
20
20
20
A8
70
20
ENDCHAR
STARTCHAR 21A8
ENCODING 8616
SWIDTH 500 0
DWIDTH 8 0
BBX 6 12 1 0
BITMAP
10
38
54
10
10
10
10
54
38
10
00
FC
ENDCHAR
STARTCHAR 21A9
ENCODING 8617
SWIDTH 937 0
DWIDTH 15 0
BBX 12 6 2 2
BITMAP
0020
2010
4010
FFE0
4000
2000
ENDCHAR
STARTCHAR 21AA
ENCODING 8618
SWIDTH 937 0
DWIDTH 15 0
BBX 12 6 1 2
BITMAP
4000
8040
8020
7FF0
0020
0040
ENDCHAR
STARTCHAR 21AB
ENCODING 8619
SWIDTH 937 0
DWIDTH 15 0
BBX 12 6 2 2
BITMAP
0060
2050
4050
FFF0
4040
2040
ENDCHAR
STARTCHAR 21AC
ENCODING 8620
SWIDTH 937 0
DWIDTH 15 0
BBX 12 6 1 2
BITMAP
6000
A040
A020
FFF0
2020
2040
ENDCHAR
STARTCHAR 21AD
ENCODING 8621
SWIDTH 1187 0
DWIDTH 19 0
BBX 16 5 2 2
BITMAP
2004
4182
F3CF
4E72
2004
ENDCHAR
STARTCHAR 21AE
ENCODING 8622
SWIDTH 1187 0
DWIDTH 19 0
BBX 16 5 2 2
BITMAP
2084
4082
FFFF
4102
2104
ENDCHAR
STARTCHAR 21AF
ENCODING 8623
SWIDTH 687 0
DWIDTH 11 0
BBX 7 12 2 0
BITMAP
04
08
10
20
40
FE
04
08
10
A0
E0
C0
ENDCHAR
STARTCHAR 21B0
ENCODING 8624
SWIDTH 687 0
DWIDTH 11 0
BBX 7 12 2 0
BITMAP
20
40
FE
42
22
02
02
02
02
02
02
02
ENDCHAR
STARTCHAR 21B1
ENCODING 8625
SWIDTH 687 0
DWIDTH 11 0
BBX 7 12 2 0
BITMAP
08
04
FE
84
88
80
80
80
80
80
80
80
ENDCHAR
STARTCHAR 21B2
ENCODING 8626
SWIDTH 687 0
DWIDTH 11 0
BBX 7 12 2 0
BITMAP
02
02
02
02
02
02
02
22
42
FE
40
20
ENDCHAR
STARTCHAR 21B3
ENCODING 8627
SWIDTH 687 0
DWIDTH 11 0
BBX 7 12 2 0
BITMAP
80
80
80
80
80
80
80
88
84
FE
04
08
ENDCHAR
STARTCHAR 21B4
ENCODING 8628
SWIDTH 687 0
DWIDTH 11 0
BBX 7 12 2 0
BITMAP
F8
08
08
08
08
08
08
08
08
2A
1C
08
ENDCHAR
STARTCHAR 21B5
ENCODING 8629
SWIDTH 937 0
DWIDTH 15 0
BBX 12 12 2 0
BITMAP
0010
0010
0010
0010
0010
0010
0010
2010
4010
FFF0
4000
2000
ENDCHAR
STARTCHAR 21B6
ENCODING 8630
SWIDTH 1000 0
DWIDTH 16 0
BBX 13 6 2 3
BITMAP
0F80
1860
2010
C010
6008
4008
ENDCHAR
STARTCHAR 21B7
ENCODING 8631
SWIDTH 1000 0
DWIDTH 16 0
BBX 12 6 2 3
BITMAP
1F00
3080
4040
C030
8060
8020
ENDCHAR
STARTCHAR 21B8
ENCODING 8632
SWIDTH 937 0
DWIDTH 15 0
BBX 12 10 2 2
BITMAP
FFF0
0000
7800
2000
5000
0800
0400
0200
0100
0080
ENDCHAR
STARTCHAR 21B9
ENCODING 8633
SWIDTH 937 0
DWIDTH 15 0
BBX 12 11 2 -1
BITMAP
0800
9000
BFF0
9000
8800
0000
0110
0090
FFD0
0090
0100
ENDCHAR
STARTCHAR 21BA
ENCODING 8634
SWIDTH 937 0
DWIDTH 15 0
BBX 12 12 2 0
BITMAP
00C0
00E0
40A0
4020
8010
8010
8010
8010
C020
4020
30C0
0F00
ENDCHAR
STARTCHAR 21BB
ENCODING 8635
SWIDTH 937 0
DWIDTH 15 0
BBX 12 12 2 0
BITMAP
3000
7000
6020
4020
8010
8010
8010
8010
4030
4020
30C0
0F00
ENDCHAR
STARTCHAR 21BC
ENCODING 8636
SWIDTH 937 0
DWIDTH 15 0
BBX 11 2 3 4
BITMAP
2000
FFE0
ENDCHAR
STARTCHAR 21BD
ENCODING 8637
SWIDTH 937 0
DWIDTH 15 0
BBX 11 2 3 3
BITMAP
FFE0
2000
ENDCHAR
STARTCHAR 21BE
ENCODING 8638
SWIDTH 437 0
DWIDTH 7 0
BBX 2 11 2 1
BITMAP
80
80
C0
80
80
80
80
80
80
80
80
ENDCHAR
STARTCHAR 21BF
ENCODING 8639
SWIDTH 437 0
DWIDTH 7 0
BBX 2 11 3 1
BITMAP
40
40
C0
40
40
40
40
40
40
40
40
ENDCHAR
STARTCHAR 21C0
ENCODING 8640
SWIDTH 937 0
DWIDTH 15 0
BBX 11 2 2 4
BITMAP
0080
FFE0
ENDCHAR
STARTCHAR 21C1
ENCODING 8641
SWIDTH 937 0
DWIDTH 15 0
BBX 11 2 2 3
BITMAP
FFE0
0080
ENDCHAR
STARTCHAR 21C2
ENCODING 8642
SWIDTH 437 0
DWIDTH 7 0
BBX 2 11 2 0
BITMAP
80
80
80
80
80
80
80
80
C0
80
80
ENDCHAR
STARTCHAR 21C3
ENCODING 8643
SWIDTH 437 0
DWIDTH 7 0
BBX 2 11 3 0
BITMAP
40
40
40
40
40
40
40
40
C0
40
40
ENDCHAR
STARTCHAR 21C4
ENCODING 8644
SWIDTH 937 0
DWIDTH 15 0
BBX 12 9 2 0
BITMAP
0040
0020
FFF0
0020
2040
4000
FFF0
4000
2000
ENDCHAR
STARTCHAR 21C5
ENCODING 8645
SWIDTH 750 0
DWIDTH 12 0
BBX 9 12 2 0
BITMAP
2200
7200
AA00
2200
2200
2200
2200
2200
2200
2A80
2700
2200
ENDCHAR
STARTCHAR 21C6
ENCODING 8646
SWIDTH 937 0
DWIDTH 15 0
BBX 12 9 2 0
BITMAP
2000
4000
FFF0
4000
2040
0020
FFF0
0020
0040
ENDCHAR
STARTCHAR 21C7
ENCODING 8647
SWIDTH 937 0
DWIDTH 15 0
BBX 12 9 2 0
BITMAP
2000
4000
FFF0
4000
2000
4000
FFF0
4000
2000
ENDCHAR
STARTCHAR 21C8
ENCODING 8648
SWIDTH 750 0
DWIDTH 12 0
BBX 9 12 2 0
BITMAP
2200
7700
BA80
2200
2200
2200
2200
2200
2200
2200
2200
2200
ENDCHAR
STARTCHAR 21C9
ENCODING 8649
SWIDTH 937 0
DWIDTH 15 0
BBX 12 9 2 0
BITMAP
0040
0020
FFF0
0020
0040
0020
FFF0
0020
0040
ENDCHAR
STARTCHAR 21CA
ENCODING 8650
SWIDTH 750 0
DWIDTH 12 0
BBX 9 12 2 0
BITMAP
2200
2200
2200
2200
2200
2200
2200
2200
2200
AA80
7700
2200
ENDCHAR
STARTCHAR 21CB
ENCODING 8651
SWIDTH 937 0
DWIDTH 15 0
BBX 12 8 2 1
BITMAP
1000
2000
7FF0
0000
0000
FFE0
0040
0080
ENDCHAR
STARTCHAR 21CC
ENCODING 8652
SWIDTH 937 0
DWIDTH 15 0
BBX 12 9 2 0
BITMAP
0080
0040
FFE0
0000
0000
0000
7FF0
2000
1000
ENDCHAR
STARTCHAR 21CD
ENCODING 8653
SWIDTH 937 0
DWIDTH 15 0
BBX 10 10 3 0
BITMAP
0080
1100
2100
7FC0
8200
8200
7FC0
2400
1400
0400
ENDCHAR
STARTCHAR 21CE
ENCODING 8654
SWIDTH 1187 0
DWIDTH 19 0
BBX 16 10 2 0
BITMAP
0040
0850
1088
3FFC
4082
C103
7FFE
1108
0A10
0200
ENDCHAR
STARTCHAR 21CF
ENCODING 8655
SWIDTH 937 0
DWIDTH 15 0
BBX 10 10 2 0
BITMAP
0800
0A00
1100
FF80
1040
2040
FF80
2100
2200
4000
ENDCHAR
STARTCHAR 21D0
ENCODING 8656
SWIDTH 937 0
DWIDTH 15 0
BBX 10 8 3 1
BITMAP
1000
2000
7FC0
8000
8000
7FC0
2000
1000
ENDCHAR
STARTCHAR 21D1
ENCODING 8657
SWIDTH 750 0
DWIDTH 12 0
BBX 8 11 2 1
BITMAP
18
24
66
A5
24
24
24
24
24
24
24
ENDCHAR
STARTCHAR 21D2
ENCODING 8658
SWIDTH 937 0
DWIDTH 15 0
BBX 10 8 2 1
BITMAP
0200
0100
FF80
0040
0040
FF80
0100
0200
ENDCHAR
STARTCHAR 21D3
ENCODING 8659
SWIDTH 750 0
DWIDTH 12 0
BBX 8 11 2 0
BITMAP
24
24
24
24
24
24
24
A5
66
24
18
ENDCHAR
STARTCHAR 21D4
ENCODING 8660
SWIDTH 1187 0
DWIDTH 19 0
BBX 14 8 3 1
BITMAP
1020
2010
7FF8
8004
8004
7FF8
2010
1020
ENDCHAR
STARTCHAR 21D5
ENCODING 8661
SWIDTH 750 0
DWIDTH 12 0
BBX 8 14 2 -2
BITMAP
18
24
66
A5
24
24
24
24
24
24
A5
66
24
18
ENDCHAR
STARTCHAR 21D6
ENCODING 8662
SWIDTH 812 0
DWIDTH 13 0
BBX 10 10 2 0
BITMAP
E000
9C00
8800
4400
6200
5100
0880
0440
0200
0100
ENDCHAR
STARTCHAR 21D7
ENCODING 8663
SWIDTH 812 0
DWIDTH 13 0
BBX 10 10 1 0
BITMAP
01C0
0E40
0440
0880
1180
2280
4400
8800
1000
2000
ENDCHAR
STARTCHAR 21D8
ENCODING 8664
SWIDTH 812 0
DWIDTH 13 0
BBX 10 10 1 0
BITMAP
2000
1000
8800
4400
2280
1180
0880
0440
0E40
01C0
ENDCHAR
STARTCHAR 21D9
ENCODING 8665
SWIDTH 812 0
DWIDTH 13 0
BBX 10 10 2 0
BITMAP
0100
0200
0440
0880
5100
6200
4400
8800
9C00
E000
ENDCHAR
STARTCHAR 21DA
ENCODING 8666
SWIDTH 937 0
DWIDTH 15 0
BBX 12 9 2 0
BITMAP
0800
1800
2FF0
4000
FFF0
4000
2FF0
1800
0800
ENDCHAR
STARTCHAR 21DB
ENCODING 8667
SWIDTH 937 0
DWIDTH 15 0
BBX 12 9 2 0
BITMAP
0100
0180
FF40
0020
FFF0
0020
FF40
0180
0100
ENDCHAR
STARTCHAR 21DC
ENCODING 8668
SWIDTH 1187 0
DWIDTH 19 0
BBX 16 5 2 2
BITMAP
1000
208C
F193
2A60
1620
ENDCHAR
STARTCHAR 21DD
ENCODING 8669
SWIDTH 1187 0
DWIDTH 19 0
BBX 16 5 2 2
BITMAP
0004
3106
C98F
0A56
0464
ENDCHAR
STARTCHAR 21DE
ENCODING 8670
SWIDTH 500 0
DWIDTH 8 0
BBX 5 12 2 0
BITMAP
20
70
A8
20
20
20
F8
20
20
F8
20
20
ENDCHAR
STARTCHAR 21DF
ENCODING 8671
SWIDTH 500 0
DWIDTH 8 0
BBX 5 12 2 0
BITMAP
20
20
F8
20
20
F8
20
20
20
A8
70
20
ENDCHAR
STARTCHAR 21E0
ENCODING 8672
SWIDTH 937 0
DWIDTH 15 0
BBX 12 5 2 2
BITMAP
2000
6000
F550
6000
2000
ENDCHAR
STARTCHAR 21E1
ENCODING 8673
SWIDTH 500 0
DWIDTH 8 0
BBX 5 12 2 0
BITMAP
20
70
F8
20
00
20
00
20
00
20
00
20
ENDCHAR
STARTCHAR 21E2
ENCODING 8674
SWIDTH 937 0
DWIDTH 15 0
BBX 12 5 2 2
BITMAP
0040
0060
AAF0
0060
0040
ENDCHAR
STARTCHAR 21E3
ENCODING 8675
SWIDTH 500 0
DWIDTH 8 0
BBX 5 12 2 0
BITMAP
20
00
20
00
20
00
20
00
20
F8
70
20
ENDCHAR
STARTCHAR 21E4
ENCODING 8676
SWIDTH 937 0
DWIDTH 15 0
BBX 12 5 2 2
BITMAP
8800
9800
BFF0
9800
0800
ENDCHAR
STARTCHAR 21E5
ENCODING 8677
SWIDTH 937 0
DWIDTH 15 0
BBX 12 5 2 2
BITMAP
0110
0190
FFD0
0190
0100
ENDCHAR
STARTCHAR 21E6
ENCODING 8678
SWIDTH 937 0
DWIDTH 15 0
BBX 11 8 3 1
BITMAP
1000
3000
5FE0
8020
8020
5FE0
3000
1000
ENDCHAR
STARTCHAR 21E7
ENCODING 8679
SWIDTH 750 0
DWIDTH 12 0
BBX 8 11 2 1
BITMAP
18
24
42
E7
24
24
24
24
24
24
3C
ENDCHAR
STARTCHAR 21E8
ENCODING 8680
SWIDTH 937 0
DWIDTH 15 0
BBX 11 8 2 1
BITMAP
0100
0180
FF40
8020
8020
FF40
0180
0100
ENDCHAR
STARTCHAR 21E9
ENCODING 8681
SWIDTH 750 0
DWIDTH 12 0
BBX 8 11 2 0
BITMAP
3C
24
24
24
24
24
24
E7
42
24
18
ENDCHAR
STARTCHAR 21EA
ENCODING 8682
SWIDTH 750 0
DWIDTH 12 0
BBX 8 14 2 -2
BITMAP
18
24
42
E7
24
24
24
24
24
3C
3C
24
24
3C
ENDCHAR
STARTCHAR 2200
ENCODING 8704
SWIDTH 875 0
DWIDTH 14 0
BBX 11 12 2 0
BITMAP
8020
4040
4040
7FC0
2080
2080
1100
1100
1300
0A00
0A00
0400
ENDCHAR
STARTCHAR 2201
ENCODING 8705
SWIDTH 687 0
DWIDTH 11 0
BBX 8 16 2 -2
BITMAP
3C
42
81
81
80
80
80
80
80
80
80
80
81
81
42
3C
ENDCHAR
STARTCHAR 2202
ENCODING 8706
SWIDTH 625 0
DWIDTH 10 0
BBX 7 12 2 0
BITMAP
78
84
02
02
3A
66
62
C2
C4
C4
C8
70
ENDCHAR
STARTCHAR 2203
ENCODING 8707
SWIDTH 687 0
DWIDTH 11 0
BBX 7 12 2 0
BITMAP
FE
02
02
02
02
FE
02
02
02
02
02
FE
ENDCHAR
STARTCHAR 2204
ENCODING 8708
SWIDTH 687 0
DWIDTH 11 0
BBX 7 15 2 -2
BITMAP
04
04
FE
0A
0A
12
12
FE
22
22
22
42
42
FE
40
ENDCHAR
STARTCHAR 2205
ENCODING 8709
SWIDTH 1000 0
DWIDTH 16 0
BBX 12 12 2 0
BITMAP
0F10
30E0
4060
40A0
8110
8210
8410
8810
5020
6020
70C0
8F00
ENDCHAR
STARTCHAR 2206
ENCODING 8710
SWIDTH 875 0
DWIDTH 14 0
BBX 11 12 2 0
BITMAP
0400
0600
0A00
0B00
1100
1100
2080
2080
4040
4040
8020
FFE0
ENDCHAR
STARTCHAR 2207
ENCODING 8711
SWIDTH 875 0
DWIDTH 14 0
BBX 11 12 2 0
BITMAP
FFE0
C020
4040
6040
2080
3080
1100
1900
0A00
0E00
0400
0400
ENDCHAR
STARTCHAR 2208
ENCODING 8712
SWIDTH 812 0
DWIDTH 13 0
BBX 9 9 2 0
BITMAP
3F80
6000
C000
8000
FF80
8000
C000
6000
3F80
ENDCHAR
STARTCHAR 2209
ENCODING 8713
SWIDTH 812 0
DWIDTH 13 0
BBX 9 13 2 -2
BITMAP
0100
0100
3F80
6200
C200
8400
FF80
8400
C800
6800
3F80
1000
1000
ENDCHAR
STARTCHAR 220A
ENCODING 8714
SWIDTH 687 0
DWIDTH 11 0
BBX 7 9 2 0
BITMAP
1E
30
60
C0
FC
C0
C0
C0
7C
ENDCHAR
STARTCHAR 220B
ENCODING 8715
SWIDTH 812 0
DWIDTH 13 0
BBX 9 9 2 0
BITMAP
FE00
0300
0180
0080
FF80
0080
0180
0300
FE00
ENDCHAR
STARTCHAR 220C
ENCODING 8716
SWIDTH 812 0
DWIDTH 13 0
BBX 9 13 2 -2
BITMAP
0400
0400
FE00
0B00
0980
1080
FF80
1080
2180
2300
FE00
4000
4000
ENDCHAR
STARTCHAR 220D
ENCODING 8717
SWIDTH 687 0
DWIDTH 11 0
BBX 7 9 2 0
BITMAP
7C
06
06
06
7E
06
0C
18
F0
ENDCHAR
STARTCHAR 220E
ENCODING 8718
SWIDTH 812 0
DWIDTH 13 0
BBX 9 9 2 0
BITMAP
FF80
FF80
FF80
FF80
FF80
FF80
FF80
FF80
FF80
ENDCHAR
STARTCHAR 220F
ENCODING 8719
SWIDTH 937 0
DWIDTH 15 0
BBX 11 12 2 0
BITMAP
FFE0
60C0
60C0
60C0
60C0
60C0
60C0
60C0
60C0
60C0
60C0
F1E0
ENDCHAR
STARTCHAR 2210
ENCODING 8720
SWIDTH 937 0
DWIDTH 15 0
BBX 11 12 2 0
BITMAP
F1E0
60C0
60C0
60C0
60C0
60C0
60C0
60C0
60C0
60C0
60C0
FFE0
ENDCHAR
STARTCHAR 2211
ENCODING 8721
SWIDTH 812 0
DWIDTH 13 0
BBX 9 12 2 0
BITMAP
FF80
C080
6000
3000
1800
0C00
0400
0800
3000
4000
8080
FF80
ENDCHAR
STARTCHAR 2212
ENCODING 8722
SWIDTH 812 0
DWIDTH 13 0
BBX 9 1 2 4
BITMAP
FF80
ENDCHAR
STARTCHAR 2213
ENCODING 8723
SWIDTH 812 0
DWIDTH 13 0
BBX 9 10 2 0
BITMAP
FF80
0000
0000
0800
0800
0800
FF80
0800
0800
0800
ENDCHAR
STARTCHAR 2214
ENCODING 8724
SWIDTH 812 0
DWIDTH 13 0
BBX 9 11 2 0
BITMAP
0C00
0C00
0000
0000
0800
0800
0800
FF80
0800
0800
0800
ENDCHAR
STARTCHAR 2215
ENCODING 8725
SWIDTH 500 0
DWIDTH 8 0
BBX 5 14 2 -2
BITMAP
08
08
10
10
10
20
20
20
40
40
40
40
80
80
ENDCHAR
STARTCHAR 2216
ENCODING 8726
SWIDTH 500 0
DWIDTH 8 0
BBX 5 14 2 -2
BITMAP
80
80
40
40
40
40
20
20
20
10
10
10
08
08
ENDCHAR
STARTCHAR 2217
ENCODING 8727
SWIDTH 812 0
DWIDTH 13 0
BBX 9 9 2 0
BITMAP
0800
0800
8880
6B00
1C00
3E00
C980
0800
0800
ENDCHAR
STARTCHAR 2218
ENCODING 8728
SWIDTH 562 0
DWIDTH 9 0
BBX 6 6 2 1
BITMAP
78
CC
84
84
CC
78
ENDCHAR
STARTCHAR 2219
ENCODING 8729
SWIDTH 562 0
DWIDTH 9 0
BBX 6 6 2 1
BITMAP
78
FC
FC
FC
FC
78
ENDCHAR
STARTCHAR 221A
ENCODING 8730
SWIDTH 812 0
DWIDTH 13 0
BBX 12 16 1 -2
BITMAP
0010
0020
0020
0020
0040
0040
0080
0080
0080
C100
2100
2200
1200
1200
0C00
0400
ENDCHAR
STARTCHAR 221B
ENCODING 8731
SWIDTH 812 0
DWIDTH 13 0
BBX 12 16 1 -2
BITMAP
1E10
0220
0220
0C20
0240
0240
1C80
0080
0080
C100
2100
2200
1200
1200
0C00
0400
ENDCHAR
STARTCHAR 221C
ENCODING 8732
SWIDTH 812 0
DWIDTH 13 0
BBX 12 16 1 -2
BITMAP
0410
0C20
1420
3420
3E40
0440
0480
0080
0080
C100
2100
2200
1200
1200
0C00
0400
ENDCHAR
STARTCHAR 221D
ENCODING 8733
SWIDTH 937 0
DWIDTH 15 0
BBX 12 7 2 1
BITMAP
70F0
4900
8600
8600
8600
C900
70F0
ENDCHAR
STARTCHAR 221E
ENCODING 8734
SWIDTH 937 0
DWIDTH 15 0
BBX 12 7 2 1
BITMAP
30C0
4920
8610
8610
8610
4920
30C0
ENDCHAR
STARTCHAR 221F
ENCODING 8735
SWIDTH 812 0
DWIDTH 13 0
BBX 9 9 2 0
BITMAP
8000
8000
8000
8000
8000
8000
8000
8000
FF80
ENDCHAR
STARTCHAR 2220
ENCODING 8736
SWIDTH 812 0
DWIDTH 13 0
BBX 9 9 2 0
BITMAP
0080
0100
0200
0400
0800
1000
2000
4000
FF80
ENDCHAR
STARTCHAR 2221
ENCODING 8737
SWIDTH 812 0
DWIDTH 13 0
BBX 9 11 2 -3
BITMAP
0080
0180
0300
3600
0C00
1C00
3200
6200
FF80
0200
0200
ENDCHAR
STARTCHAR 2222
ENCODING 8738
SWIDTH 812 0
DWIDTH 13 0
BBX 9 10 2 0
BITMAP
0800
0400
0480
0700
3A00
C200
3A00
0700
0480
0800
ENDCHAR
STARTCHAR 2223
ENCODING 8739
SWIDTH 375 0
DWIDTH 6 0
BBX 1 14 3 -2
BITMAP
80
80
80
80
80
80
80
80
80
80
80
80
80
80
ENDCHAR
STARTCHAR 2224
ENCODING 8740
SWIDTH 500 0
DWIDTH 8 0
BBX 5 14 2 -2
BITMAP
20
20
20
20
20
38
30
60
A0
20
20
20
20
20
ENDCHAR
STARTCHAR 2225
ENCODING 8741
SWIDTH 562 0
DWIDTH 9 0
BBX 4 14 3 -2
BITMAP
90
90
90
90
90
90
90
90
90
90
90
90
90
90
ENDCHAR
STARTCHAR 2226
ENCODING 8742
SWIDTH 687 0
DWIDTH 11 0
BBX 9 14 2 -2
BITMAP
2200
2200
2200
2280
2300
2200
2E00
3A00
3200
6200
A200
2200
2200
2200
ENDCHAR
STARTCHAR 2227
ENCODING 8743
SWIDTH 812 0
DWIDTH 13 0
BBX 9 9 2 0
BITMAP
0800
0800
1400
1400
2200
2200
4100
4100
8080
ENDCHAR
STARTCHAR 2228
ENCODING 8744
SWIDTH 812 0
DWIDTH 13 0
BBX 9 9 2 0
BITMAP
8080
4100
4100
2200
2200
1400
1400
0800
0800
ENDCHAR
STARTCHAR 2229
ENCODING 8745
SWIDTH 812 0
DWIDTH 13 0
BBX 9 9 2 0
BITMAP
1E00
6100
4180
8080
8080
8080
8080
8080
8080
ENDCHAR
STARTCHAR 222A
ENCODING 8746
SWIDTH 812 0
DWIDTH 13 0
BBX 9 9 2 0
BITMAP
8080
8080
8080
8080
8080
8080
C180
6300
3E00
ENDCHAR
STARTCHAR 222B
ENCODING 8747
SWIDTH 562 0
DWIDTH 9 0
BBX 6 14 2 -2
BITMAP
1C
1C
30
30
30
30
30
30
30
30
30
30
E0
E0
ENDCHAR
STARTCHAR 222C
ENCODING 8748
SWIDTH 875 0
DWIDTH 14 0
BBX 9 14 2 -2
BITMAP
1980
2A80
2200
2200
2200
2200
2200
2200
2200
2200
2200
2200
AA00
CC00
ENDCHAR
STARTCHAR 222D
ENCODING 8749
SWIDTH 1125 0
DWIDTH 18 0
BBX 13 14 2 -2
BITMAP
1998
2AA8
2220
2220
2220
2220
2220
2220
2220
2220
2220
2220
AAA0
CCC0
ENDCHAR
STARTCHAR 222E
ENCODING 8750
SWIDTH 625 0
DWIDTH 10 0
BBX 7 14 1 -2
BITMAP
0C
14
10
10
38
D6
92
92
D6
38
10
10
50
60
ENDCHAR
STARTCHAR 222F
ENCODING 8751
SWIDTH 875 0
DWIDTH 14 0
BBX 11 14 1 -2
BITMAP
0CC0
1540
1100
1F00
71C0
9120
9120
71C0
1F00
1100
1100
1100
6600
6600
ENDCHAR
STARTCHAR 2230
ENCODING 8752
SWIDTH 1187 0
DWIDTH 19 0
BBX 15 14 1 -2
BITMAP
0CCC
1554
1110
1110
1FF0
711C
9112
9112
711C
1FF0
1110
1110
5550
6660
ENDCHAR
STARTCHAR 2231
ENCODING 8753
SWIDTH 625 0
DWIDTH 10 0
BBX 7 14 1 -2
BITMAP
0C
14
10
10
38
5C
94
9E
14
10
10
10
50
60
ENDCHAR
STARTCHAR 2232
ENCODING 8754
SWIDTH 625 0
DWIDTH 10 0
BBX 7 14 1 -2
BITMAP
0C
14
10
10
38
D4
9E
94
D8
38
10
10
50
60
ENDCHAR
STARTCHAR 2233
ENCODING 8755
SWIDTH 625 0
DWIDTH 10 0
BBX 7 14 1 -2
BITMAP
0C
14
10
10
38
D8
94
9E
D4
38
10
10
50
60
ENDCHAR
STARTCHAR 2234
ENCODING 8756
SWIDTH 812 0
DWIDTH 13 0
BBX 9 9 2 0
BITMAP
0C00
0C00
0000
0000
0000
0000
0000
C180
C180
ENDCHAR
STARTCHAR 2235
ENCODING 8757
SWIDTH 812 0
DWIDTH 13 0
BBX 9 9 2 0
BITMAP
C180
C180
0000
0000
0000
0000
0000
0C00
0C00
ENDCHAR
STARTCHAR 2236
ENCODING 8758
SWIDTH 437 0
DWIDTH 7 0
BBX 2 9 3 0
BITMAP
C0
C0
00
00
C0
C0
00
C0
C0
ENDCHAR
STARTCHAR 2237
ENCODING 8759
SWIDTH 812 0
DWIDTH 13 0
BBX 9 9 2 0
BITMAP
C180
C180
0000
0000
0000
0000
0000
C180
C180
ENDCHAR
STARTCHAR 2238
ENCODING 8760
SWIDTH 812 0
DWIDTH 13 0
BBX 9 5 2 4
BITMAP
0C00
0C00
0000
0000
FF80
ENDCHAR
STARTCHAR 2239
ENCODING 8761
SWIDTH 812 0
DWIDTH 13 0
BBX 9 9 2 0
BITMAP
0180
0180
0000
0000
FE00
0000
0000
0180
0180
ENDCHAR
STARTCHAR 223A
ENCODING 8762
SWIDTH 812 0
DWIDTH 13 0
BBX 9 9 2 0
BITMAP
C180
C180
0000
0000
FF80
0000
0000
C180
C180
ENDCHAR
STARTCHAR 223B
ENCODING 8763
SWIDTH 812 0
DWIDTH 13 0
BBX 9 7 2 2
BITMAP
0C00
0C00
7080
8880
8700
0C00
0C00
ENDCHAR
STARTCHAR 223C
ENCODING 8764
SWIDTH 812 0
DWIDTH 13 0
BBX 9 3 2 3
BITMAP
7080
8880
8700
ENDCHAR
STARTCHAR 223D
ENCODING 8765
SWIDTH 812 0
DWIDTH 13 0
BBX 9 3 2 3
BITMAP
8700
8880
7080
ENDCHAR
STARTCHAR 223E
ENCODING 8766
SWIDTH 812 0
DWIDTH 13 0
BBX 9 5 2 2
BITMAP
7300
9080
8880
8480
6700
ENDCHAR
STARTCHAR 223F
ENCODING 8767
SWIDTH 812 0
DWIDTH 13 0
BBX 9 9 2 0
BITMAP
7000
5000
4800
8800
8880
0880
0500
0500
0300
ENDCHAR
STARTCHAR 2240
ENCODING 8768
SWIDTH 500 0
DWIDTH 8 0
BBX 3 12 3 -2
BITMAP
C0
60
20
20
20
40
40
80
80
80
C0
60
ENDCHAR
STARTCHAR 2241
ENCODING 8769
SWIDTH 812 0
DWIDTH 13 0
BBX 9 7 2 1
BITMAP
0400
0400
7880
9C80
8B00
1000
1000
ENDCHAR
STARTCHAR 2242
ENCODING 8770
SWIDTH 812 0
DWIDTH 13 0
BBX 9 6 2 2
BITMAP
FF80
0000
0000
6080
9880
8700
ENDCHAR
STARTCHAR 2243
ENCODING 8771
SWIDTH 812 0
DWIDTH 13 0
BBX 9 6 2 2
BITMAP
6080
9880
8700
0000
0000
FF80
ENDCHAR
STARTCHAR 2244
ENCODING 8772
SWIDTH 812 0
DWIDTH 13 0
BBX 9 9 2 0
BITMAP
0400
6480
9C80
8F00
0800
0800
FF80
1000
1000
ENDCHAR
STARTCHAR 2245
ENCODING 8773
SWIDTH 812 0
DWIDTH 13 0
BBX 9 9 2 1
BITMAP
7080
8880
8700
0000
0000
FF80
0000
0000
FF80
ENDCHAR
STARTCHAR 2246
ENCODING 8774
SWIDTH 812 0
DWIDTH 13 0
BBX 9 10 2 0
BITMAP
7080
8880
8700
0000
0400
FF80
0800
0800
FF80
1000
ENDCHAR
STARTCHAR 2247
ENCODING 8775
SWIDTH 812 0
DWIDTH 13 0
BBX 9 12 2 -1
BITMAP
0200
7480
8C80
8700
0C00
0800
FF80
1800
1000
FF80
3000
2000
ENDCHAR
STARTCHAR 2248
ENCODING 8776
SWIDTH 812 0
DWIDTH 13 0
BBX 9 7 2 2
BITMAP
7080
8880
8700
0000
7080
8880
8700
ENDCHAR
STARTCHAR 2249
ENCODING 8777
SWIDTH 812 0
DWIDTH 13 0
BBX 9 8 2 1
BITMAP
0400
6480
9C80
8F00
7880
9C80
9300
1000
ENDCHAR
STARTCHAR 224A
ENCODING 8778
SWIDTH 812 0
DWIDTH 13 0
BBX 9 9 2 0
BITMAP
6080
9880
8700
6080
9880
8700
0000
0000
FF80
ENDCHAR
STARTCHAR 224B
ENCODING 8779
SWIDTH 812 0
DWIDTH 13 0
BBX 9 9 2 0
BITMAP
7080
8880
8700
7080
8880
8700
7080
8880
8700
ENDCHAR
STARTCHAR 224C
ENCODING 8780
SWIDTH 812 0
DWIDTH 13 0
BBX 9 11 2 0
BITMAP
6300
8480
8880
9080
7300
0000
0000
FF80
0000
0000
FF80
ENDCHAR
STARTCHAR 224D
ENCODING 8781
SWIDTH 812 0
DWIDTH 13 0
BBX 9 7 2 1
BITMAP
8080
4100
3E00
0000
3E00
4100
8080
ENDCHAR
STARTCHAR 224E
ENCODING 8782
SWIDTH 812 0
DWIDTH 13 0
BBX 9 8 2 1
BITMAP
1C00
2200
E380
0000
0000
E380
2200
1C00
ENDCHAR
STARTCHAR 224F
ENCODING 8783
SWIDTH 812 0
DWIDTH 13 0
BBX 9 6 2 3
BITMAP
1C00
2200
E380
0000
0000
FF80
ENDCHAR
STARTCHAR 2250
ENCODING 8784
SWIDTH 812 0
DWIDTH 13 0
BBX 9 7 2 3
BITMAP
0C00
0C00
0000
FF80
0000
0000
FF80
ENDCHAR
STARTCHAR 2251
ENCODING 8785
SWIDTH 812 0
DWIDTH 13 0
BBX 9 10 2 0
BITMAP
0C00
0C00
0000
FF80
0000
0000
FF80
0000
0C00
0C00
ENDCHAR
STARTCHAR 2252
ENCODING 8786
SWIDTH 812 0
DWIDTH 13 0
BBX 9 10 2 0
BITMAP
C000
C000
0000
FF80
0000
0000
FF80
0000
0180
0180
ENDCHAR
STARTCHAR 2253
ENCODING 8787
SWIDTH 812 0
DWIDTH 13 0
BBX 9 10 2 0
BITMAP
0180
0180
0000
FF80
0000
0000
FF80
0000
C000
C000
ENDCHAR
STARTCHAR 2254
ENCODING 8788
SWIDTH 812 0
DWIDTH 13 0
BBX 9 5 2 3
BITMAP
C000
DF80
0000
C000
DF80
ENDCHAR
STARTCHAR 2255
ENCODING 8789
SWIDTH 812 0
DWIDTH 13 0
BBX 9 5 2 3
BITMAP
0180
FD80
0000
0180
FD80
ENDCHAR
STARTCHAR 2256
ENCODING 8790
SWIDTH 812 0
DWIDTH 13 0
BBX 9 4 2 3
BITMAP
FF80
1200
1200
FF80
ENDCHAR
STARTCHAR 2257
ENCODING 8791
SWIDTH 812 0
DWIDTH 13 0
BBX 9 10 2 0
BITMAP
0C00
1200
1200
0C00
0000
0000
FF80
0000
0000
FF80
ENDCHAR
STARTCHAR 2258
ENCODING 8792
SWIDTH 812 0
DWIDTH 13 0
BBX 9 9 2 0
BITMAP
3E00
4100
8080
0000
0000
FF80
0000
0000
FF80
ENDCHAR
STARTCHAR 2259
ENCODING 8793
SWIDTH 812 0
DWIDTH 13 0
BBX 9 12 2 0
BITMAP
0800
0800
1400
1400
1400
2200
0000
0000
FF80
0000
0000
FF80
ENDCHAR
STARTCHAR 225A
ENCODING 8794
SWIDTH 812 0
DWIDTH 13 0
BBX 9 12 2 0
BITMAP
4100
2200
2200
1400
1400
0800
0800
0000
FF80
0000
0000
FF80
ENDCHAR
STARTCHAR 225B
ENCODING 8795
SWIDTH 812 0
DWIDTH 13 0
BBX 9 12 2 0
BITMAP
0800
0800
3E00
1C00
1C00
1400
0000
0000
FF80
0000
0000
FF80
ENDCHAR
STARTCHAR 225C
ENCODING 8796
SWIDTH 812 0
DWIDTH 13 0
BBX 9 12 2 0
BITMAP
0800
0800
1400
2200
2200
7F00
0000
0000
FF80
0000
0000
FF80
ENDCHAR
STARTCHAR 225D
ENCODING 8797
SWIDTH 812 0
DWIDTH 13 0
BBX 9 11 2 0
BITMAP
2180
E700
AB80
AF00
E700
0000
0000
FF80
0000
0000
FF80
ENDCHAR
STARTCHAR 225E
ENCODING 8798
SWIDTH 812 0
DWIDTH 13 0
BBX 9 10 2 0
BITMAP
3F80
2480
2480
2480
0000
0000
FF80
0000
0000
FF80
ENDCHAR
STARTCHAR 225F
ENCODING 8799
SWIDTH 812 0
DWIDTH 13 0
BBX 9 11 2 0
BITMAP
1C00
0400
0800
0800
0000
0800
0000
FF80
0000
0000
FF80
ENDCHAR
STARTCHAR 2260
ENCODING 8800
SWIDTH 812 0
DWIDTH 13 0
BBX 9 9 2 0
BITMAP
0400
0400
FF80
0800
0800
FF80
0800
1000
1000
ENDCHAR
STARTCHAR 2261
ENCODING 8801
SWIDTH 812 0
DWIDTH 13 0
BBX 9 7 2 1
BITMAP
FF80
0000
0000
FF80
0000
0000
FF80
ENDCHAR
STARTCHAR 2262
ENCODING 8802
SWIDTH 812 0
DWIDTH 13 0
BBX 9 11 2 -1
BITMAP
0200
0400
FF80
0400
0800
FF80
0800
1000
FF80
1000
2000
ENDCHAR
STARTCHAR 2263
ENCODING 8803
SWIDTH 812 0
DWIDTH 13 0
BBX 9 10 2 0
BITMAP
FF80
0000
0000
FF80
0000
0000
FF80
0000
0000
FF80
ENDCHAR
STARTCHAR 2264
ENCODING 8804
SWIDTH 812 0
DWIDTH 13 0
BBX 9 9 2 0
BITMAP
0080
0700
1800
E000
3800
0600
0180
0000
FF80
ENDCHAR
STARTCHAR 2265
ENCODING 8805
SWIDTH 812 0
DWIDTH 13 0
BBX 9 9 2 0
BITMAP
8000
7000
0C00
0380
0E00
3000
C000
0000
FF80
ENDCHAR
STARTCHAR 2266
ENCODING 8806
SWIDTH 812 0
DWIDTH 13 0
BBX 9 12 2 0
BITMAP
0080
0700
1800
E000
3800
0600
0180
0000
FF80
0000
0000
FF80
ENDCHAR
STARTCHAR 2267
ENCODING 8807
SWIDTH 812 0
DWIDTH 13 0
BBX 9 12 2 0
BITMAP
8000
7000
0C00
0380
0E00
3000
C000
0000
FF80
0000
0000
FF80
ENDCHAR
STARTCHAR 2268
ENCODING 8808
SWIDTH 812 0
DWIDTH 13 0
BBX 9 14 2 -2
BITMAP
0080
0700
1800
E000
3800
0600
0980
0800
FF80
1000
1000
FF80
2000
2000
ENDCHAR
STARTCHAR 2269
ENCODING 8809
SWIDTH 812 0
DWIDTH 13 0
BBX 9 14 2 -2
BITMAP
8000
7000
0C00
0380
0E00
3000
C400
0400
FF80
0800
0800
FF80
1000
1000
ENDCHAR
STARTCHAR 226A
ENCODING 8810
SWIDTH 1125 0
DWIDTH 18 0
BBX 14 9 2 0
BITMAP
0084
0318
0C60
3180
C600
3180
0C60
0318
0084
ENDCHAR
STARTCHAR 226B
ENCODING 8811
SWIDTH 1125 0
DWIDTH 18 0
BBX 14 9 2 0
BITMAP
8400
6300
18C0
0630
018C
0630
18C0
6300
8400
ENDCHAR
STARTCHAR 226C
ENCODING 8812
SWIDTH 562 0
DWIDTH 9 0
BBX 5 14 2 -2
BITMAP
50
20
60
50
88
88
88
88
88
88
50
60
20
50
ENDCHAR
STARTCHAR 226D
ENCODING 8813
SWIDTH 812 0
DWIDTH 13 0
BBX 9 11 2 -1
BITMAP
0800
0800
0800
C980
3E00
0800
3E00
4900
8880
0800
0800
ENDCHAR
STARTCHAR 226E
ENCODING 8814
SWIDTH 812 0
DWIDTH 13 0
BBX 9 11 2 -1
BITMAP
0200
0480
0700
0C00
3800
C800
2800
1C00
1300
1080
2000
ENDCHAR
STARTCHAR 226F
ENCODING 8815
SWIDTH 812 0
DWIDTH 13 0
BBX 9 11 2 -1
BITMAP
0200
8400
6400
1C00
0A00
0980
0E00
1800
7000
9000
2000
ENDCHAR
STARTCHAR 2270
ENCODING 8816
SWIDTH 812 0
DWIDTH 13 0
BBX 9 13 2 -1
BITMAP
0200
0600
0480
0700
3C00
C800
3800
8E00
7180
1800
1700
3080
2000
ENDCHAR
STARTCHAR 2271
ENCODING 8817
SWIDTH 812 0
DWIDTH 13 0
BBX 9 13 2 -1
BITMAP
0400
0400
8800
6800
1C00
0B80
1E00
3080
D300
1C00
7000
A000
2000
ENDCHAR
STARTCHAR 2272
ENCODING 8818
SWIDTH 812 0
DWIDTH 13 0
BBX 9 10 2 0
BITMAP
0080
0700
1800
E000
3800
0600
0180
7000
8C80
8300
ENDCHAR
STARTCHAR 2273
ENCODING 8819
SWIDTH 812 0
DWIDTH 13 0
BBX 9 10 2 0
BITMAP
8000
7000
0C00
0380
0C00
3000
C000
7080
8880
8700
ENDCHAR
STARTCHAR 2274
ENCODING 8820
SWIDTH 812 0
DWIDTH 13 0
BBX 9 13 2 -1
BITMAP
0200
0600
0480
0700
1C00
6800
3800
0C00
1380
7080
9C80
A300
2000
ENDCHAR
STARTCHAR 2275
ENCODING 8821
SWIDTH 812 0
DWIDTH 13 0
BBX 9 13 2 -1
BITMAP
0400
0400
8800
6800
1C00
0B80
1600
3800
D000
7080
9C80
A300
2000
ENDCHAR
STARTCHAR 2276
ENCODING 8822
SWIDTH 812 0
DWIDTH 13 0
BBX 9 12 2 -1
BITMAP
0080
0700
1800
E000
3800
8600
7180
0C00
0380
0E00
3000
C000
ENDCHAR
STARTCHAR 2277
ENCODING 8823
SWIDTH 812 0
DWIDTH 13 0
BBX 9 12 2 -1
BITMAP
8000
7000
0C00
0380
0E00
3080
C700
1800
E000
3800
0600
0180
ENDCHAR
STARTCHAR 2278
ENCODING 8824
SWIDTH 812 0
DWIDTH 13 0
BBX 9 14 2 -2
BITMAP
0800
0880
0F00
1800
E800
3800
8E00
7980
0E00
0980
0E00
3800
C800
0800
ENDCHAR
STARTCHAR 2279
ENCODING 8825
SWIDTH 812 0
DWIDTH 13 0
BBX 9 14 2 -2
BITMAP
0800
8800
7800
0C00
0B80
0E00
3880
CF00
3800
C800
3800
0E00
0980
0800
ENDCHAR
STARTCHAR 227A
ENCODING 8826
SWIDTH 812 0
DWIDTH 13 0
BBX 9 9 2 0
BITMAP
0080
0100
0200
0C00
F000
1C00
0200
0100
0080
ENDCHAR
STARTCHAR 227B
ENCODING 8827
SWIDTH 812 0
DWIDTH 13 0
BBX 9 9 2 0
BITMAP
8000
4000
2000
1800
0780
1C00
2000
4000
8000
ENDCHAR
STARTCHAR 227C
ENCODING 8828
SWIDTH 812 0
DWIDTH 13 0
BBX 9 10 2 -1
BITMAP
0080
0100
0200
0C00
F000
1C00
E200
1900
0480
0200
ENDCHAR
STARTCHAR 227D
ENCODING 8829
SWIDTH 812 0
DWIDTH 13 0
BBX 9 10 2 -1
BITMAP
8000
4000
2000
1800
0780
1C00
2380
4C00
9000
2000
ENDCHAR
STARTCHAR 227E
ENCODING 8830
SWIDTH 812 0
DWIDTH 13 0
BBX 9 12 2 0
BITMAP
0080
0100
0200
0C00
F000
1C00
0200
0100
0080
7080
8880
8700
ENDCHAR
STARTCHAR 227F
ENCODING 8831
SWIDTH 812 0
DWIDTH 13 0
BBX 9 12 2 0
BITMAP
8000
4000
2000
1800
0780
1C00
2000
4000
8000
7080
8880
8700
ENDCHAR
STARTCHAR 2280
ENCODING 8832
SWIDTH 812 0
DWIDTH 13 0
BBX 9 11 2 -1
BITMAP
0400
0480
0500
0600
0C00
F400
1C00
0600
0500
0480
0400
ENDCHAR
STARTCHAR 2281
ENCODING 8833
SWIDTH 812 0
DWIDTH 13 0
BBX 9 11 2 -1
BITMAP
1000
9000
5000
3000
1800
1780
1C00
3000
5000
9000
1000
ENDCHAR
STARTCHAR 2282
ENCODING 8834
SWIDTH 812 0
DWIDTH 13 0
BBX 9 9 2 0
BITMAP
3F80
6000
C000
8000
8000
8000
C000
6000
3F80
ENDCHAR
STARTCHAR 2283
ENCODING 8835
SWIDTH 812 0
DWIDTH 13 0
BBX 9 9 2 0
BITMAP
FE00
0300
0180
0080
0080
0080
0180
0300
FE00
ENDCHAR
STARTCHAR 2284
ENCODING 8836
SWIDTH 812 0
DWIDTH 13 0
BBX 9 13 2 -2
BITMAP
0100
0300
3F80
6200
C200
8400
8400
8400
C800
6800
3F80
1800
1000
ENDCHAR
STARTCHAR 2285
ENCODING 8837
SWIDTH 812 0
DWIDTH 13 0
BBX 9 13 2 -2
BITMAP
0400
0400
FE00
0B00
0980
1080
1080
1080
2180
2300
FE00
6000
4000
ENDCHAR
STARTCHAR 2286
ENCODING 8838
SWIDTH 812 0
DWIDTH 13 0
BBX 9 9 2 0
BITMAP
7F80
C000
8000
8000
C000
7F80
0000
0000
FF80
ENDCHAR
STARTCHAR 2287
ENCODING 8839
SWIDTH 812 0
DWIDTH 13 0
BBX 9 9 2 0
BITMAP
FF00
0180
0080
0080
0180
FF00
0000
0000
FF80
ENDCHAR
STARTCHAR 2288
ENCODING 8840
SWIDTH 812 0
DWIDTH 13 0
BBX 9 13 2 -2
BITMAP
0200
0600
7F80
C400
8400
8800
C800
7F80
1000
1000
FF80
2000
2000
ENDCHAR
STARTCHAR 2289
ENCODING 8841
SWIDTH 812 0
DWIDTH 13 0
BBX 9 13 2 -2
BITMAP
0400
0C00
FE00
0980
0880
1080
1180
FF00
2000
2000
FF80
6000
4000
ENDCHAR
STARTCHAR 228A
ENCODING 8842
SWIDTH 812 0
DWIDTH 13 0
BBX 9 11 2 -2
BITMAP
7F80
C000
8000
8000
C000
7F80
0000
0800
FF80
1000
1000
ENDCHAR
STARTCHAR 228B
ENCODING 8843
SWIDTH 812 0
DWIDTH 13 0
BBX 9 11 2 -2
BITMAP
FF00
0180
0080
0080
0180
FF00
0000
0800
FF80
1000
1000
ENDCHAR
STARTCHAR 228C
ENCODING 8844
SWIDTH 812 0
DWIDTH 13 0
BBX 9 9 2 0
BITMAP
8080
8080
8080
8880
9F80
8880
C080
6300
3E00
ENDCHAR
STARTCHAR 228D
ENCODING 8845
SWIDTH 812 0
DWIDTH 13 0
BBX 9 9 2 0
BITMAP
8080
8080
8080
8C80
8C80
8080
C180
6300
3E00
ENDCHAR
STARTCHAR 228E
ENCODING 8846
SWIDTH 812 0
DWIDTH 13 0
BBX 9 9 2 0
BITMAP
8080
8080
8880
8880
BE80
8880
C980
6300
3E00
ENDCHAR
STARTCHAR 228F
ENCODING 8847
SWIDTH 812 0
DWIDTH 13 0
BBX 9 9 2 0
BITMAP
FF80
8000
8000
8000
8000
8000
8000
8000
FF80
ENDCHAR
STARTCHAR 2290
ENCODING 8848
SWIDTH 812 0
DWIDTH 13 0
BBX 9 9 2 0
BITMAP
FF80
0080
0080
0080
0080
0080
0080
0080
FF80
ENDCHAR
STARTCHAR 2291
ENCODING 8849
SWIDTH 812 0
DWIDTH 13 0
BBX 9 9 2 0
BITMAP
FF80
8000
8000
8000
8000
FF80
0000
0000
FF80
ENDCHAR
STARTCHAR 2292
ENCODING 8850
SWIDTH 812 0
DWIDTH 13 0
BBX 9 9 2 0
BITMAP
FF80
0080
0080
0080
0080
FF80
0000
0000
FF80
ENDCHAR
STARTCHAR 2293
ENCODING 8851
SWIDTH 812 0
DWIDTH 13 0
BBX 9 9 2 0
BITMAP
FF80
8080
8080
8080
8080
8080
8080
8080
8080
ENDCHAR
STARTCHAR 2294
ENCODING 8852
SWIDTH 812 0
DWIDTH 13 0
BBX 9 10 2 0
BITMAP
8080
8080
8080
8080
8080
8080
8080
8080
8080
FF80
ENDCHAR
STARTCHAR 2295
ENCODING 8853
SWIDTH 812 0
DWIDTH 13 0
BBX 10 10 2 0
BITMAP
1E00
6580
4480
8440
8440
FFC0
8440
4480
6580
1E00
ENDCHAR
STARTCHAR 2296
ENCODING 8854
SWIDTH 812 0
DWIDTH 13 0
BBX 10 10 2 0
BITMAP
1E00
6180
4080
8040
8040
FFC0
8040
4080
6180
1E00
ENDCHAR
STARTCHAR 2297
ENCODING 8855
SWIDTH 812 0
DWIDTH 13 0
BBX 10 10 2 0
BITMAP
1E00
6180
6180
9240
8C40
8C40
9240
6180
6180
1E00
ENDCHAR
STARTCHAR 2298
ENCODING 8856
SWIDTH 812 0
DWIDTH 13 0
BBX 10 10 2 0
BITMAP
1E00
6180
4180
8240
8440
8840
9040
6080
6180
1E00
ENDCHAR
STARTCHAR 2299
ENCODING 8857
SWIDTH 812 0
DWIDTH 13 0
BBX 10 10 2 0
BITMAP
1E00
6180
4080
8040
8C40
8C40
8040
4080
6180
1E00
ENDCHAR
STARTCHAR 229A
ENCODING 8858
SWIDTH 812 0
DWIDTH 13 0
BBX 10 10 2 0
BITMAP
1E00
6180
4080
8C40
9240
9240
8C40
4080
6180
1E00
ENDCHAR
STARTCHAR 229B
ENCODING 8859
SWIDTH 812 0
DWIDTH 13 0
BBX 10 10 2 0
BITMAP
1E00
6180
4080
8440
9540
8E40
9F40
4480
6180
1E00
ENDCHAR
STARTCHAR 229C
ENCODING 8860
SWIDTH 812 0
DWIDTH 13 0
BBX 10 10 2 0
BITMAP
1E00
6180
4080
FFC0
8040
8040
FFC0
4080
6180
1E00
ENDCHAR
STARTCHAR 229D
ENCODING 8861
SWIDTH 812 0
DWIDTH 13 0
BBX 9 9 2 0
BITMAP
3E00
6300
C180
8080
BE80
8080
C180
6300
3E00
ENDCHAR
STARTCHAR 229E
ENCODING 8862
SWIDTH 812 0
DWIDTH 13 0
BBX 9 9 2 0
BITMAP
FF80
8880
8880
8880
FF80
8880
8880
8880
FF80
ENDCHAR
STARTCHAR 229F
ENCODING 8863
SWIDTH 812 0
DWIDTH 13 0
BBX 9 9 2 0
BITMAP
FF80
8080
8080
8080
FF80
8080
8080
8080
FF80
ENDCHAR
STARTCHAR 22A0
ENCODING 8864
SWIDTH 812 0
DWIDTH 13 0
BBX 9 9 2 0
BITMAP
FF80
C180
A280
9480
8880
9480
A280
C180
FF80
ENDCHAR
STARTCHAR 22A1
ENCODING 8865
SWIDTH 812 0
DWIDTH 13 0
BBX 9 9 2 0
BITMAP
FF80
8080
8080
8080
8C80
8C80
8080
8080
FF80
ENDCHAR
STARTCHAR 22A2
ENCODING 8866
SWIDTH 812 0
DWIDTH 13 0
BBX 9 9 2 0
BITMAP
8000
8000
8000
8000
FF80
8000
8000
8000
8000
ENDCHAR
STARTCHAR 22A3
ENCODING 8867
SWIDTH 812 0
DWIDTH 13 0
BBX 9 9 2 0
BITMAP
0080
0080
0080
0080
FF80
0080
0080
0080
0080
ENDCHAR
STARTCHAR 22A4
ENCODING 8868
SWIDTH 812 0
DWIDTH 13 0
BBX 9 9 2 0
BITMAP
FF80
0800
0800
0800
0800
0800
0800
0800
0800
ENDCHAR
STARTCHAR 22A5
ENCODING 8869
SWIDTH 812 0
DWIDTH 13 0
BBX 9 9 2 0
BITMAP
0800
0800
0800
0800
0800
0800
0800
0800
FF80
ENDCHAR
STARTCHAR 22A6
ENCODING 8870
SWIDTH 562 0
DWIDTH 9 0
BBX 5 9 2 0
BITMAP
80
80
80
80
F8
80
80
80
80
ENDCHAR
STARTCHAR 22A7
ENCODING 8871
SWIDTH 562 0
DWIDTH 9 0
BBX 5 9 2 0
BITMAP
80
80
80
F8
80
80
F8
80
80
ENDCHAR
STARTCHAR 22A8
ENCODING 8872
SWIDTH 812 0
DWIDTH 13 0
BBX 9 9 2 0
BITMAP
8000
8000
8000
FF80
8000
8000
FF80
8000
8000
ENDCHAR
STARTCHAR 22A9
ENCODING 8873
SWIDTH 812 0
DWIDTH 13 0
BBX 9 9 2 0
BITMAP
A000
A000
A000
A000
BF80
A000
A000
A000
A000
ENDCHAR
STARTCHAR 22AA
ENCODING 8874
SWIDTH 812 0
DWIDTH 13 0
BBX 9 9 2 0
BITMAP
A800
A800
A800
A800
AF80
A800
A800
A800
A800
ENDCHAR
STARTCHAR 22AB
ENCODING 8875
SWIDTH 812 0
DWIDTH 13 0
BBX 9 9 2 0
BITMAP
A000
A000
A000
BF80
A000
A000
BF80
A000
A000
ENDCHAR
STARTCHAR 22AC
ENCODING 8876
SWIDTH 812 0
DWIDTH 13 0
BBX 9 11 2 -1
BITMAP
0400
8400
8800
8800
8800
FF80
9000
9000
9000
A000
2000
ENDCHAR
STARTCHAR 22AD
ENCODING 8877
SWIDTH 812 0
DWIDTH 13 0
BBX 9 11 2 -1
BITMAP
0400
8400
8800
8800
FF80
9800
9000
FF80
9000
A000
2000
ENDCHAR
STARTCHAR 22AE
ENCODING 8878
SWIDTH 812 0
DWIDTH 13 0
BBX 9 11 2 -1
BITMAP
0100
A200
A200
A200
A400
BF80
A400
A800
A800
A800
1000
ENDCHAR
STARTCHAR 22AF
ENCODING 8879
SWIDTH 812 0
DWIDTH 13 0
BBX 9 11 2 -1
BITMAP
0100
A200
A200
A200
BF80
A400
A400
BF80
A800
A800
1000
ENDCHAR
STARTCHAR 22B0
ENCODING 8880
SWIDTH 812 0
DWIDTH 13 0
BBX 9 11 2 0
BITMAP
0380
0080
0080
0300
1C00
E000
3C00
0200
0180
0080
0380
ENDCHAR
STARTCHAR 22B1
ENCODING 8881
SWIDTH 812 0
DWIDTH 13 0
BBX 9 11 2 0
BITMAP
E000
8000
8000
6000
1C00
0380
1E00
6000
8000
8000
E000
ENDCHAR
STARTCHAR 22B2
ENCODING 8882
SWIDTH 812 0
DWIDTH 13 0
BBX 9 9 2 0
BITMAP
8000
E000
9800
8600
8180
8600
9800
A000
C000
ENDCHAR
STARTCHAR 22B3
ENCODING 8883
SWIDTH 812 0
DWIDTH 13 0
BBX 9 9 2 0
BITMAP
0080
0380
0C80
3080
C080
3080
0C80
0280
0180
ENDCHAR
STARTCHAR 22B4
ENCODING 8884
SWIDTH 812 0
DWIDTH 13 0
BBX 9 9 2 0
BITMAP
0080
0780
1880
E080
3080
0E80
0180
0000
FF80
ENDCHAR
STARTCHAR 22B5
ENCODING 8885
SWIDTH 812 0
DWIDTH 13 0
BBX 9 9 2 0
BITMAP
8000
F000
8C00
8380
8E00
B000
C000
0000
FF80
ENDCHAR
STARTCHAR 22B6
ENCODING 8886
SWIDTH 937 0
DWIDTH 15 0
BBX 12 4 2 3
BITMAP
6060
90F0
9FF0
70E0
ENDCHAR
STARTCHAR 22B7
ENCODING 8887
SWIDTH 937 0
DWIDTH 15 0
BBX 12 4 2 3
BITMAP
6060
F090
FF90
70E0
ENDCHAR
STARTCHAR 22B8
ENCODING 8888
SWIDTH 812 0
DWIDTH 13 0
BBX 9 4 2 3
BITMAP
0300
0480
FC80
0700
ENDCHAR
STARTCHAR 22B9
ENCODING 8889
SWIDTH 812 0
DWIDTH 13 0
BBX 9 9 2 0
BITMAP
0800
0800
0800
0000
E380
0000
0800
0800
0800
ENDCHAR
STARTCHAR 22BA
ENCODING 8890
SWIDTH 625 0
DWIDTH 10 0
BBX 7 9 1 -4
BITMAP
FE
10
10
10
10
10
10
10
10
ENDCHAR
STARTCHAR 22BB
ENCODING 8891
SWIDTH 812 0
DWIDTH 13 0
BBX 9 9 2 0
BITMAP
4100
2200
2200
1400
1400
0800
0800
0000
FF80
ENDCHAR
STARTCHAR 22BC
ENCODING 8892
SWIDTH 812 0
DWIDTH 13 0
BBX 9 9 2 0
BITMAP
FF80
0000
0800
0800
1400
1400
2200
2200
4100
ENDCHAR
STARTCHAR 22BD
ENCODING 8893
SWIDTH 812 0
DWIDTH 13 0
BBX 9 9 2 0
BITMAP
FF80
0000
4100
2200
2200
1400
1400
0800
0800
ENDCHAR
STARTCHAR 22BE
ENCODING 8894
SWIDTH 812 0
DWIDTH 13 0
BBX 9 9 2 0
BITMAP
8000
8000
8000
E000
9000
8800
8400
8400
FF80
ENDCHAR
STARTCHAR 22BF
ENCODING 8895
SWIDTH 812 0
DWIDTH 13 0
BBX 9 9 2 0
BITMAP
0080
0180
0380
0680
0C80
1880
3080
6080
FF80
ENDCHAR
STARTCHAR 22C0
ENCODING 8896
SWIDTH 812 0
DWIDTH 13 0
BBX 9 9 2 0
BITMAP
0800
0800
1C00
1400
3600
2200
6300
4100
C180
ENDCHAR
STARTCHAR 22C1
ENCODING 8897
SWIDTH 812 0
DWIDTH 13 0
BBX 9 9 2 0
BITMAP
C180
4100
6300
2200
3600
1400
1C00
0800
0800
ENDCHAR
STARTCHAR 22C2
ENCODING 8898
SWIDTH 812 0
DWIDTH 13 0
BBX 9 9 2 0
BITMAP
3E00
7F00
E380
C180
C180
C180
C180
C180
C180
ENDCHAR
STARTCHAR 22C3
ENCODING 8899
SWIDTH 812 0
DWIDTH 13 0
BBX 9 9 2 0
BITMAP
C180
C180
C180
C180
C180
C180
E380
7F00
3E00
ENDCHAR
STARTCHAR 22C4
ENCODING 8900
SWIDTH 812 0
DWIDTH 13 0
BBX 9 9 2 0
BITMAP
0800
1C00
3600
6300
C180
6300
3600
1C00
0800
ENDCHAR
STARTCHAR 22C5
ENCODING 8901
SWIDTH 437 0
DWIDTH 7 0
BBX 2 2 3 4
BITMAP
C0
C0
ENDCHAR
STARTCHAR 22C6
ENCODING 8902
SWIDTH 812 0
DWIDTH 13 0
BBX 7 7 3 1
BITMAP
10
10
10
FE
38
38
44
ENDCHAR
STARTCHAR 22C7
ENCODING 8903
SWIDTH 812 0
DWIDTH 13 0
BBX 9 9 2 0
BITMAP
8C80
4D00
2200
1400
FF80
1400
2200
4D00
8C80
ENDCHAR
STARTCHAR 22C8
ENCODING 8904
SWIDTH 1000 0
DWIDTH 16 0
BBX 13 9 2 0
BITMAP
8008
C038
B048
8D88
8208
8D88
9048
E028
8018
ENDCHAR
STARTCHAR 22C9
ENCODING 8905
SWIDTH 812 0
DWIDTH 13 0
BBX 9 9 2 0
BITMAP
8080
C100
A200
9400
8800
9400
A200
C100
8080
ENDCHAR
STARTCHAR 22CA
ENCODING 8906
SWIDTH 812 0
DWIDTH 13 0
BBX 9 9 2 0
BITMAP
8080
4180
2280
1480
0880
1480
2280
4180
8080
ENDCHAR
STARTCHAR 22CB
ENCODING 8907
SWIDTH 812 0
DWIDTH 13 0
BBX 9 9 2 0
BITMAP
8000
4000
2000
1000
0800
1400
2200
4100
8080
ENDCHAR
STARTCHAR 22CC
ENCODING 8908
SWIDTH 812 0
DWIDTH 13 0
BBX 9 9 2 0
BITMAP
0080
0100
0200
0400
0800
1400
2200
4100
8080
ENDCHAR
STARTCHAR 22CD
ENCODING 8909
SWIDTH 812 0
DWIDTH 13 0
BBX 9 6 2 2
BITMAP
8300
8C80
7080
0000
0000
FF80
ENDCHAR
STARTCHAR 22CE
ENCODING 8910
SWIDTH 812 0
DWIDTH 13 0
BBX 9 9 2 0
BITMAP
8080
4100
2200
1400
1400
1800
0800
0800
0800
ENDCHAR
STARTCHAR 22CF
ENCODING 8911
SWIDTH 812 0
DWIDTH 13 0
BBX 9 9 2 0
BITMAP
0800
0800
0800
1800
1400
1400
2200
4100
8080
ENDCHAR
STARTCHAR 22D0
ENCODING 8912
SWIDTH 812 0
DWIDTH 13 0
BBX 9 9 2 0
BITMAP
3F80
6000
DF80
A000
A000
A000
DF80
6000
3F80
ENDCHAR
STARTCHAR 22D1
ENCODING 8913
SWIDTH 812 0
DWIDTH 13 0
BBX 9 9 2 0
BITMAP
FE00
0300
FD80
0280
0280
0280
FD80
0300
FE00
ENDCHAR
STARTCHAR 22D2
ENCODING 8914
SWIDTH 812 0
DWIDTH 13 0
BBX 9 9 2 0
BITMAP
A280
A280
A280
A280
A280
A280
DD80
6300
3E00
ENDCHAR
STARTCHAR 22D3
ENCODING 8915
SWIDTH 812 0
DWIDTH 13 0
BBX 9 9 2 0
BITMAP
3E00
6300
DD80
A280
A280
A280
A280
A280
A280
ENDCHAR
STARTCHAR 22D4
ENCODING 8916
SWIDTH 812 0
DWIDTH 13 0
BBX 9 12 2 0
BITMAP
0800
0800
0800
3E00
6B00
C980
8880
8880
8880
8880
8880
8880
ENDCHAR
STARTCHAR 22D5
ENCODING 8917
SWIDTH 812 0
DWIDTH 13 0
BBX 9 9 2 0
BITMAP
1200
1200
1200
FF80
1200
1200
FF80
1200
1200
ENDCHAR
STARTCHAR 22D6
ENCODING 8918
SWIDTH 812 0
DWIDTH 13 0
BBX 9 9 2 0
BITMAP
0080
0300
0C00
3000
C300
3300
0C00
0300
0080
ENDCHAR
STARTCHAR 22D7
ENCODING 8919
SWIDTH 812 0
DWIDTH 13 0
BBX 9 9 2 0
BITMAP
8000
6000
1800
0600
6180
6600
1800
6000
8000
ENDCHAR
STARTCHAR 22D8
ENCODING 8920
SWIDTH 1437 0
DWIDTH 23 0
BBX 19 9 2 0
BITMAP
008420
0318C0
0C6300
318C00
C63000
318C00
0C6300
0318C0
008420
ENDCHAR
STARTCHAR 22D9
ENCODING 8921
SWIDTH 1437 0
DWIDTH 23 0
BBX 19 9 2 0
BITMAP
842000
631800
18C600
063180
018C60
063180
18C600
631800
842000
ENDCHAR
STARTCHAR 22DA
ENCODING 8922
SWIDTH 812 0
DWIDTH 13 0
BBX 9 17 2 -3
BITMAP
0080
0700
1800
E000
3800
0600
0180
0000
FF80
0000
8000
7000
0C00
0380
0E00
3000
C000
ENDCHAR
STARTCHAR 22DB
ENCODING 8923
SWIDTH 812 0
DWIDTH 13 0
BBX 9 17 2 -3
BITMAP
8000
7000
0C00
0380
0E00
3000
C000
0000
FF80
0000
0080
0700
1800
E000
3800
0600
0180
ENDCHAR
STARTCHAR 22DC
ENCODING 8924
SWIDTH 812 0
DWIDTH 13 0
BBX 9 10 2 0
BITMAP
0080
0300
1C00
6080
8700
1800
E000
3800
0600
0180
ENDCHAR
STARTCHAR 22DD
ENCODING 8925
SWIDTH 812 0
DWIDTH 13 0
BBX 9 10 2 0
BITMAP
8000
6000
1C00
8300
7080
0C00
0380
0E00
3000
C000
ENDCHAR
STARTCHAR 22DE
ENCODING 8926
SWIDTH 812 0
DWIDTH 13 0
BBX 9 10 2 0
BITMAP
0200
0480
1900
E200
0C00
F000
1C00
0200
0100
0080
ENDCHAR
STARTCHAR 22DF
ENCODING 8927
SWIDTH 812 0
DWIDTH 13 0
BBX 9 10 2 0
BITMAP
2000
9000
4C00
2380
1800
0780
1C00
2000
4000
8000
ENDCHAR
STARTCHAR 22E0
ENCODING 8928
SWIDTH 812 0
DWIDTH 13 0
BBX 9 14 2 -2
BITMAP
0400
0480
0500
0600
0C00
F400
1C00
0600
0500
0480
0400
FF80
0400
0400
ENDCHAR
STARTCHAR 22E1
ENCODING 8929
SWIDTH 812 0
DWIDTH 13 0
BBX 9 14 2 -2
BITMAP
1000
9000
5000
3000
1800
1780
1C00
3000
5000
9000
1000
FF80
1000
1000
ENDCHAR
STARTCHAR 22E2
ENCODING 8930
SWIDTH 812 0
DWIDTH 13 0
BBX 9 13 2 -2
BITMAP
0200
0600
FF80
8400
8400
8800
8800
FF80
1000
1000
FF80
3000
2000
ENDCHAR
STARTCHAR 22E3
ENCODING 8931
SWIDTH 812 0
DWIDTH 13 0
BBX 9 13 2 -2
BITMAP
0200
0600
FF80
0480
0480
0880
0880
FF80
1000
1000
FF80
3000
2000
ENDCHAR
STARTCHAR 22E4
ENCODING 8932
SWIDTH 812 0
DWIDTH 13 0
BBX 9 11 2 -2
BITMAP
FF80
8000
8000
8000
8000
FF80
0000
0800
FF80
0800
1000
ENDCHAR
STARTCHAR 22E5
ENCODING 8933
SWIDTH 812 0
DWIDTH 13 0
BBX 9 11 2 -2
BITMAP
FF80
0080
0080
0080
0080
FF80
0000
0800
FF80
0800
1000
ENDCHAR
STARTCHAR 22E6
ENCODING 8934
SWIDTH 812 0
DWIDTH 13 0
BBX 9 11 2 -1
BITMAP
0080
0700
1800
E000
3800
0600
0580
7880
9C80
8F00
1000
ENDCHAR
STARTCHAR 22E7
ENCODING 8935
SWIDTH 812 0
DWIDTH 13 0
BBX 9 11 2 -1
BITMAP
8000
7000
0C00
0380
0E00
3000
C400
7880
9C80
8F00
1000
ENDCHAR
STARTCHAR 22E8
ENCODING 8936
SWIDTH 812 0
DWIDTH 13 0
BBX 9 13 2 -1
BITMAP
0080
0100
0200
0C00
F000
1C00
0200
0100
0480
7880
9C80
8F00
1000
ENDCHAR
STARTCHAR 22E9
ENCODING 8937
SWIDTH 812 0
DWIDTH 13 0
BBX 9 13 2 -1
BITMAP
8000
4000
2000
1800
0780
1C00
2000
4000
8400
7880
9C80
8F00
1000
ENDCHAR
STARTCHAR 22EA
ENCODING 8938
SWIDTH 812 0
DWIDTH 13 0
BBX 9 13 2 -2
BITMAP
0200
0200
0480
0780
0C80
3480
CC80
3880
0C80
0A80
0980
1000
1000
ENDCHAR
STARTCHAR 22EB
ENCODING 8939
SWIDTH 812 0
DWIDTH 13 0
BBX 9 13 2 -2
BITMAP
0400
0400
8800
E800
9800
8E00
9980
9600
9800
B000
D000
2000
2000
ENDCHAR
STARTCHAR 22EC
ENCODING 8940
SWIDTH 812 0
DWIDTH 13 0
BBX 9 13 2 -2
BITMAP
0200
0600
0480
0780
3C80
C880
3880
0E80
1180
1000
FF80
3000
2000
ENDCHAR
STARTCHAR 22ED
ENCODING 8941
SWIDTH 812 0
DWIDTH 13 0
BBX 9 13 2 -2
BITMAP
0400
0800
8800
E800
9C00
9380
9E00
B000
E000
6000
FF80
4000
8000
ENDCHAR
STARTCHAR 22EE
ENCODING 8942
SWIDTH 812 0
DWIDTH 13 0
BBX 2 10 6 0
BITMAP
C0
C0
00
00
C0
C0
00
00
C0
C0
ENDCHAR
STARTCHAR 22EF
ENCODING 8943
SWIDTH 812 0
DWIDTH 13 0
BBX 10 2 2 3
BITMAP
CCC0
CCC0
ENDCHAR
STARTCHAR 22F0
ENCODING 8944
SWIDTH 812 0
DWIDTH 13 0
BBX 10 10 2 0
BITMAP
00C0
00C0
0000
0000
0C00
0C00
0000
0000
C000
C000
ENDCHAR
STARTCHAR 22F1
ENCODING 8945
SWIDTH 812 0
DWIDTH 13 0
BBX 10 10 2 0
BITMAP
C000
C000
0000
0000
0C00
0C00
0000
0000
00C0
00C0
ENDCHAR
STARTCHAR 2302
ENCODING 8962
SWIDTH 875 0
DWIDTH 14 0
BBX 11 12 1 0
BITMAP
0400
0E00
1B00
3180
60C0
C060
8020
8020
8020
8020
8020
FFE0
ENDCHAR
STARTCHAR 2306
ENCODING 8966
SWIDTH 812 0
DWIDTH 13 0
BBX 9 12 2 0
BITMAP
FF80
0000
0000
FF80
0000
0800
0800
1400
1400
2200
2200
4100
ENDCHAR
STARTCHAR 2308
ENCODING 8968
SWIDTH 500 0
DWIDTH 8 0
BBX 4 14 3 -2
BITMAP
F0
80
80
80
80
80
80
80
80
80
80
80
80
80
ENDCHAR
STARTCHAR 2309
ENCODING 8969
SWIDTH 500 0
DWIDTH 8 0
BBX 4 14 2 -2
BITMAP
F0
10
10
10
10
10
10
10
10
10
10
10
10
10
ENDCHAR
STARTCHAR 230A
ENCODING 8970
SWIDTH 500 0
DWIDTH 8 0
BBX 4 14 3 -2
BITMAP
80
80
80
80
80
80
80
80
80
80
80
80
80
F0
ENDCHAR
STARTCHAR 230B
ENCODING 8971
SWIDTH 500 0
DWIDTH 8 0
BBX 4 14 2 -2
BITMAP
10
10
10
10
10
10
10
10
10
10
10
10
10
F0
ENDCHAR
STARTCHAR 2320
ENCODING 8992
SWIDTH 437 0
DWIDTH 7 0
BBX 4 16 3 -3
BITMAP
30
50
C0
C0
C0
C0
C0
C0
C0
C0
C0
C0
C0
C0
C0
C0
ENDCHAR
STARTCHAR 2321
ENCODING 8993
SWIDTH 437 0
DWIDTH 7 0
BBX 5 16 0 -3
BITMAP
18
18
18
18
18
18
18
18
18
18
18
18
18
10
B0
E0
ENDCHAR
STARTCHAR 2322
ENCODING 8994
SWIDTH 812 0
DWIDTH 13 0
BBX 9 3 2 3
BITMAP
3E00
4100
8080
ENDCHAR
STARTCHAR 2323
ENCODING 8995
SWIDTH 812 0
DWIDTH 13 0
BBX 9 3 2 3
BITMAP
8080
4100
3E00
ENDCHAR
STARTCHAR 2400
ENCODING 9216
SWIDTH 1000 0
DWIDTH 16 0
BBX 14 6 1 0
BITMAP
94A0
D4A0
D4A0
B4A0
B4A0
93BC
ENDCHAR
STARTCHAR 2401
ENCODING 9217
SWIDTH 1000 0
DWIDTH 16 0
BBX 15 6 1 0
BITMAP
F312
8492
C492
349E
1492
E312
ENDCHAR
STARTCHAR 2402
ENCODING 9218
SWIDTH 1000 0
DWIDTH 16 0
BBX 14 6 1 0
BITMAP
FFC4
8228
C210
3210
1228
E244
ENDCHAR
STARTCHAR 2403
ENCODING 9219
SWIDTH 1000 0
DWIDTH 16 0
BBX 14 6 1 0
BITMAP
FFE4
8228
8210
E210
8228
F24C
ENDCHAR
STARTCHAR 2404
ENCODING 9220
SWIDTH 1000 0
DWIDTH 16 0
BBX 15 6 1 0
BITMAP
F33E
8488
8488
E488
8488
F308
ENDCHAR
STARTCHAR 2405
ENCODING 9221
SWIDTH 1000 0
DWIDTH 16 0
BBX 14 7 1 -1
BITMAP
F498
86A4
86A4
E5A4
85A4
F498
0004
ENDCHAR
STARTCHAR 2406
ENCODING 9222
SWIDTH 1000 0
DWIDTH 16 0
BBX 15 6 0 0
BITMAP
2392
3414
5418
541C
7E14
8B92
ENDCHAR
STARTCHAR 2407
ENCODING 9223
SWIDTH 1000 0
DWIDTH 16 0
BBX 15 6 1 0
BITMAP
F3D0
9210
9210
E390
9210
F3DE
ENDCHAR
STARTCHAR 2408
ENCODING 9224
SWIDTH 1000 0
DWIDTH 16 0
BBX 9 6 3 0
BITMAP
F780
9400
9600
E180
9080
F700
ENDCHAR
STARTCHAR 2409
ENCODING 9225
SWIDTH 1000 0
DWIDTH 16 0
BBX 10 6 3 0
BITMAP
97C0
9100
9100
F100
9100
9100
ENDCHAR
STARTCHAR 240A
ENCODING 9226
SWIDTH 1000 0
DWIDTH 16 0
BBX 10 6 3 0
BITMAP
83C0
8200
8200
83C0
8200
F200
ENDCHAR
STARTCHAR 240B
ENCODING 9227
SWIDTH 875 0
DWIDTH 14 0
BBX 11 6 2 0
BITMAP
8BE0
D080
5080
5080
6080
2080
ENDCHAR
STARTCHAR 240C
ENCODING 9228
SWIDTH 1000 0
DWIDTH 16 0
BBX 10 6 4 0
BITMAP
F3C0
8200
8200
F3C0
8200
8200
ENDCHAR
STARTCHAR 240D
ENCODING 9229
SWIDTH 1000 0
DWIDTH 16 0
BBX 11 6 3 0
BITMAP
73C0
8240
8240
8380
C2C0
7260
ENDCHAR
STARTCHAR 240E
ENCODING 9230
SWIDTH 1000 0
DWIDTH 16 0
BBX 10 6 3 0
BITMAP
F180
8240
C240
3240
1240
E180
ENDCHAR
STARTCHAR 240F
ENCODING 9231
SWIDTH 1000 0
DWIDTH 16 0
BBX 9 6 3 0
BITMAP
F380
8100
C100
3100
1100
E380
ENDCHAR
STARTCHAR 2410
ENCODING 9232
SWIDTH 1000 0
DWIDTH 16 0
BBX 15 6 1 0
BITMAP
E21E
9210
9210
921C
9210
E3DE
ENDCHAR
STARTCHAR 2411
ENCODING 9233
SWIDTH 1000 0
DWIDTH 16 0
BBX 14 6 1 0
BITMAP
E398
9408
9408
9408
9608
E39C
ENDCHAR
STARTCHAR 2412
ENCODING 9234
SWIDTH 1000 0
DWIDTH 16 0
BBX 14 6 1 0
BITMAP
E39C
9404
9404
9408
9610
E39C
ENDCHAR
STARTCHAR 2413
ENCODING 9235
SWIDTH 1000 0
DWIDTH 16 0
BBX 14 6 1 0
BITMAP
E39C
9404
9418
9404
9604
E398
ENDCHAR
STARTCHAR 2414
ENCODING 9236
SWIDTH 1000 0
DWIDTH 16 0
BBX 14 6 1 0
BITMAP
E388
9418
9438
943C
9608
E388
ENDCHAR
STARTCHAR 2415
ENCODING 9237
SWIDTH 1000 0
DWIDTH 16 0
BBX 15 6 1 0
BITMAP
9112
D194
D298
B29C
B3D4
9452
ENDCHAR
STARTCHAR 2416
ENCODING 9238
SWIDTH 1000 0
DWIDTH 16 0
BBX 15 6 1 0
BITMAP
F452
829A
C39A
3116
1116
E112
ENDCHAR
STARTCHAR 2417
ENCODING 9239
SWIDTH 1000 0
DWIDTH 16 0
BBX 14 6 1 0
BITMAP
FFBC
8224
8224
E238
8224
F23C
ENDCHAR
STARTCHAR 2418
ENCODING 9240
SWIDTH 1000 0
DWIDTH 16 0
BBX 15 6 1 0
BITMAP
7112
819A
829A
8296
C3D6
7452
ENDCHAR
STARTCHAR 2419
ENCODING 9241
SWIDTH 1000 0
DWIDTH 16 0
BBX 10 6 3 0
BITMAP
F240
83C0
83C0
E340
8240
F240
ENDCHAR
STARTCHAR 241A
ENCODING 9242
SWIDTH 1000 0
DWIDTH 16 0
BBX 14 6 1 0
BITMAP
F4BC
84A4
C4A4
34B8
14A4
E3BC
ENDCHAR
STARTCHAR 241B
ENCODING 9243
SWIDTH 1000 0
DWIDTH 16 0
BBX 14 6 1 0
BITMAP
F79C
8420
8620
E1A0
80B0
F71C
ENDCHAR
STARTCHAR 241C
ENCODING 9244
SWIDTH 1000 0
DWIDTH 16 0
BBX 9 6 4 0
BITMAP
F780
8400
8600
F180
8080
8700
ENDCHAR
STARTCHAR 241D
ENCODING 9245
SWIDTH 1000 0
DWIDTH 16 0
BBX 10 6 3 0
BITMAP
73C0
8200
8300
90C0
9040
7380
ENDCHAR
STARTCHAR 241E
ENCODING 9246
SWIDTH 1000 0
DWIDTH 16 0
BBX 10 6 3 0
BITMAP
F3C0
9200
9300
E0C0
B040
9B80
ENDCHAR
STARTCHAR 241F
ENCODING 9247
SWIDTH 1000 0
DWIDTH 16 0
BBX 10 6 3 0
BITMAP
93C0
9200
9300
90C0
9040
7380
ENDCHAR
STARTCHAR 2420
ENCODING 9248
SWIDTH 1000 0
DWIDTH 16 0
BBX 10 6 3 0
BITMAP
F3C0
8240
C240
3380
1200
E200
ENDCHAR
STARTCHAR 2421
ENCODING 9249
SWIDTH 1000 0
DWIDTH 16 0
BBX 15 6 1 0
BITMAP
E3D0
9210
9210
9390
9210
E3DE
ENDCHAR
STARTCHAR 2422
ENCODING 9250
SWIDTH 1000 0
DWIDTH 16 0
BBX 12 12 2 0
BITMAP
0CC0
0C80
0D00
0FC0
0E60
0C30
0C30
1C30
1C30
2C30
4E60
CDC0
ENDCHAR
STARTCHAR 2423
ENCODING 9251
SWIDTH 312 0
DWIDTH 5 0
BBX 5 2 0 -2
BITMAP
88
F8
ENDCHAR
STARTCHAR 2424
ENCODING 9252
SWIDTH 1000 0
DWIDTH 16 0
BBX 11 6 3 0
BITMAP
9100
D100
D100
B100
B100
91E0
ENDCHAR
STARTCHAR 2500
ENCODING 9472
SWIDTH 1000 0
DWIDTH 16 0
BBX 16 1 0 4
BITMAP
FFFF
ENDCHAR
STARTCHAR 2501
ENCODING 9473
SWIDTH 1000 0
DWIDTH 16 0
BBX 16 1 0 4
BITMAP
FFFF
ENDCHAR
STARTCHAR 2502
ENCODING 9474
SWIDTH 1000 0
DWIDTH 16 0
BBX 1 16 7 -3
BITMAP
80
80
80
80
80
80
80
80
80
80
80
80
80
80
80
80
ENDCHAR
STARTCHAR 2503
ENCODING 9475
SWIDTH 1000 0
DWIDTH 16 0
BBX 2 16 7 -3
BITMAP
C0
C0
C0
C0
C0
C0
C0
C0
C0
C0
C0
C0
C0
C0
C0
C0
ENDCHAR
STARTCHAR 2504
ENCODING 9476
SWIDTH 1000 0
DWIDTH 16 0
BBX 14 1 1 4
BITMAP
F7BC
ENDCHAR
STARTCHAR 2505
ENCODING 9477
SWIDTH 1000 0
DWIDTH 16 0
BBX 14 2 1 3
BITMAP
F7BC
F7BC
ENDCHAR
STARTCHAR 2506
ENCODING 9478
SWIDTH 1000 0
DWIDTH 16 0
BBX 1 14 7 -2
BITMAP
80
80
80
80
00
80
80
80
80
00
80
80
80
80
ENDCHAR
STARTCHAR 2507
ENCODING 9479
SWIDTH 1000 0
DWIDTH 16 0
BBX 2 14 7 -2
BITMAP
C0
C0
C0
C0
00
C0
C0
C0
C0
00
C0
C0
C0
C0
ENDCHAR
STARTCHAR 2508
ENCODING 9480
SWIDTH 1000 0
DWIDTH 16 0
BBX 15 1 1 4
BITMAP
EEEE
ENDCHAR
STARTCHAR 2509
ENCODING 9481
SWIDTH 1000 0
DWIDTH 16 0
BBX 15 2 1 3
BITMAP
EEEE
EEEE
ENDCHAR
STARTCHAR 250A
ENCODING 9482
SWIDTH 1000 0
DWIDTH 16 0
BBX 1 15 7 -3
BITMAP
80
80
80
00
80
80
80
00
80
80
80
00
80
80
80
ENDCHAR
STARTCHAR 250B
ENCODING 9483
SWIDTH 1000 0
DWIDTH 16 0
BBX 2 15 7 -3
BITMAP
C0
C0
C0
00
C0
C0
C0
00
C0
C0
C0
00
C0
C0
C0
ENDCHAR
STARTCHAR 250C
ENCODING 9484
SWIDTH 1000 0
DWIDTH 16 0
BBX 9 8 7 -4
BITMAP
FF80
8000
8000
8000
8000
8000
8000
8000
ENDCHAR
STARTCHAR 250D
ENCODING 9485
SWIDTH 1000 0
DWIDTH 16 0
BBX 9 8 7 -3
BITMAP
FF80
FF80
8000
8000
8000
8000
8000
8000
ENDCHAR
STARTCHAR 250E
ENCODING 9486
SWIDTH 1000 0
DWIDTH 16 0
BBX 9 8 7 -3
BITMAP
FF80
C000
C000
C000
C000
C000
C000
C000
ENDCHAR
STARTCHAR 250F
ENCODING 9487
SWIDTH 1000 0
DWIDTH 16 0
BBX 9 8 7 -3
BITMAP
FF80
FF80
C000
C000
C000
C000
C000
C000
ENDCHAR
STARTCHAR 2510
ENCODING 9488
SWIDTH 1000 0
DWIDTH 16 0
BBX 9 8 0 -3
BITMAP
FF80
0080
0080
0080
0080
0080
0080
0080
ENDCHAR
STARTCHAR 2511
ENCODING 9489
SWIDTH 1000 0
DWIDTH 16 0
BBX 9 8 0 -3
BITMAP
FF80
FF80
0080
0080
0080
0080
0080
0080
ENDCHAR
STARTCHAR 2512
ENCODING 9490
SWIDTH 1000 0
DWIDTH 16 0
BBX 9 8 0 -3
BITMAP
FF80
0180
0180
0180
0180
0180
0180
0180
ENDCHAR
STARTCHAR 2513
ENCODING 9491
SWIDTH 1000 0
DWIDTH 16 0
BBX 9 8 0 -3
BITMAP
FF80
FF80
0180
0180
0180
0180
0180
0180
ENDCHAR
STARTCHAR 2514
ENCODING 9492
SWIDTH 1000 0
DWIDTH 16 0
BBX 8 9 7 4
BITMAP
80
80
80
80
80
80
80
80
FF
ENDCHAR
STARTCHAR 2515
ENCODING 9493
SWIDTH 1000 0
DWIDTH 16 0
BBX 9 10 7 3
BITMAP
8000
8000
8000
8000
8000
8000
8000
8000
FF80
FF80
ENDCHAR
STARTCHAR 2516
ENCODING 9494
SWIDTH 1000 0
DWIDTH 16 0
BBX 9 9 7 4
BITMAP
C000
C000
C000
C000
C000
C000
C000
C000
FF80
ENDCHAR
STARTCHAR 2517
ENCODING 9495
SWIDTH 1000 0
DWIDTH 16 0
BBX 9 10 7 3
BITMAP
C000
C000
C000
C000
C000
C000
C000
C000
FF80
FF80
ENDCHAR
STARTCHAR 2518
ENCODING 9496
SWIDTH 1000 0
DWIDTH 16 0
BBX 9 9 0 4
BITMAP
0080
0080
0080
0080
0080
0080
0080
0080
FF80
ENDCHAR
STARTCHAR 2519
ENCODING 9497
SWIDTH 1000 0
DWIDTH 16 0
BBX 9 10 0 3
BITMAP
0080
0080
0080
0080
0080
0080
0080
0080
FF80
FF80
ENDCHAR
STARTCHAR 251A
ENCODING 9498
SWIDTH 1000 0
DWIDTH 16 0
BBX 9 9 0 4
BITMAP
0180
0180
0180
0180
0180
0180
0180
0180
FF80
ENDCHAR
STARTCHAR 251B
ENCODING 9499
SWIDTH 1000 0
DWIDTH 16 0
BBX 9 10 0 3
BITMAP
0180
0180
0180
0180
0180
0180
0180
0180
FF80
FF80
ENDCHAR
STARTCHAR 251C
ENCODING 9500
SWIDTH 1000 0
DWIDTH 16 0
BBX 9 16 7 -3
BITMAP
8000
8000
8000
8000
8000
8000
8000
8000
FF80
8000
8000
8000
8000
8000
8000
8000
ENDCHAR
STARTCHAR 251D
ENCODING 9501
SWIDTH 1000 0
DWIDTH 16 0
BBX 9 16 7 -3
BITMAP
8000
8000
8000
8000
8000
8000
8000
8000
FF80
FF80
8000
8000
8000
8000
8000
8000
ENDCHAR
STARTCHAR 251E
ENCODING 9502
SWIDTH 1000 0
DWIDTH 16 0
BBX 9 16 7 -3
BITMAP
C000
C000
C000
C000
C000
C000
C000
C000
FF80
8000
8000
8000
8000
8000
8000
8000
ENDCHAR
STARTCHAR 251F
ENCODING 9503
SWIDTH 1000 0
DWIDTH 16 0
BBX 9 16 7 -3
BITMAP
8000
8000
8000
8000
8000
8000
8000
8000
FF80
C000
C000
C000
C000
C000
C000
C000
ENDCHAR
STARTCHAR 2520
ENCODING 9504
SWIDTH 1000 0
DWIDTH 16 0
BBX 9 16 7 -3
BITMAP
C000
C000
C000
C000
C000
C000
C000
C000
FF80
C000
C000
C000
C000
C000
C000
C000
ENDCHAR
STARTCHAR 2521
ENCODING 9505
SWIDTH 1000 0
DWIDTH 16 0
BBX 9 16 7 -3
BITMAP
C000
C000
C000
C000
C000
C000
C000
C000
FF80
FF80
8000
8000
8000
8000
8000
8000
ENDCHAR
STARTCHAR 2522
ENCODING 9506
SWIDTH 1000 0
DWIDTH 16 0
BBX 9 16 7 -3
BITMAP
8000
8000
8000
8000
8000
8000
8000
8000
FF80
FF80
C000
C000
C000
C000
C000
C000
ENDCHAR
STARTCHAR 2523
ENCODING 9507
SWIDTH 1000 0
DWIDTH 16 0
BBX 9 16 7 -3
BITMAP
C000
C000
C000
C000
C000
C000
C000
C000
FF80
FF80
C000
C000
C000
C000
C000
C000
ENDCHAR
STARTCHAR 2524
ENCODING 9508
SWIDTH 1000 0
DWIDTH 16 0
BBX 9 16 0 -3
BITMAP
0080
0080
0080
0080
0080
0080
0080
0080
FF80
0080
0080
0080
0080
0080
0080
0080
ENDCHAR
STARTCHAR 2525
ENCODING 9509
SWIDTH 1000 0
DWIDTH 16 0
BBX 8 16 0 -3
BITMAP
01
01
01
01
01
01
01
01
FF
FF
01
01
01
01
01
01
ENDCHAR
STARTCHAR 2526
ENCODING 9510
SWIDTH 1000 0
DWIDTH 16 0
BBX 9 16 0 -3
BITMAP
0180
0180
0180
0180
0180
0180
0180
0180
FF00
0100
0100
0100
0100
0100
0100
0100
ENDCHAR
STARTCHAR 2527
ENCODING 9511
SWIDTH 1000 0
DWIDTH 16 0
BBX 9 16 0 -3
BITMAP
0100
0100
0100
0100
0100
0100
0100
0100
FF00
0180
0180
0180
0180
0180
0180
0180
ENDCHAR
STARTCHAR 2528
ENCODING 9512
SWIDTH 1000 0
DWIDTH 16 0
BBX 9 16 0 -3
BITMAP
0180
0180
0180
0180
0180
0180
0180
0180
FF80
0180
0180
0180
0180
0180
0180
0180
ENDCHAR
STARTCHAR 2529
ENCODING 9513
SWIDTH 1000 0
DWIDTH 16 0
BBX 9 16 0 -3
BITMAP
0180
0180
0180
0180
0180
0180
0180
0180
FF80
FF80
0100
0100
0100
0100
0100
0100
ENDCHAR
STARTCHAR 252A
ENCODING 9514
SWIDTH 1000 0
DWIDTH 16 0
BBX 9 16 0 -3
BITMAP
0100
0100
0100
0100
0100
0100
0100
0100
FF80
FF80
0180
0180
0180
0180
0180
0180
ENDCHAR
STARTCHAR 252B
ENCODING 9515
SWIDTH 1000 0
DWIDTH 16 0
BBX 9 16 0 -3
BITMAP
0180
0180
0180
0180
0180
0180
0180
0180
FF80
FF80
0180
0180
0180
0180
0180
0180
ENDCHAR
STARTCHAR 252C
ENCODING 9516
SWIDTH 1000 0
DWIDTH 16 0
BBX 16 8 0 -3
BITMAP
FFFF
0100
0100
0100
0100
0100
0100
0100
ENDCHAR
STARTCHAR 252D
ENCODING 9517
SWIDTH 1000 0
DWIDTH 16 0
BBX 16 8 0 -3
BITMAP
FFFF
FF00
0100
0100
0100
0100
0100
0100
ENDCHAR
STARTCHAR 252E
ENCODING 9518
SWIDTH 1000 0
DWIDTH 16 0
BBX 16 8 0 -3
BITMAP
FFFF
01FF
0100
0100
0100
0100
0100
0100
ENDCHAR
STARTCHAR 252F
ENCODING 9519
SWIDTH 1000 0
DWIDTH 16 0
BBX 16 8 0 -3
BITMAP
FFFF
FFFF
0100
0100
0100
0100
0100
0100
ENDCHAR
STARTCHAR 2530
ENCODING 9520
SWIDTH 1000 0
DWIDTH 16 0
BBX 16 8 0 -3
BITMAP
FFFF
0180
0180
0180
0180
0180
0180
0180
ENDCHAR
STARTCHAR 2531
ENCODING 9521
SWIDTH 1000 0
DWIDTH 16 0
BBX 16 8 0 -3
BITMAP
FFFF
FF80
0180
0180
0180
0180
0180
0180
ENDCHAR
STARTCHAR 2532
ENCODING 9522
SWIDTH 1000 0
DWIDTH 16 0
BBX 16 8 0 -3
BITMAP
FFFF
01FF
0180
0180
0180
0180
0180
0180
ENDCHAR
STARTCHAR 2533
ENCODING 9523
SWIDTH 1000 0
DWIDTH 16 0
BBX 16 8 0 -3
BITMAP
FFFF
FFFF
0180
0180
0180
0180
0180
0180
ENDCHAR
STARTCHAR 2534
ENCODING 9524
SWIDTH 1000 0
DWIDTH 16 0
BBX 16 9 0 4
BITMAP
0100
0100
0100
0100
0100
0100
0100
0100
FFFF
ENDCHAR
STARTCHAR 2535
ENCODING 9525
SWIDTH 1000 0
DWIDTH 16 0
BBX 16 10 0 3
BITMAP
0100
0100
0100
0100
0100
0100
0100
0100
FFFF
FE00
ENDCHAR
STARTCHAR 2536
ENCODING 9526
SWIDTH 1000 0
DWIDTH 16 0
BBX 16 10 0 3
BITMAP
0100
0100
0100
0100
0100
0100
0100
0100
FFFF
00FF
ENDCHAR
STARTCHAR 2537
ENCODING 9527
SWIDTH 1000 0
DWIDTH 16 0
BBX 16 10 0 3
BITMAP
0100
0100
0100
0100
0100
0100
0100
0100
FFFF
FFFF
ENDCHAR
STARTCHAR 2538
ENCODING 9528
SWIDTH 1000 0
DWIDTH 16 0
BBX 16 9 0 4
BITMAP
0180
0180
0180
0180
0180
0180
0180
0180
FFFF
ENDCHAR
STARTCHAR 2539
ENCODING 9529
SWIDTH 1000 0
DWIDTH 16 0
BBX 16 10 0 3
BITMAP
0180
0180
0180
0180
0180
0180
0180
0180
FFFF
FF80
ENDCHAR
STARTCHAR 253A
ENCODING 9530
SWIDTH 1000 0
DWIDTH 16 0
BBX 16 10 0 3
BITMAP
0180
0180
0180
0180
0180
0180
0180
0180
FFFF
01FF
ENDCHAR
STARTCHAR 253B
ENCODING 9531
SWIDTH 1000 0
DWIDTH 16 0
BBX 16 10 0 3
BITMAP
0180
0180
0180
0180
0180
0180
0180
0180
FFFF
FFFF
ENDCHAR
STARTCHAR 253C
ENCODING 9532
SWIDTH 1000 0
DWIDTH 16 0
BBX 16 16 0 -3
BITMAP
0100
0100
0100
0100
0100
0100
0100
0100
FFFF
0100
0100
0100
0100
0100
0100
0100
ENDCHAR
STARTCHAR 253D
ENCODING 9533
SWIDTH 1000 0
DWIDTH 16 0
BBX 16 16 0 -3
BITMAP
0100
0100
0100
0100
0100
0100
0100
0100
FFFF
FF00
0100
0100
0100
0100
0100
0100
ENDCHAR
STARTCHAR 253E
ENCODING 9534
SWIDTH 1000 0
DWIDTH 16 0
BBX 16 16 0 -3
BITMAP
0100
0100
0100
0100
0100
0100
0100
0100
FFFF
01FF
0100
0100
0100
0100
0100
0100
ENDCHAR
STARTCHAR 253F
ENCODING 9535
SWIDTH 1000 0
DWIDTH 16 0
BBX 16 16 0 -3
BITMAP
0100
0100
0100
0100
0100
0100
0100
0100
FFFF
FFFF
0100
0100
0100
0100
0100
0100
ENDCHAR
STARTCHAR 2540
ENCODING 9536
SWIDTH 1000 0
DWIDTH 16 0
BBX 16 16 0 -3
BITMAP
0180
0180
0180
0180
0180
0180
0180
0180
FFFF
0100
0100
0100
0100
0100
0100
0100
ENDCHAR
STARTCHAR 2541
ENCODING 9537
SWIDTH 1000 0
DWIDTH 16 0
BBX 16 16 0 -3
BITMAP
0100
0100
0100
0100
0100
0100
0100
0100
FFFF
0180
0180
0180
0180
0180
0180
0180
ENDCHAR
STARTCHAR 2542
ENCODING 9538
SWIDTH 1000 0
DWIDTH 16 0
BBX 16 16 0 -3
BITMAP
0180
0180
0180
0180
0180
0180
0180
0180
FFFF
0180
0180
0180
0180
0180
0180
0180
ENDCHAR
STARTCHAR 2543
ENCODING 9539
SWIDTH 1000 0
DWIDTH 16 0
BBX 16 16 0 -3
BITMAP
0180
0180
0180
0180
0180
0180
0180
0180
FFFF
FF00
0100
0100
0100
0100
0100
0100
ENDCHAR
STARTCHAR 2544
ENCODING 9540
SWIDTH 1000 0
DWIDTH 16 0
BBX 16 16 0 -3
BITMAP
0180
0180
0180
0180
0180
0180
0180
0180
FFFF
01FF
0100
0100
0100
0100
0100
0100
ENDCHAR
STARTCHAR 2545
ENCODING 9541
SWIDTH 1000 0
DWIDTH 16 0
BBX 16 16 0 -3
BITMAP
0100
0100
0100
0100
0100
0100
0100
0100
FFFF
FF80
0180
0180
0180
0180
0180
0180
ENDCHAR
STARTCHAR 2546
ENCODING 9542
SWIDTH 1000 0
DWIDTH 16 0
BBX 16 16 0 -3
BITMAP
0100
0100
0100
0100
0100
0100
0100
0100
FFFF
01FF
0180
0180
0180
0180
0180
0180
ENDCHAR
STARTCHAR 2547
ENCODING 9543
SWIDTH 1000 0
DWIDTH 16 0
BBX 16 16 0 -3
BITMAP
0180
0180
0180
0180
0180
0180
0180
0180
FFFF
FFFF
0100
0100
0100
0100
0100
0100
ENDCHAR
STARTCHAR 2548
ENCODING 9544
SWIDTH 1000 0
DWIDTH 16 0
BBX 16 16 0 -3
BITMAP
0100
0100
0100
0100
0100
0100
0100
0100
FFFF
FFFF
0180
0180
0180
0180
0180
0180
ENDCHAR
STARTCHAR 2549
ENCODING 9545
SWIDTH 1000 0
DWIDTH 16 0
BBX 16 16 0 -3
BITMAP
0180
0180
0180
0180
0180
0180
0180
0180
FFFF
FF80
0180
0180
0180
0180
0180
0180
ENDCHAR
STARTCHAR 254A
ENCODING 9546
SWIDTH 1000 0
DWIDTH 16 0
BBX 16 16 0 -3
BITMAP
0180
0180
0180
0180
0180
0180
0180
0180
FFFF
01FF
0180
0180
0180
0180
0180
0180
ENDCHAR
STARTCHAR 254B
ENCODING 9547
SWIDTH 1000 0
DWIDTH 16 0
BBX 16 16 0 -3
BITMAP
0180
0180
0180
0180
0180
0180
0180
0180
FFFF
FFFF
0180
0180
0180
0180
0180
0180
ENDCHAR
STARTCHAR 254C
ENCODING 9548
SWIDTH 1000 0
DWIDTH 16 0
BBX 15 1 1 4
BITMAP
FDFE
ENDCHAR
STARTCHAR 254D
ENCODING 9549
SWIDTH 1000 0
DWIDTH 16 0
BBX 15 2 1 3
BITMAP
FDFE
FDFE
ENDCHAR
STARTCHAR 254E
ENCODING 9550
SWIDTH 1000 0
DWIDTH 16 0
BBX 1 15 7 -3
BITMAP
80
80
80
80
80
80
80
00
80
80
80
80
80
80
80
ENDCHAR
STARTCHAR 254F
ENCODING 9551
SWIDTH 1000 0
DWIDTH 16 0
BBX 2 15 7 -3
BITMAP
C0
C0
C0
C0
C0
C0
C0
00
C0
C0
C0
C0
C0
C0
C0
ENDCHAR
STARTCHAR 2550
ENCODING 9552
SWIDTH 1000 0
DWIDTH 16 0
BBX 16 3 0 3
BITMAP
FFFF
0000
FFFF
ENDCHAR
STARTCHAR 2551
ENCODING 9553
SWIDTH 1000 0
DWIDTH 16 0
BBX 3 16 6 -3
BITMAP
A0
A0
A0
A0
A0
A0
A0
A0
A0
A0
A0
A0
A0
A0
A0
A0
ENDCHAR
STARTCHAR 2552
ENCODING 9554
SWIDTH 1000 0
DWIDTH 16 0
BBX 9 9 7 -3
BITMAP
FF80
8000
FF80
8000
8000
8000
8000
8000
8000
ENDCHAR
STARTCHAR 2553
ENCODING 9555
SWIDTH 1000 0
DWIDTH 16 0
BBX 10 8 6 -3
BITMAP
FFC0
A000
A000
A000
A000
A000
A000
A000
ENDCHAR
STARTCHAR 2554
ENCODING 9556
SWIDTH 1000 0
DWIDTH 16 0
BBX 10 9 6 -3
BITMAP
FFC0
8000
BFC0
A000
A000
A000
A000
A000
A000
ENDCHAR
STARTCHAR 2555
ENCODING 9557
SWIDTH 1000 0
DWIDTH 16 0
BBX 9 9 0 -3
BITMAP
FF80
0080
FF80
0080
0080
0080
0080
0080
0080
ENDCHAR
STARTCHAR 2556
ENCODING 9558
SWIDTH 1000 0
DWIDTH 16 0
BBX 10 8 0 -3
BITMAP
FFC0
0140
0140
0140
0140
0140
0140
0140
ENDCHAR
STARTCHAR 2557
ENCODING 9559
SWIDTH 1000 0
DWIDTH 16 0
BBX 10 9 0 -3
BITMAP
FFC0
0040
FF40
0140
0140
0140
0140
0140
0140
ENDCHAR
STARTCHAR 2558
ENCODING 9560
SWIDTH 1000 0
DWIDTH 16 0
BBX 10 10 6 3
BITMAP
8000
8000
8000
8000
8000
8000
8000
FFC0
8000
FFC0
ENDCHAR
STARTCHAR 2559
ENCODING 9561
SWIDTH 1000 0
DWIDTH 16 0
BBX 10 9 6 4
BITMAP
A000
A000
A000
A000
A000
A000
A000
A000
FFC0
ENDCHAR
STARTCHAR 255A
ENCODING 9562
SWIDTH 1000 0
DWIDTH 16 0
BBX 10 10 6 3
BITMAP
A000
A000
A000
A000
A000
A000
A000
BFC0
8000
FFC0
ENDCHAR
STARTCHAR 255B
ENCODING 9563
SWIDTH 1000 0
DWIDTH 16 0
BBX 9 10 0 3
BITMAP
0080
0080
0080
0080
0080
0080
0080
FF80
0080
FF80
ENDCHAR
STARTCHAR 255C
ENCODING 9564
SWIDTH 1000 0
DWIDTH 16 0
BBX 10 9 0 4
BITMAP
0140
0140
0140
0140
0140
0140
0140
0140
FFC0
ENDCHAR
STARTCHAR 255D
ENCODING 9565
SWIDTH 1000 0
DWIDTH 16 0
BBX 10 10 0 3
BITMAP
0140
0140
0140
0140
0140
0140
0140
FF40
0040
FFC0
ENDCHAR
STARTCHAR 255E
ENCODING 9566
SWIDTH 1000 0
DWIDTH 16 0
BBX 9 16 7 -3
BITMAP
8000
8000
8000
8000
8000
8000
8000
FF80
8000
FF80
8000
8000
8000
8000
8000
8000
ENDCHAR
STARTCHAR 255F
ENCODING 9567
SWIDTH 1000 0
DWIDTH 16 0
BBX 9 16 6 -3
BITMAP
A000
A000
A000
A000
A000
A000
A000
A000
BF80
A000
A000
A000
A000
A000
A000
A000
ENDCHAR
STARTCHAR 2560
ENCODING 9568
SWIDTH 1000 0
DWIDTH 16 0
BBX 10 16 6 -3
BITMAP
A000
A000
A000
A000
A000
A000
A000
BFC0
8000
BFC0
A000
A000
A000
A000
A000
A000
ENDCHAR
STARTCHAR 2561
ENCODING 9569
SWIDTH 1000 0
DWIDTH 16 0
BBX 9 16 0 -3
BITMAP
0080
0080
0080
0080
0080
0080
0080
FF80
0080
FF80
0080
0080
0080
0080
0080
0080
ENDCHAR
STARTCHAR 2562
ENCODING 9570
SWIDTH 1000 0
DWIDTH 16 0
BBX 10 16 0 -3
BITMAP
0140
0140
0140
0140
0140
0140
0140
0140
FF40
0140
0140
0140
0140
0140
0140
0140
ENDCHAR
STARTCHAR 2563
ENCODING 9571
SWIDTH 1000 0
DWIDTH 16 0
BBX 10 16 0 -3
BITMAP
0140
0140
0140
0140
0140
0140
0140
FF40
0040
FF40
0140
0140
0140
0140
0140
0140
ENDCHAR
STARTCHAR 2564
ENCODING 9572
SWIDTH 1000 0
DWIDTH 16 0
BBX 16 9 0 -3
BITMAP
FFFF
0000
FFFF
0100
0100
0100
0100
0100
0100
ENDCHAR
STARTCHAR 2565
ENCODING 9573
SWIDTH 1000 0
DWIDTH 16 0
BBX 16 8 0 -3
BITMAP
FFFF
0280
0280
0280
0280
0280
0280
0280
ENDCHAR
STARTCHAR 2566
ENCODING 9574
SWIDTH 1000 0
DWIDTH 16 0
BBX 16 9 0 -3
BITMAP
FFFF
0000
FEFF
0280
0280
0280
0280
0280
0280
ENDCHAR
STARTCHAR 2567
ENCODING 9575
SWIDTH 1000 0
DWIDTH 16 0
BBX 16 10 0 3
BITMAP
0100
0100
0100
0100
0100
0100
0100
FFFF
0000
FFFF
ENDCHAR
STARTCHAR 2568
ENCODING 9576
SWIDTH 1000 0
DWIDTH 16 0
BBX 16 9 0 3
BITMAP
0280
0280
0280
0280
0280
0280
0280
0280
FFFF
ENDCHAR
STARTCHAR 2569
ENCODING 9577
SWIDTH 1000 0
DWIDTH 16 0
BBX 16 9 0 4
BITMAP
0280
0280
0280
0280
0280
0280
FEFF
0000
FFFF
ENDCHAR
STARTCHAR 256A
ENCODING 9578
SWIDTH 1000 0
DWIDTH 16 0
BBX 16 16 0 -3
BITMAP
0100
0100
0100
0100
0100
0100
0100
FFFF
0100
FFFF
0100
0100
0100
0100
0100
0100
ENDCHAR
STARTCHAR 256B
ENCODING 9579
SWIDTH 1000 0
DWIDTH 16 0
BBX 15 16 0 -3
BITMAP
0280
0280
0280
0280
0280
0280
0280
0280
FFFE
0280
0280
0280
0280
0280
0280
0280
ENDCHAR
STARTCHAR 256C
ENCODING 9580
SWIDTH 1000 0
DWIDTH 16 0
BBX 16 16 0 -3
BITMAP
0280
0280
0280
0280
0280
0280
0280
FEFF
0000
FEFF
0280
0280
0280
0280
0280
0280
ENDCHAR
STARTCHAR 256D
ENCODING 9581
SWIDTH 1000 0
DWIDTH 16 0
BBX 8 8 7 -3
BITMAP
07
18
30
60
40
80
80
80
ENDCHAR
ENDFONT
